<?xml version="1.0" encoding="utf-8"?>
<!-- Generator: Adobe Illustrator 27.5.0, SVG Export Plug-In . SVG Version: 6.00 Build 0)  -->
<svg version="1.1" id="Layer_1" xmlns="http://www.w3.org/2000/svg" xmlns:xlink="http://www.w3.org/1999/xlink" x="0px" y="0px"
	 viewBox="0 0 32 32" style="enable-background:new 0 0 32 32;" xml:space="preserve">
<style type="text/css">
	.st0{fill:#004c5c;}
	.st1{display:none;fill:#004c5c;}
	.st2{fill:#FF7C5E;}
</style>
<path class="st0" d="M24,32H8c-4.4,0-8-3.6-8-8V8c0-4.4,3.6-8,8-8h16c4.4,0,8,3.6,8,8v16C32,28.4,28.4,32,24,32z"/>
<path class="st2" d="M5,6v13.6l-2.3,2.3C2.3,22.3,2,23,2,23.6C2,24.9,3.1,26,4.4,26h23.2c1.3,0,2.4-1.1,2.4-2.4
	c0-0.6-0.3-1.3-0.7-1.7L27,19.6V6H5z M7,8h18v11H7V8z M16,9l-1.5,9H16l1.5-9H16z M12.1,11l-1.7,2.1L10,13.5l0.4,0.4l1.7,2.1l1.1-0.9
	l-1.4-1.6l1.4-1.6L12.1,11z M19.9,11l-1.1,0.9l1.4,1.6l-1.4,1.6l1.1,0.9l1.7-2.1l0.4-0.4l-0.4-0.4L19.9,11z M6.4,21h19.1l2.3,2.3
	c0.1,0.1,0.1,0.2,0.1,0.3c0,0.2-0.2,0.4-0.4,0.4H4.4C4.2,24,4,23.8,4,23.6c0-0.1,0-0.2,0.1-0.3L6.4,21z"/>
</svg>
