<?xml version="1.0" standalone="no"?>
<!DOCTYPE svg PUBLIC "-//W3C//DTD SVG 1.1//EN" "http://www.w3.org/Graphics/SVG/1.1/DTD/svg11.dtd" >
<svg xmlns="http://www.w3.org/2000/svg" xmlns:xlink="http://www.w3.org/1999/xlink" version="1.1">
<metadata>
Created by FontForge 20201107 at Tue Aug 10 23:29:45 2021
 By 
Copyright 2019 The Jura Project Authors (https://github.com/ossobuffo/jura)
</metadata>
<defs>
<font id="Jura-Medium" horiz-adv-x="1226" >
  <font-face 
    font-family="Jura Medium"
    font-weight="500"
    font-stretch="normal"
    units-per-em="2000"
    panose-1="0 0 0 0 0 0 0 0 0 0"
    ascent="1600"
    descent="-400"
    x-height="952"
    cap-height="1278"
    bbox="-334 -416 2148 1734.4"
    underline-thickness="50"
    underline-position="-125"
    unicode-range="U+000D-FFFD"
  />
<missing-glyph horiz-adv-x="1000" 
 />
    <glyph glyph-name="fi" unicode="fi" horiz-adv-x="1147" 
d="M281 0q-63 0 -63 63v779h-81q-63 0 -63 63t63 63h81v62q0 188 88.5 276t276.5 88h292l-34 -197l-258 71q-134 0 -186.5 -51.5t-52.5 -186.5v-62h550q63 0 63 -63t-63 -63h-550v-779q0 -63 -63 -63zM893 0q-63 0 -63 63v842q0 63 63 63t63 -63v-842q0 -63 -63 -63z
M867 1194q-77 0 -77 77v50q0 76 77 76h48q75 0 75 -76v-50q0 -77 -75 -77h-48z" />
    <glyph glyph-name="fl" unicode="fl" horiz-adv-x="1238" 
d="M1100 0q-137 3 -203.5 69.5t-66.5 201.5v997h-247q-135 0 -187 -51.5t-52 -187.5v-966q0 -63 -63 -63t-63 63v966q0 189 88.5 277t276.5 88h310q63 0 63 -63v-1060q0 -82 30 -112.5t114 -32.5q33 0 48 -15t15 -49q0 -63 -63 -62zM137 842q-63 0 -63 63t63 63h439
q63 0 63 -63t-63 -63h-439z" />
    <glyph glyph-name="f_f" unicode="ff" horiz-adv-x="1307" 
d="M281 0q-63 0 -63 63v966q0 189 88.5 277t276.5 88q58 0 58 -63t-58 -63q-134 0 -186.5 -51.5t-52.5 -187.5v-966q0 -63 -63 -63zM137 842q-63 0 -63 63t63 63h715q63 0 63 -63q0 -30 -16.5 -46.5t-46.5 -16.5h-715zM893 0q-63 0 -63 63v779h-81q-63 0 -63 63t63 63h81v61
q0 189 88.5 277t276.5 88q58 0 58 -63t-58 -63q-135 0 -187 -51.5t-52 -187.5v-61h234q63 0 63 -63t-63 -63h-234v-779q0 -63 -63 -63z" />
    <glyph glyph-name="f_f_i" unicode="ffi" horiz-adv-x="1758" 
d="M281 0q-63 0 -63 63v966q0 189 88.5 277t276.5 88q58 0 58 -63t-58 -63q-134 0 -186.5 -51.5t-52.5 -187.5v-966q0 -63 -63 -63zM137 842q-63 0 -63 63t63 63h713q63 0 63 -63t-63 -63h-713zM1504 0q-63 0 -63 63v842q0 63 63 63t63 -63v-842q0 -63 -63 -63zM1478 1194
q-77 0 -77 77v50q0 76 77 76h48q75 0 75 -76v-50q0 -77 -75 -77h-48zM892 0q-63 0 -63 63v779h-81q-63 0 -63 63t63 63h81v62q0 188 88.5 276t276.5 88h292l-34 -197l-258 71q-134 0 -186.5 -51.5t-52.5 -186.5v-62h550q63 0 63 -63t-63 -63h-550v-779q0 -63 -63 -63z" />
    <glyph glyph-name="f_f_l" unicode="ffl" horiz-adv-x="1836" 
d="M281 0q-63 0 -63 63v966q0 189 88.5 277t276.5 88q58 0 58 -63t-58 -63q-134 0 -186.5 -51.5t-52.5 -187.5v-966q0 -63 -63 -63zM137 842q-63 0 -63 63t63 63h671q63 0 63 -63t-63 -63h-671zM1698 0q-137 3 -203.5 69.5t-66.5 201.5v997h-247q-135 0 -187 -51.5
t-52 -187.5v-966q0 -63 -63 -63t-63 63v966q0 189 88.5 277t276.5 88h310q63 0 63 -63v-1060q0 -82 30 -112.5t114 -32.5q33 0 48 -15t15 -49q0 -63 -63 -62zM735 842q-63 0 -63 63t63 63h439q63 0 63 -63t-63 -63h-439z" />
    <glyph glyph-name=".notdef" horiz-adv-x="1000" 
 />
    <glyph glyph-name=".null" horiz-adv-x="0" 
 />
    <glyph glyph-name="nonmarkingreturn" horiz-adv-x="666" 
 />
    <glyph glyph-name="NULL" horiz-adv-x="0" 
 />
    <glyph glyph-name="NULL" horiz-adv-x="0" 
 />
    <glyph glyph-name="CR" unicode="&#xd;" horiz-adv-x="544" 
 />
    <glyph glyph-name="space" unicode=" " horiz-adv-x="544" 
 />
    <glyph glyph-name="exclam" unicode="!" horiz-adv-x="477" 
d="M240 287q-63 0 -63 63v983q0 63 63 63t63 -63v-983q0 -63 -63 -63zM219 0q-65 0 -65 66v42q0 64 65 64h41q63 0 63 -64v-42q0 -66 -63 -66h-41z" />
    <glyph glyph-name="quotedbl" unicode="&#x22;" horiz-adv-x="670" 
d="M210 912q-23 0 -39.5 16.5t-16.5 39.5v408q0 24 16.5 40t39.5 16q24 0 40 -16t16 -40v-408q0 -23 -16 -39.5t-40 -16.5zM460 912q-23 0 -39.5 16.5t-16.5 39.5v408q0 24 16.5 40t39.5 16q24 0 40 -16t16 -40v-408q0 -23 -16 -39.5t-40 -16.5z" />
    <glyph glyph-name="numbersign" unicode="#" horiz-adv-x="1186" 
d="M232 -12q-23 0 -39.5 16.5t-16.5 39.5q0 4 0.5 8.5t1.5 7.5l98 350h-146q-23 0 -39.5 16.5t-16.5 39.5q0 24 16.5 40t39.5 16h177l81 288h-146q-23 0 -39.5 16.5t-16.5 39.5q0 24 16.5 40t39.5 16h176l100 358q5 18 20 30t34 12q24 0 40 -16t16 -40v-7.5t-2 -8.5
l-92 -328h244l100 358q5 18 20 30t34 12q24 0 40 -16t16 -40v-7.5t-2 -8.5l-92 -328h202q24 0 40 -16t16 -40q0 -23 -16 -39.5t-40 -16.5h-233l-79 -288h200q24 0 40 -16t16 -40q0 -23 -16 -39.5t-40 -16.5h-232l-106 -380q-5 -17 -19.5 -29.5t-34.5 -12.5q-23 0 -39.5 16.5
t-16.5 39.5q0 4 0.5 8.5t1.5 7.5l98 350h-244l-106 -380q-5 -17 -19.5 -29.5t-34.5 -12.5zM424 522h243l81 288h-245z" />
    <glyph glyph-name="dollar" unicode="$" horiz-adv-x="1302" 
d="M513 0q-182 0 -267.5 86.5t-85.5 266.5q0 27 18 45t45 18t45 -18t18 -45q0 -129 49.5 -178t177.5 -49h276q129 0 178 49t49 178q0 130 -49 178.5t-178 48.5h-246q-173 0 -255 84.5t-82 255.5q0 173 82 254t253 81h242q172 0 253.5 -81t81.5 -252q0 -27 -18 -45t-45 -18
t-45 18t-18 45q0 118 -44.5 162.5t-164.5 44.5h-242q-119 0 -164 -44.5t-45 -164.5q0 -118 45.5 -166t165.5 -48h246q181 0 267 -86t86 -267q0 -180 -86 -266.5t-267 -86.5h-276zM654 -172q-56 0 -56 56v735l10 53v727q0 56 56 56t56 -56v-735l-10 -49v-731q0 -56 -56 -56z
" />
    <glyph glyph-name="percent" unicode="%" horiz-adv-x="1594" 
d="M382 624q-136 0 -202 66.5t-66 202.5v150q0 138 66 203t202 65h32q137 0 202.5 -66t65.5 -202v-148q0 -137 -65.5 -204t-202.5 -67h-32zM234 893q0 -86 31.5 -117t116.5 -31h32q86 0 117 31.5t31 118.5v148q0 86 -31 116.5t-117 30.5h-32q-85 0 -116.5 -30t-31.5 -117
v-150zM1180 0q-136 0 -202 66t-66 202v150q0 139 66 203.5t202 64.5h32q137 0 202.5 -65.5t65.5 -202.5v-148q0 -137 -65.5 -203.5t-202.5 -66.5h-32zM1032 268q0 -85 31.5 -116.5t116.5 -31.5h32q86 0 117 32t31 118v148q0 86 -31 117t-117 31h-32q-85 0 -116.5 -30
t-31.5 -118v-150zM330 -19q-26 0 -44.5 18.5t-18.5 44.5q0 11 3.5 21t8.5 18l922 1220q20 26 51 26q27 0 45 -18t18 -45q0 -10 -3 -20t-9 -19l-922 -1220q-19 -26 -51 -26z" />
    <glyph glyph-name="ampersand" unicode="&#x26;" horiz-adv-x="1250" 
d="M1191 70q-41 -47 -89 -5l-667 590q-68 60 -106 108.5t-53.5 98.5t-15.5 114q0 159 75.5 235t233.5 76h50q141 0 216 -59t90 -184q4 -32 -13 -49t-48 -17q-30 0 -45 16t-22 46q-9 69 -49.5 95t-128.5 26h-50q-104 0 -143.5 -38.5t-39.5 -146.5q0 -44 10.5 -77t39 -67
t83.5 -83l667 -589q48 -43 5 -90zM545 -21q-221 0 -323 102t-102 323q0 163 56 261t175 137q30 12 52.5 -2t27.5 -44q7 -31 -7 -48t-42 -29q-73 -27 -104.5 -91.5t-31.5 -183.5q0 -112 28 -177.5t93.5 -93.5t177.5 -28h64q112 0 177.5 28.5t93.5 94t28 176.5v91q0 63 63 63
t63 -63v-91q0 -219 -102.5 -322t-322.5 -103h-64z" />
    <glyph glyph-name="quotesingle" unicode="'" horiz-adv-x="420" 
d="M210 912q-23 0 -39.5 16.5t-16.5 39.5v408q0 24 16.5 40t39.5 16q24 0 40 -16t16 -40v-408q0 -23 -16 -39.5t-40 -16.5z" />
    <glyph glyph-name="parenleft" unicode="(" horiz-adv-x="554" 
d="M478 -336q-190 0 -277 107t-87 337v770q0 241 87 352.5t277 111.5q24 0 40 -16t16 -40q0 -23 -16 -39.5t-40 -16.5q-93 0 -148 -33t-79.5 -110t-24.5 -209v-770q0 -186 56.5 -259t195.5 -73q24 0 40 -16t16 -40q0 -23 -16 -39.5t-40 -16.5z" />
    <glyph glyph-name="parenright" unicode=")" horiz-adv-x="554" 
d="M76 -336q-23 0 -39.5 16.5t-16.5 39.5q0 24 16.5 40t39.5 16q140 0 196 73t56 259v770q0 132 -24 209t-79.5 110t-148.5 33q-23 0 -39.5 16.5t-16.5 39.5q0 24 16.5 40t39.5 16q191 0 277.5 -111.5t86.5 -352.5v-770q0 -230 -86.5 -337t-277.5 -107z" />
    <glyph glyph-name="asterisk" unicode="*" horiz-adv-x="786" 
d="M393 703q-57 0 -57 56v188l49 -29l-162 -94q-23 -13 -43 -7.5t-34 28.5q-27 49 21 76l163 94v-55l-163 92q-24 15 -28.5 36t7.5 41q14 25 35 29t42 -9l162 -94l-49 -29v189q0 56 57 56q55 0 55 -56v-189l-49 29l163 94q47 27 76 -20q29 -48 -20 -77l-163 -92v55l163 -94
q49 -28 20 -76t-76 -21l-163 94l49 29v-188q0 -56 -55 -56z" />
    <glyph glyph-name="plus" unicode="+" horiz-adv-x="1154" 
d="M513 1007q0 56 56 56t56 -56v-734q0 -56 -56 -56t-56 56v734zM210 598q-56 0 -56 56t56 56h734q56 0 56 -56t-56 -56h-734zM210 598q-56 0 -56 56t56 56h734q56 0 56 -56t-56 -56h-734z" />
    <glyph glyph-name="comma" unicode="," horiz-adv-x="446" 
d="M129 -219q-27 0 -43.5 15t-12.5 41l50 277q4 58 65 58h41q63 0 63 -64v-36q0 -18 -3.5 -30.5t-8.5 -23.5l-98 -201q-19 -36 -53 -36z" />
    <glyph glyph-name="hyphen" unicode="-" horiz-adv-x="972" 
d="M210 484q-23 0 -39.5 16.5t-16.5 39.5q0 24 16.5 40t39.5 16h552q24 0 40 -16t16 -40q0 -23 -16 -39.5t-40 -16.5h-552z" />
    <glyph glyph-name="period" unicode="." horiz-adv-x="477" 
d="M219 0q-65 0 -65 66v42q0 64 65 64h41q63 0 63 -64v-42q0 -66 -63 -66h-41z" />
    <glyph glyph-name="slash" unicode="/" horiz-adv-x="669" 
d="M150 -285q-36 0 -53 23t-8 58l410 1594q14 49 61 49q38 0 54.5 -22t6.5 -59l-410 -1594q-12 -49 -61 -49z" />
    <glyph glyph-name="zero" unicode="0" horiz-adv-x="1270" 
d="M575 -2q-221 0 -324 103t-103 324v458q0 222 103.5 324.5t323.5 100.5h120q222 0 324.5 -102.5t102.5 -324.5v-456q0 -221 -102.5 -324t-324.5 -103h-120zM575 124h120q113 0 178.5 29t94 94.5t28.5 177.5v456q0 113 -28.5 178.5t-94 94t-178.5 28.5h-120
q-112 1 -177.5 -26.5t-94.5 -93.5t-29 -179v-458q0 -112 28.5 -177.5t94.5 -94.5t178 -29zM615 568q-65 0 -65 66v42q0 64 65 64h41q63 0 63 -64v-42q0 -66 -63 -66h-41z" />
    <glyph glyph-name="one" unicode="1" horiz-adv-x="732" 
d="M469 0q-63 0 -63 63v1085l47 15l-218 -210q-20 -19 -41.5 -21.5t-42.5 18.5q-40 42 3 87l247 242q31 32 78 32q53 0 53 -63v-1185q0 -63 -63 -63z" />
    <glyph glyph-name="two" unicode="2" horiz-adv-x="1139" 
d="M954 0h-766q-65 0 -65 63q0 121 35 207.5t97 150.5t144 116.5t175 105.5q103 59 173.5 104t106 94.5t35.5 120.5q0 127 -48 175t-175 48h-214q-108 0 -158.5 -35t-60.5 -124q-4 -30 -19 -46t-46 -16t-47.5 17t-14.5 49q15 144 99.5 212.5t246.5 68.5h214
q180 0 264.5 -84.5t84.5 -264.5q0 -109 -52 -182.5t-138 -130.5t-189 -115q-111 -64 -192.5 -118t-130 -121t-60.5 -169h701q63 0 63 -63t-63 -63z" />
    <glyph glyph-name="three" unicode="3" horiz-adv-x="1225" 
d="M480 1q-172 0 -261.5 73t-104.5 228q-2 32 14.5 49t47.5 17q58 0 64 -63q11 -99 65.5 -138.5t174.5 -39.5h228q138 0 190.5 52.5t52.5 188.5t-52.5 188.5t-190.5 52.5h-175q-63 0 -63 63t63 63h218q96 1 132 59t36 168q0 127 -48 175t-175 48h-194q-108 0 -158.5 -35
t-60.5 -124q-7 -62 -65 -62q-31 0 -47.5 17t-13.5 49q15 144 99.5 212.5t245.5 68.5h194q180 0 264.5 -84.5t84.5 -264.5q0 -196 -131 -271q84 -41 123.5 -120.5t39.5 -202.5q0 -189 -89 -278t-280 -89h-228z" />
    <glyph glyph-name="four" unicode="4" horiz-adv-x="1141" 
d="M835 0q-63 0 -63 63l6 1087l41 19l-603 -795l-16 31l804 2q31 0 47 -17t16 -46q0 -63 -63 -63h-867q-63 0 -63 63q0 30 26 66l655 862q19 25 38.5 32t46.5 7q64 0 64 -63l-6 -1185q0 -63 -63 -63z" />
    <glyph glyph-name="five" unicode="5" horiz-adv-x="1239" 
d="M514 0q-172 0 -261.5 73t-104.5 228q-2 32 14.5 49t47.5 17q58 0 64 -62q11 -99 65.5 -139t174.5 -40h208q138 0 190.5 53.5t52.5 189.5v138q0 138 -52.5 190.5t-190.5 52.5h-148q-174 0 -244 -55q-21 -15 -39.5 -22t-44.5 1l-14 4q-53 15 -53 70v500q0 63 63 63h779
q63 0 63 -63t-63 -63h-716v-358q101 49 269 49h148q190 0 279.5 -89.5t89.5 -279.5v-138q0 -189 -89.5 -279t-279.5 -90h-208z" />
    <glyph glyph-name="six" unicode="6" horiz-adv-x="1242" 
d="M517 1q-190 0 -279.5 89t-89.5 278v594q0 180 85 264.5t264 84.5h248q162 0 246.5 -68.5t98.5 -212.5q4 -32 -12.5 -49t-47.5 -17q-58 0 -66 62q-9 89 -59 124t-160 35h-248q-126 0 -174.5 -48.5t-48.5 -174.5v-204q71 115 243 115h208q190 0 279.5 -89.5t89.5 -279.5
v-134q0 -190 -89.5 -279.5t-279.5 -89.5h-208zM517 127h208q138 0 190.5 53.5t52.5 189.5v134q0 138 -53 190.5t-190 52.5h-208q-138 0 -190.5 -52.5t-52.5 -188.5v-138q0 -136 52.5 -188.5t190.5 -52.5z" />
    <glyph glyph-name="seven" unicode="7" horiz-adv-x="988" 
d="M353 0q-63 0 -62 66q2 146 16.5 253t47 188t88.5 146t142 124q68 50 111 106.5t65 129.5t26 172h-650q-63 0 -63 63t63 63h714q63 0 63 -63q0 -138 -25.5 -242t-82 -184t-148.5 -147q-69 -48 -115 -99t-73 -118t-39 -161.5t-14 -230.5q-1 -66 -64 -66z" />
    <glyph glyph-name="eight" unicode="8" horiz-adv-x="1262" 
d="M945 680q169 -82 169 -313q0 -189 -89 -278t-280 -89h-228q-190 0 -279.5 89t-89.5 278q0 236 175 316q-133 88 -133 282q0 178 85 262t264 84h194q180 0 264.5 -84t84.5 -262q0 -201 -137 -285zM539 1185q-126 0 -174.5 -48t-48.5 -172q0 -131 47.5 -181t160.5 -50h230
q81 0 125 26t60.5 77.5t16.5 127.5q0 124 -48 172t-175 48h-194zM745 126q138 0 190.5 52.5t52.5 188.5q0 137 -52.5 189t-190.5 52h-228q-138 0 -190.5 -52t-52.5 -189q0 -136 52.5 -188.5t190.5 -52.5h228z" />
    <glyph glyph-name="nine" unicode="9" horiz-adv-x="1242" 
d="M725 1310q191 0 280 -89t89 -278v-594q0 -179 -84.5 -264t-264.5 -85h-248q-161 0 -245.5 69t-99.5 212q-3 33 13.5 49.5t46.5 16.5q59 0 66 -62q10 -88 60 -123.5t159 -35.5h248q127 0 175 48.5t48 174.5v204q-71 -115 -243 -115h-208q-189 0 -279 90t-90 279v134
q0 191 90 280t279 89h208zM725 1184h-208q-137 0 -190 -53t-53 -190v-134q0 -137 53.5 -190t189.5 -53h208q138 0 190.5 53t52.5 188v138q0 137 -52.5 189t-190.5 52z" />
    <glyph glyph-name="colon" unicode=":" horiz-adv-x="477" 
d="M219 0q-65 0 -65 66v42q0 64 65 64h41q63 0 63 -64v-42q0 -66 -63 -66h-41zM219 660q-65 0 -65 66v42q0 64 65 64h41q63 0 63 -64v-42q0 -66 -63 -66h-41z" />
    <glyph glyph-name="semicolon" unicode=";" horiz-adv-x="446" 
d="M129 -219q-27 0 -43.5 15t-12.5 41l50 277q4 58 65 58h41q63 0 63 -64v-36q0 -18 -3.5 -30.5t-8.5 -23.5l-98 -201q-19 -36 -53 -36zM188 660q-65 0 -65 66v42q0 64 65 64h41q63 0 63 -64v-42q0 -66 -63 -66h-41z" />
    <glyph glyph-name="less" unicode="&#x3c;" horiz-adv-x="1154" 
d="M921 283q-28 -49 -79 -22l-578 325q-40 23 -40 70q0 41 40 63l578 322q50 27 79 -22q27 -50 -23 -79l-553 -306v39l554 -312q50 -29 22 -78z" />
    <glyph glyph-name="equal" unicode="=" horiz-adv-x="1154" 
d="M210 722q-56 0 -56 56t56 56h734q56 0 56 -56t-56 -56h-734zM210 466q-56 0 -56 56t56 56h734q56 0 56 -56t-56 -56h-734z" />
    <glyph glyph-name="greater" unicode="&#x3e;" horiz-adv-x="1154" 
d="M231 283q-27 49 22 78l554 312v-39l-553 306q-50 29 -23 79q30 49 79 22l578 -322q40 -22 40 -63q0 -47 -40 -70l-578 -325q-50 -27 -79 22z" />
    <glyph glyph-name="question" unicode="?" horiz-adv-x="986" 
d="M455 297q-63 0 -63 63q0 108 33.5 173.5t81.5 103.5t92 65q44 28 77.5 55t51.5 68.5t18 112.5q0 127 -48 175t-175 48h-134q-126 0 -174.5 -48.5t-48.5 -174.5q0 -63 -63 -63t-63 63q0 178 86 263.5t263 85.5h134q180 0 264.5 -84.5t84.5 -264.5q0 -108 -33 -173
t-81.5 -103.5t-92.5 -65.5q-44 -28 -77 -54.5t-51.5 -68t-18.5 -113.5q0 -63 -63 -63zM436 0q-65 0 -65 66v42q0 64 65 64h41q63 0 63 -64v-42q0 -66 -63 -66h-41z" />
    <glyph glyph-name="at" unicode="@" horiz-adv-x="1454" 
d="M1258 69q-98 -83 -242 -83h-550q-160 -1 -233 74t-73 240v506q0 166 73 241t233 73h520q164 0 236 -74t72 -242v-384q0 -94 -47.5 -137t-150.5 -43q-62 0 -103 21.5t-64 83.5q-41 -64 -101.5 -86.5t-139.5 -22.5h-14q-133 0 -196.5 63t-63.5 195v102q0 138 63 201t195 63
h82q48 0 86 -12.5t67 -58.5q7 44 20 57.5t29 13.5q24 0 40 -16t16 -40v-384q0 -45 13.5 -56.5t70.5 -11.5q58 0 72 12.5t14 55.5v384q0 81 -17 125t-59.5 61.5t-119.5 17.5h-520q-114 2 -154 -39.5t-40 -162.5v-506q0 -120 40 -161.5t154 -40.5h550q58 0 95 13t75 44
q15 13 36 13q24 0 40 -16t16 -40q0 -26 -20 -43zM526 494q0 -86 31 -116t117 -30h14q111 0 161.5 36.5t50.5 109.5v100q0 94 -29 124t-117 30h-82q-86 0 -116 -29.5t-30 -122.5v-102z" />
    <glyph glyph-name="A" unicode="A" horiz-adv-x="1263" 
d="M105 6q-58 25 -35 83l489 1173q21 49 71 49h5q49 -1 68 -49l492 -1173q25 -58 -34 -83q-58 -23 -82 34l-124 297h-645l-123 -297q-23 -58 -82 -34zM361 463h541l-272 649z" />
    <glyph glyph-name="B" unicode="B" horiz-adv-x="1276" 
d="M257 0q-63 0 -63 63v1185q0 63 63 63h522q151 0 230 -77.5t79 -225.5v-54q0 -150 -95 -217q169 -78 169 -317v-65q0 -174 -91 -264.5t-266 -90.5h-548zM320 126h485q123 0 177 54.5t54 174.5v65q0 121 -53.5 174t-177.5 53h-485v-521zM320 773h481q86 0 123.5 46
t37.5 135v54q0 96 -42 136.5t-141 40.5h-459v-412z" />
    <glyph glyph-name="C" unicode="C" horiz-adv-x="1351" 
d="M587 0q-221 0 -324 103t-103 324v457q0 223 103 325.5t322 101.5h242q186 0 279 -76.5t104 -245.5q4 -31 -12 -48t-48 -17q-58 0 -66 63q-8 114 -66.5 156t-190.5 42h-242q-112 1 -177 -27t-93.5 -94t-28.5 -180v-457q0 -112 28.5 -178t94.5 -94.5t178 -28.5h240
q132 0 190.5 42.5t66.5 155.5q8 63 66 63q32 0 48 -16.5t12 -48.5q-11 -168 -104 -245t-279 -77h-240z" />
    <glyph glyph-name="D" unicode="D" horiz-adv-x="1386" 
d="M257 0q-63 0 -63 63v1185q0 63 63 63h482q253 0 370 -117t117 -370v-337q0 -252 -116.5 -369.5t-370.5 -117.5h-482zM320 126h419q134 0 213 34.5t113.5 114t34.5 212.5v337q0 133 -34.5 212.5t-113.5 114t-213 34.5h-419v-1059z" />
    <glyph glyph-name="E" unicode="E" horiz-adv-x="1150" 
d="M257 0q-63 0 -63 63v1185q0 63 63 63h739q63 0 63 -63t-63 -63h-676v-459h440q63 0 63 -63t-63 -63h-440v-474h676q63 0 63 -63t-63 -63h-739z" />
    <glyph glyph-name="F" unicode="F" horiz-adv-x="1046" 
d="M257 0q-63 0 -63 63v1185q0 63 63 63h726q30 0 46.5 -16.5t16.5 -46.5q0 -63 -63 -63h-663v-459h438q63 0 63 -63t-63 -63h-438v-537q0 -63 -63 -63z" />
    <glyph glyph-name="G" unicode="G" horiz-adv-x="1355" 
d="M587 0q-221 0 -324 103t-103 324v457q0 223 103 325.5t322 101.5h242q186 0 279 -76.5t104 -245.5q4 -31 -12 -48t-48 -17q-58 0 -66 63q-8 114 -66.5 156t-190.5 42h-242q-112 1 -177 -27t-93.5 -94t-28.5 -180v-457q0 -112 28.5 -178t94.5 -94.5t178 -28.5h240
q100 0 157 23.5t80.5 80.5t23.5 157v115l-198 2q-63 0 -63 63t63 63l261 -2q63 0 63 -63v-178q0 -203 -92.5 -295t-294.5 -92h-240z" />
    <glyph glyph-name="H" unicode="H" horiz-adv-x="1471" 
d="M257 0q-27 0 -45 18t-18 45v1185q0 27 18 45t45 18t45 -18t18 -45v-521h831v521q0 27 18 45t45 18t45 -18t18 -45v-1185q0 -27 -18 -45t-45 -18t-45 18t-18 45v538h-831v-538q0 -27 -18 -45t-45 -18z" />
    <glyph glyph-name="I" unicode="I" horiz-adv-x="514" 
d="M257 0q-30 0 -46.5 16.5t-16.5 46.5v1185q0 31 16.5 47t46.5 16q31 0 47 -16t16 -47v-1185q0 -30 -16 -46.5t-47 -16.5z" />
    <glyph glyph-name="J" unicode="J" horiz-adv-x="1121" 
d="M440 0q-185 0 -278 77t-106 244q-2 32 14 49t47 17q59 0 65 -63q9 -113 67.5 -155.5t190.5 -42.5h110q100 0 157 24t80.5 80.5t23.5 156.5v861q0 63 63 63t63 -63v-861q0 -202 -92.5 -294.5t-294.5 -92.5h-110z" />
    <glyph glyph-name="K" unicode="K" horiz-adv-x="1126" 
d="M257 0q-63 0 -63 63v1185q0 63 63 63t63 -63v-542l566 582q44 46 88 1q47 -43 2 -89l-440 -452l518 -644q39 -50 -9 -89t-88 9l-509 632l-128 -131v-462q0 -63 -63 -63z" />
    <glyph glyph-name="L" unicode="L" horiz-adv-x="1027" 
d="M257 0q-63 0 -63 63v1185q0 63 63 63t63 -63v-1122h590q63 0 63 -63t-63 -63h-653z" />
    <glyph glyph-name="M" unicode="M" horiz-adv-x="1604" 
d="M257 0q-63 0 -63 63v1185q0 63 63 63q44 0 71 -41l489 -744l-28 -4l491 748q26 41 76 41q54 0 54 -63v-1185q0 -63 -63 -63t-63 63v1059l38 -13l-448 -675q-27 -41 -76 -41q-39 0 -66 41l-448 675l36 -12v-1034q0 -63 -63 -63z" />
    <glyph glyph-name="N" unicode="N" horiz-adv-x="1444" 
d="M257 0q-63 0 -63 63v1185q0 63 63 63q33 0 64 -37l833 -1071h-30v1045q0 63 63 63t63 -63v-1185q0 -63 -63 -63q-34 0 -64 37l-833 1071h30v-1045q0 -63 -63 -63z" />
    <glyph glyph-name="O" unicode="O" horiz-adv-x="1414" 
d="M587 0q-221 0 -324 103t-103 324v458q0 223 103.5 325.5t322.5 100.5h241q222 0 324.5 -102.5t102.5 -324.5v-457q0 -221 -102.5 -324t-324.5 -103h-240zM587 126h240q113 0 178.5 28.5t94 94.5t28.5 178v457q0 112 -28.5 178t-94 94.5t-178.5 28.5h-241
q-112 1 -177.5 -27t-94 -94t-28.5 -179v-458q0 -112 28.5 -178t94.5 -94.5t178 -28.5z" />
    <glyph glyph-name="P" unicode="P" horiz-adv-x="1156" 
d="M257 0q-63 0 -63 63v1185q0 63 63 63h468q175 0 266 -91t91 -266v-60q0 -174 -91 -265.5t-266 -91.5h-405v-474q0 -63 -63 -63zM320 663h405q123 0 177 54.5t54 176.5v60q0 122 -54 176.5t-177 54.5h-405v-522z" />
    <glyph glyph-name="Q" unicode="Q" horiz-adv-x="1419" 
d="M1241 -20q18 -18 18 -39t-21 -40q-39 -38 -80 1l-293 305q-18 19 -18 40t19 39q40 39 81 -1zM587 0q-221 0 -324 103t-103 324v458q0 223 103.5 325.5t322.5 100.5h241q222 0 324.5 -102.5t102.5 -324.5v-457q0 -221 -102.5 -324t-324.5 -103h-240zM587 126h240
q113 0 178.5 28.5t94 94.5t28.5 178v457q0 112 -28.5 178t-94 94.5t-178.5 28.5h-241q-112 1 -177.5 -27t-94 -94t-28.5 -179v-458q0 -112 28.5 -178t94.5 -94.5t178 -28.5z" />
    <glyph glyph-name="R" unicode="R" horiz-adv-x="1207" 
d="M1066 -3q-25 -15 -47.5 -9.5t-38.5 29.5l-322 520h-338v-474q0 -63 -63 -63t-63 63v1185q0 63 63 63h468q175 0 266 -91t91 -266v-60q0 -153 -70.5 -242t-207.5 -109l284 -460q31 -53 -22 -86zM320 663h405q123 0 177 54.5t54 176.5v60q0 122 -54 176.5t-177 54.5h-405
v-522z" />
    <glyph glyph-name="S" unicode="S" horiz-adv-x="1345" 
d="M528 1q-176 0 -265.5 76t-101.5 238q-2 31 15 48t47 17t45.5 -16t19.5 -46q7 -107 61 -149t179 -42h288q138 0 190.5 52.5t52.5 188.5q0 138 -53.5 190.5t-189.5 52.5h-265q-181 0 -266 85.5t-85 265.5t84.5 264.5t264.5 84.5h266q165 0 249.5 -71.5t96.5 -223.5
q3 -30 -14 -47.5t-48 -17.5q-29 0 -45 16.5t-19 45.5q-8 97 -58 134.5t-162 37.5h-266q-128 0 -175.5 -48.5t-47.5 -174.5t48.5 -175.5t176.5 -49.5h265q189 0 279 -89.5t90 -279.5q0 -189 -89.5 -278t-279.5 -89h-288z" />
    <glyph glyph-name="T" unicode="T" horiz-adv-x="1166" 
d="M583 -1q-30 0 -46.5 16.5t-16.5 46.5v1123h-413q-30 0 -46.5 16.5t-16.5 46.5t16.5 46.5t46.5 16.5h952q30 0 46.5 -16.5t16.5 -46.5t-16.5 -46.5t-46.5 -16.5h-413v-1123q0 -29 -16.5 -46t-46.5 -17z" />
    <glyph glyph-name="U" unicode="U" horiz-adv-x="1462" 
d="M611 0q-221 0 -324 103t-103 324v821q0 30 16.5 46.5t46.5 16.5t46.5 -16.5t16.5 -46.5v-821q0 -112 28.5 -178t94.5 -94.5t178 -28.5h240q113 0 178.5 28.5t94 94.5t28.5 178v821q0 30 16.5 46.5t46.5 16.5t46.5 -16.5t16.5 -46.5v-821q0 -221 -102.5 -324t-324.5 -103
h-240z" />
    <glyph glyph-name="V" unicode="V" horiz-adv-x="1240" 
d="M612 0q-40 0 -60 46l-511 1175q-13 31 -2 53t40 31q55 21 77 -34l489 -1124h-44l483 1124q22 54 77 34q29 -9 40 -31t-2 -53l-513 -1175q-20 -46 -64 -46h-10z" />
    <glyph glyph-name="W" unicode="W" horiz-adv-x="1736" 
d="M475 0q-44 0 -60 51l-379 1176q-9 28 8.5 56.5t51.5 28.5q20 0 36 -11.5t23 -35.5l346 -1075h-34l328 1070q8 27 28.5 39.5t42.5 12.5q24 0 45 -12.5t28 -39.5l328 -1070h-34l346 1075q8 24 23.5 35t34.5 11q37 0 54 -26.5t7 -57.5l-379 -1176q-16 -51 -66 -51h-4
q-51 0 -66 51l-336 1082h34l-337 -1082q-8 -28 -24 -39.5t-45 -11.5z" />
    <glyph glyph-name="X" unicode="X" horiz-adv-x="1185" 
d="M129 14q-50 35 -16 88l390 571l-382 536q-34 50 16 88q52 36 88 -16l361 -506l370 507q39 51 88 13q51 -37 14 -87l-394 -542l402 -563q36 -51 -16 -89q-51 -35 -87 16l-382 534l-364 -534q-35 -50 -88 -16z" />
    <glyph glyph-name="Y" unicode="Y" horiz-adv-x="1130" 
d="M559 0q-63 0 -63 63v433l-451 715q-32 53 20 88q54 34 87 -20l407 -648l418 649q16 25 38.5 30t47.5 -13q55 -33 19 -86l-460 -715v-433q0 -63 -63 -63z" />
    <glyph glyph-name="Z" unicode="Z" horiz-adv-x="1284" 
d="M184 0q-64 0 -64 63q0 15 7 29t20 33l818 1080v-20h-569q-79 0 -121 -28.5t-54 -92.5q-5 -29 -20 -44.5t-46 -15.5q-30 0 -47.5 17.5t-13.5 48.5q17 118 93.5 179.5t208.5 61.5h664q63 0 63 -63q0 -17 -5 -32t-20 -34l-814 -1079v23h602q82 0 124 28.5t52 92.5
q7 30 22 45t44 15q32 0 49 -17t13 -49q-33 -241 -304 -241h-702z" />
    <glyph glyph-name="bracketleft" unicode="[" horiz-adv-x="414" 
d="M170 -336q-56 0 -56 56v1566q0 56 56 56h168q24 0 40 -16t16 -40q0 -23 -16 -39.5t-40 -16.5h-112v-1454h112q24 0 40 -16t16 -40q0 -23 -16 -39.5t-40 -16.5h-168z" />
    <glyph glyph-name="backslash" unicode="\" horiz-adv-x="669" 
d="M519 -285q-49 0 -61 49l-410 1594q-9 37 7.5 59t53.5 22q48 0 61 -49l410 -1594q9 -35 -7.5 -58t-53.5 -23z" />
    <glyph glyph-name="bracketright" unicode="]" horiz-adv-x="414" 
d="M244 -336h-168q-23 0 -39.5 16.5t-16.5 39.5q0 24 16.5 40t39.5 16h112v1454h-112q-23 0 -39.5 16.5t-16.5 39.5q0 24 16.5 40t39.5 16h168q56 0 56 -56v-1566q0 -56 -56 -56z" />
    <glyph glyph-name="asciicircum" unicode="^" horiz-adv-x="800" 
d="M263 858q-5 -15 -19.5 -25.5t-33.5 -10.5q-23 0 -39.5 16.5t-16.5 39.5q0 6 1.5 11.5t2.5 10.5l158 408q19 44 65 44h38q46 0 65 -44l158 -408q2 -5 3 -10.5t1 -11.5q0 -23 -16 -39.5t-40 -16.5q-17 0 -31.5 10.5t-21.5 25.5l-137 355z" />
    <glyph glyph-name="underscore" unicode="_" horiz-adv-x="892" 
d="M163 -126q-63 0 -63 63t63 63h506q63 0 63 -63t-63 -63h-506z" />
    <glyph glyph-name="grave" unicode="`" horiz-adv-x="483" 
d="M360 1046q-45 -38 -81 7l-163 194q-36 46 7 81q44 38 81 -7l163 -194q36 -44 -7 -81z" />
    <glyph glyph-name="a" unicode="a" horiz-adv-x="1231" 
d="M485 0q-159 0 -235 76t-76 235q0 160 76 236t235 76h445q-4 123 -58.5 171t-186.5 48h-116q-118 0 -173.5 -22.5t-71.5 -77.5q-10 -30 -24.5 -43.5t-43.5 -13.5q-31 0 -48.5 17.5t-12.5 47.5q19 114 111 166t263 52h116q192 0 281.5 -89.5t89.5 -281.5v-534
q0 -63 -63 -63t-63 63v82q-99 -145 -333 -145h-112zM485 126h112q90 0 160.5 19t116 63t56.5 119v170h-445q-107 0 -146 -39t-39 -147q0 -107 39 -146t146 -39z" />
    <glyph glyph-name="b" unicode="b" horiz-adv-x="1260" 
d="M257 0q-63 0 -63 63v1268q0 63 63 63t63 -63v-491q47 64 129 96.5t204 32.5h76q192 0 281.5 -89.5t89.5 -281.5v-227q0 -191 -89.5 -281t-281.5 -90h-76q-122 0 -204 33t-129 96v-66q0 -63 -63 -63zM653 126h76q139 0 192 53.5t53 191.5v227q0 139 -53.5 192t-191.5 53
h-76q-147 0 -240 -43.5t-93 -134.5v-364q1 -88 94 -131.5t239 -43.5z" />
    <glyph glyph-name="c" unicode="c" horiz-adv-x="1162" 
d="M531 0q-191 0 -281 90t-90 281v228q0 192 89.5 281.5t281.5 87.5h164q148 0 228 -49.5t98 -155.5q6 -31 -11.5 -48.5t-50.5 -17.5q-29 0 -43 15.5t-23 42.5q-12 48 -57.5 67.5t-140.5 19.5h-164q-138 2 -191.5 -50.5t-53.5 -192.5v-228q0 -138 53.5 -191.5t191.5 -53.5
h164q95 0 140.5 19.5t57.5 67.5q9 29 23.5 43.5t43.5 14.5q32 0 49.5 -17t11.5 -49q-18 -104 -98 -154.5t-228 -50.5h-164z" />
    <glyph glyph-name="d" unicode="d" horiz-adv-x="1241" 
d="M531 0q-191 0 -281 90t-90 281v226q0 192 90 281.5t281 89.5h409v363q0 63 63 63t63 -63v-1268q0 -63 -63 -63t-63 63v62q-44 -61 -125 -93t-208 -32h-76zM531 126h76q148 0 240.5 44.5t92.5 133.5v538h-409q-138 0 -191.5 -53.5t-53.5 -191.5v-226q0 -138 53.5 -191.5
t191.5 -53.5z" />
    <glyph glyph-name="e" unicode="e" 
d="M286 434v-65q0 -137 53.5 -190t191.5 -53h164q119 0 173.5 28t66.5 97q7 30 22 45t45 15q31 0 47.5 -16.5t11.5 -48.5q-16 -125 -106.5 -185.5t-259.5 -60.5h-164q-191 0 -281 90t-90 279v228q0 194 90 283.5t281 87.5h164q192 0 281.5 -89.5t89.5 -281.5v-100
q0 -63 -63 -63h-717zM531 842q-138 2 -191.5 -51t-53.5 -194v-37h654v37q0 139 -53 192t-192 53h-164z" />
    <glyph glyph-name="f" unicode="f" horiz-adv-x="695" 
d="M281 0q-63 0 -63 63v779h-81q-63 0 -63 63t63 63h81v61q0 189 88.5 277t276.5 88q58 0 58 -63t-58 -63q-135 0 -187 -51.5t-52 -187.5v-61h234q63 0 63 -63t-63 -63h-234v-779q0 -63 -63 -63z" />
    <glyph glyph-name="g" unicode="g" horiz-adv-x="1241" 
d="M427 -400q-119 0 -183 49t-79 151q-4 32 12.5 49.5t48.5 17.5q30 0 44 -15.5t21 -46.5q9 -45 40 -62t96 -17h372q84 0 112.5 29t28.5 112v269q-48 -67 -130.5 -101.5t-202.5 -34.5h-76q-191 0 -281 90t-90 279v228q0 193 89.5 282t281.5 89h164q89 0 149 -24.5t96 -75.5
v37q0 63 63 63t63 -63v-1038q0 -137 -64.5 -202t-202.5 -65h-372zM531 126h76q148 0 240.5 44t92.5 134v356q0 102 -61.5 142t-183.5 40h-164q-138 0 -191.5 -52t-53.5 -193v-228q0 -136 53.5 -189.5t191.5 -53.5z" />
    <glyph glyph-name="h" unicode="h" horiz-adv-x="1255" 
d="M257 0q-63 0 -63 63v1268q0 63 63 63t63 -63v-500q99 137 333 137h56q192 0 281.5 -89.5t89.5 -281.5v-534q0 -63 -63 -63t-63 63v534q0 139 -53.5 192t-191.5 53h-56q-143 0 -232 -42t-101 -131v-606q0 -63 -63 -63z" />
    <glyph glyph-name="i" unicode="i" horiz-adv-x="514" 
d="M233 1144q-78 0 -78 79v50q0 77 78 77h49q75 0 75 -77v-50q0 -79 -75 -79h-49zM257 0q-63 0 -63 63v842q0 63 63 63t63 -63v-842q0 -63 -63 -63z" />
    <glyph glyph-name="j" unicode="j" horiz-adv-x="514" 
d="M234 1144q-78 0 -78 79v50q0 77 78 77h49q75 0 75 -77v-50q0 -79 -75 -79h-49zM37 -400q-30 0 -47 16.5t-17 46.5q0 31 17.5 47t46.5 16q91 0 124 33.5t33 123.5v1022q0 63 63 63t63 -63v-1022q0 -144 -69 -213.5t-214 -69.5z" />
    <glyph glyph-name="k" unicode="k" horiz-adv-x="977" 
d="M257 0q-63 0 -63 63v1268q0 63 63 63t63 -63v-804l497 427q47 41 88 -6q42 -47 -6 -89l-367 -316l383 -435q42 -48 -5 -89t-89 6l-385 435l-116 -99v-298q0 -63 -63 -63z" />
    <glyph glyph-name="l" unicode="l" horiz-adv-x="617" 
d="M478 0q-145 0 -214.5 69.5t-69.5 213.5v1048q0 63 63 63t63 -63v-1048q0 -91 33 -124t124 -33q65 0 65 -63q2 -63 -64 -63z" />
    <glyph glyph-name="m" unicode="m" horiz-adv-x="1763" 
d="M1270 969q171 0 244.5 -84t73.5 -279v-544q0 -63 -63 -63t-63 63v544q0 126 -44.5 181.5t-147.5 55.5h-83q-125 0 -179 -55.5t-54 -181.5v-544q0 -63 -63 -63t-63 63v544q0 126 -44.5 181.5t-147.5 55.5h-83q-125 0 -179 -55.5t-54 -181.5v-544q0 -63 -63 -63t-63 63v843
q0 63 63 63t63 -63v-67q47 70 108.5 100.5t152.5 30.5h55q111 0 177.5 -35.5t103.5 -116.5q46 82 109 117t161 35h83z" />
    <glyph glyph-name="n" unicode="n" horiz-adv-x="1255" 
d="M257 0q-63 0 -63 63v842q0 63 63 63t63 -63v-74q99 137 333 137h56q192 0 281.5 -89.5t89.5 -281.5v-534q0 -63 -63 -63t-63 63v534q0 139 -53.5 192t-191.5 53h-56q-143 0 -232 -42t-101 -131v-606q0 -63 -63 -63z" />
    <glyph glyph-name="o" unicode="o" 
d="M531 0q-191 0 -281 90t-90 279v228q0 193 90 282.5t281 88.5h164q192 0 281.5 -89.5t89.5 -281.5v-226q0 -191 -89.5 -281t-281.5 -90h-164zM286 369q0 -137 53.5 -190t191.5 -53h164q139 0 192 53.5t53 191.5v226q0 139 -53 192t-192 53h-164q-92 1 -145.5 -21.5
t-76.5 -76t-23 -147.5v-228z" />
    <glyph glyph-name="p" unicode="p" horiz-adv-x="1260" 
d="M257 -400q-63 0 -63 63v1242q0 63 63 63t63 -63v-67q48 64 130.5 97t202.5 33h76q192 0 281.5 -89.5t89.5 -281.5v-226q0 -191 -89.5 -281t-281.5 -90h-409v-337q0 -63 -63 -63zM320 126h409q139 0 192 53.5t53 191.5v226q0 139 -53 192t-192 53h-76q-148 0 -235.5 -43
t-97.5 -134v-539z" />
    <glyph glyph-name="q" unicode="q" horiz-adv-x="1241" 
d="M1003 -400q-63 0 -63 63v337h-409q-191 0 -281 90t-90 281v226q0 192 90 281.5t281 89.5h76q127 0 208.5 -34t124.5 -98v69q0 63 63 63t63 -63v-1242q0 -63 -63 -63zM531 126h409v537q0 91 -92.5 135t-240.5 44h-76q-138 0 -191.5 -53t-53.5 -192v-226
q0 -138 53.5 -191.5t191.5 -53.5z" />
    <glyph glyph-name="r" unicode="r" horiz-adv-x="787" 
d="M257 0q-63 0 -63 63v842q0 63 63 63t63 -63v-128q55 93 151 142t225 49q63 0 63 -63t-63 -63q-176 0 -271.5 -75t-104.5 -209v-495q0 -63 -63 -63z" />
    <glyph glyph-name="s" unicode="s" horiz-adv-x="1152" 
d="M411 1q-124 0 -192 52.5t-84 159.5q-4 32 13.5 49.5t48.5 17.5t45.5 -15.5t20.5 -46.5q10 -51 44 -71t104 -20h328q89 0 121 32t32 121t-32 121t-121 32h-323q-135 0 -201.5 66t-66.5 201q0 138 66 203.5t202 65.5h313q230 0 260 -199q6 -31 -11.5 -48.5t-49.5 -17.5
q-30 0 -44.5 15.5t-21.5 44.5q-9 45 -39 62t-94 17h-313q-83 0 -112.5 -29t-29.5 -114q0 -81 30 -111t112 -30h323q142 0 210.5 -68.5t68.5 -210.5t-68.5 -210.5t-210.5 -68.5h-328z" />
    <glyph glyph-name="t" unicode="t" horiz-adv-x="757" 
d="M594 0q-189 0 -277 88t-88 275v479h-112q-63 0 -63 63t63 63h112v192q0 63 63 63t63 -63v-192h244q63 0 63 -63t-63 -63h-244v-479q0 -135 52 -186t187 -51q33 0 48.5 -15.5t15.5 -47.5q0 -63 -64 -63z" />
    <glyph glyph-name="u" unicode="u" horiz-adv-x="1255" 
d="M998 968q63 0 63 -63v-842q0 -63 -63 -63t-63 63v75q-98 -138 -333 -138h-56q-191 0 -281 90t-90 281v534q0 63 63 63t63 -63v-534q0 -138 53.5 -191.5t191.5 -53.5h56q143 0 232.5 42.5t100.5 130.5v606q0 63 63 63z" />
    <glyph glyph-name="v" unicode="v" horiz-adv-x="1018" 
d="M568 47q-11 -26 -29.5 -36.5t-45.5 -10.5q-50 0 -71 49l-361 830q-25 60 34 82q57 26 82 -33l353 -811h-69l379 813q13 27 35 35.5t49 -4.5q57 -26 31 -84z" />
    <glyph glyph-name="w" unicode="w" horiz-adv-x="1435" 
d="M410 0q-54 0 -70 51l-281 833q-20 59 40 79q59 20 79 -40l258 -759h-33l246 749q16 50 72 50q52 0 68 -52l229 -744h-32l270 757q22 61 81 39q59 -21 38 -81l-307 -831q-19 -51 -73 -51q-58 0 -73 52l-220 714h20l-241 -715q-9 -27 -28 -39t-43 -12z" />
    <glyph glyph-name="x" unicode="x" horiz-adv-x="1015" 
d="M127 16q-49 39 -12 89l309 405l-275 354q-39 49 11 88t88 -11l265 -341l270 341q39 52 89 11q50 -38 11 -88l-292 -366l304 -393q39 -50 -10 -88q-50 -40 -89 11l-292 378l-289 -377q-38 -51 -88 -13z" />
    <glyph glyph-name="y" unicode="y" horiz-adv-x="1263" 
d="M442 -400q-136 0 -201.5 66t-65.5 203q0 63 63 63t63 -63q0 -84 29 -113.5t112 -29.5h360q83 0 112 29.5t29 113.5v268q-57 -80 -141 -109t-192 -29h-70q-189 0 -277 88t-88 275v544q0 63 63 63t63 -63v-544q0 -135 51.5 -186t187.5 -51h70q172 0 252.5 59t80.5 178v544
q0 63 63 63t63 -63v-1037q0 -137 -65.5 -203t-201.5 -66h-360z" />
    <glyph glyph-name="z" unicode="z" horiz-adv-x="1051" 
d="M189 0q-63 0 -63 63q0 30 27 64l600 744l28 -29h-428q-65 0 -95.5 -16.5t-40.5 -63.5q-5 -30 -19.5 -45.5t-44.5 -15.5q-32 0 -49 17.5t-13 48.5q15 103 79.5 152t182.5 49h490q63 0 63 -63q0 -32 -27 -66l-590 -734l-32 22l460 -1q62 0 94 18.5t41 62.5q9 30 22.5 45
t43.5 15q33 0 50 -17t11 -49q-32 -201 -262 -201h-528z" />
    <glyph glyph-name="braceleft" unicode="{" horiz-adv-x="674" 
d="M598 -336q-178 0 -251 78t-73 266v344l-116 44q-44 19 -44 65v62q0 46 43 65l117 46v344q0 122 28.5 202.5t95.5 121t185 40.5q35 0 53 -14t18 -41q0 -26 -16.5 -40.5t-39.5 -16.5q-49 -3 -88.5 -7.5t-67 -26t-42 -72.5t-14.5 -146v-373q0 -48 -43 -65l-149 -54v12
l148 -52q44 -16 44 -65v-373q0 -103 18 -151t64 -63t130 -18q26 0 41 -17t15 -39q0 -23 -16 -39.5t-40 -16.5z" />
    <glyph glyph-name="bar" unicode="|" horiz-adv-x="446" 
d="M286 -240q0 -63 -63 -63t-63 63v1587q0 63 63 63t63 -63v-1587z" />
    <glyph glyph-name="braceright" unicode="}" horiz-adv-x="674" 
d="M76 -336q-23 0 -39.5 16.5t-16.5 39.5q0 22 15.5 39t40.5 17q84 3 130 18t64 63t18 151v373q0 49 44 65l148 52v-12l-149 54q-43 17 -43 65v373q0 95 -14.5 146t-42 72.5t-66.5 26t-89 7.5q-22 2 -39 16.5t-17 40.5q0 27 18.5 41t52.5 14q118 0 185.5 -40.5t95.5 -121
t28 -202.5v-344l117 -46q43 -19 43 -65v-62q0 -46 -44 -65l-116 -44v-344q0 -188 -72.5 -266t-251.5 -78z" />
    <glyph glyph-name="asciitilde" unicode="~" horiz-adv-x="1154" 
d="M252 546q-15 -21 -41 -21q-21 0 -35 13.5t-17 33.5t10 38q40 54 74.5 84.5t72.5 42.5t87 12q67 0 112.5 -18t81 -41t70.5 -41t80 -18q47 0 81.5 21.5t72.5 72.5q19 24 44 24q34 0 46.5 -29t-6.5 -56q-51 -71 -108 -105t-130 -34q-63 0 -104.5 18t-74.5 41t-70.5 41
t-94.5 18q-31 0 -53 -7t-44 -27.5t-54 -62.5z" />
    <glyph glyph-name="uni00A0" unicode="&#xa0;" horiz-adv-x="544" 
 />
    <glyph glyph-name="exclamdown" unicode="&#xa1;" horiz-adv-x="477" 
d="M237 755q63 0 63 -63v-983q0 -63 -63 -63t-63 63v983q0 63 63 63zM258 1042q65 0 65 -66v-42q0 -64 -65 -64h-41q-63 0 -63 64v42q0 66 63 66h41z" />
    <glyph glyph-name="cent" unicode="&#xa2;" horiz-adv-x="1022" 
d="M483 119q-176 0 -259.5 82.5t-83.5 256.5v166q0 177 83.5 260t259.5 81h112q156 0 231.5 -60.5t75.5 -190.5q0 -26 -18 -44.5t-45 -18.5q-26 0 -44.5 18.5t-18.5 44.5q0 71 -36.5 98t-144.5 27h-112q-123 2 -170 -44.5t-47 -170.5v-166q0 -120 46 -166.5t171 -46.5h112
q108 0 144.5 27.5t36.5 97.5q0 27 18.5 45t44.5 18q27 0 45 -18t18 -45q0 -129 -75.5 -190t-231.5 -61h-112zM539 -56q-56 0 -56 56v1082q0 56 56 56t56 -56v-1082q0 -56 -56 -56z" />
    <glyph glyph-name="sterling" unicode="&#xa3;" horiz-adv-x="1187" 
d="M94 0v126q68 0 92 36t24 123v575q0 223 103 325t322 102h42q202 0 294.5 -91.5t92.5 -295.5q0 -63 -63 -63t-63 63q0 101 -23.5 157.5t-80.5 80t-157 23.5h-42q-111 0 -176.5 -28t-94 -93.5t-28.5 -179.5v-575q0 -48 -8 -88t-26 -71h739q63 0 63 -63t-63 -63h-947z
M94 431q-56 0 -56 56t56 56h609q56 0 56 -56t-56 -56h-609z" />
    <glyph glyph-name="currency" unicode="&#xa4;" horiz-adv-x="1145" 
d="M219 263q-26 0 -44.5 18.5t-18.5 44.5t18 45l100 99q-33 48 -52 104.5t-19 119.5t19 119.5t52 102.5l-98 100q-19 19 -19 45q0 27 18.5 45t44.5 18q28 0 45 -19l98 -99q48 33 104 51t118 18q64 0 120 -18.5t103 -51.5l100 101q18 18 44 18q27 0 45 -18t18 -45
q0 -26 -18 -44l-100 -101q34 -46 52 -102.5t18 -119.5q0 -62 -17.5 -118.5t-51.5 -104.5l100 -101q18 -18 18 -44t-18 -44.5t-45 -18.5q-26 0 -45 19l-99 100q-46 -33 -103 -52t-121 -19q-63 0 -119 18.5t-103 51.5l-99 -100q-19 -18 -45 -18zM585 437q72 0 130 34t92 92.5
t34 130.5t-34 129.5t-92 91.5t-130 34q-71 0 -129.5 -34t-92.5 -91.5t-34 -129.5t34 -130.5t92.5 -92.5t129.5 -34z" />
    <glyph glyph-name="yen" unicode="&#xa5;" horiz-adv-x="1132" 
d="M627 63q0 -63 -63 -63t-63 63v430l-454 717q-35 53 19 87q52 35 86 -19l450 -718h-76l453 720q33 54 88 19q51 -35 19 -88l-459 -718v-430zM283 440q-23 0 -36 13t-13 36q0 24 13 36.5t36 12.5h561q23 0 36 -12.5t13 -36.5q0 -23 -13 -36t-36 -13h-561zM283 260
q-23 0 -36 13t-13 36q0 24 13 36.5t36 12.5h561q23 0 36 -12.5t13 -36.5q0 -23 -13 -36t-36 -13h-561z" />
    <glyph glyph-name="brokenbar" unicode="&#xa6;" horiz-adv-x="446" 
d="M286 -240q0 -26 -18 -44.5t-45 -18.5q-26 0 -44.5 18.5t-18.5 44.5v574q0 27 18.5 45t44.5 18q27 0 45 -18t18 -45v-574zM286 778q0 -26 -18 -44.5t-45 -18.5q-26 0 -44.5 18.5t-18.5 44.5v570q0 27 18.5 45t44.5 18q27 0 45 -18t18 -45v-570z" />
    <glyph glyph-name="section" unicode="&#xa7;" horiz-adv-x="1108" 
d="M928 564q0 -124 -67.5 -188.5t-198.5 -64.5q-25 2 -42.5 8t-17.5 15q0 26 17.5 43t42.5 17q79 0 112.5 38.5t33.5 131.5q0 74 -32 112.5t-123 70.5l-198 70q-116 41 -171.5 107t-55.5 168q0 105 63.5 158.5t182.5 53.5h196q242 0 242 -244q0 -26 -16.5 -43t-43.5 -17
q-26 0 -43 17t-17 43q0 73 -25 98.5t-97 25.5h-196q-71 0 -98.5 -20.5t-27.5 -71.5q0 -61 32.5 -96.5t113.5 -64.5l198 -70q126 -44 181 -113.5t55 -183.5zM444 -162q-140 0 -208 68t-68 208q0 27 17 43.5t43 16.5q27 0 43.5 -16.5t16.5 -43.5q0 -89 33.5 -122.5
t122.5 -33.5h228q91 0 123.5 33.5t32.5 122.5q0 42 -11.5 68t-48.5 46t-113 45l-248 80q-135 43 -191 111.5t-56 191.5q0 128 70 188.5t214 60.5l60 -23q0 -25 -17 -42.5t-43 -17.5q-93 0 -128.5 -35t-35.5 -131q0 -55 13.5 -89t48.5 -56.5t100 -43.5l248 -80
q100 -32 156 -66.5t79 -83.5t23 -123q0 -140 -67 -208t-209 -68h-228z" />
    <glyph glyph-name="dieresis" unicode="&#xa8;" horiz-adv-x="679" 
d="M177 1130q-65 0 -65 66v42q0 64 65 64h41q63 0 63 -64v-42q0 -66 -63 -66h-41zM487 1130q-65 0 -65 66v42q0 64 65 64h41q63 0 63 -64v-42q0 -66 -63 -66h-41z" />
    <glyph glyph-name="copyright" unicode="&#xa9;" horiz-adv-x="1608" 
d="M1448 652q0 -187 -83 -332.5t-228 -229t-333 -83.5q-187 0 -332.5 83.5t-228.5 229t-83 332.5q0 188 83 333.5t228.5 228.5t332.5 83q188 0 333 -83t228 -228.5t83 -333.5zM272 652q0 -156 68 -276t188 -188.5t276 -68.5q157 0 277 68.5t187.5 188.5t67.5 276
q0 157 -67.5 277t-187.5 188t-277 68q-156 0 -276 -68t-188 -188t-68 -277zM764 288q-143 0 -211.5 68.5t-68.5 209.5v166q0 145 68.5 212.5t211.5 67.5h93q113 0 175.5 -39t72.5 -123q5 -26 -10 -42t-46 -16q-25 0 -36.5 14t-22.5 36q-8 33 -37.5 45.5t-95.5 12.5h-93
q-96 0 -132 -34.5t-36 -133.5v-166q0 -95 36 -130.5t132 -35.5h93q66 0 96 13.5t37 44.5q10 24 22 37.5t37 13.5q30 0 46 -16t10 -43q-12 -82 -73.5 -122t-174.5 -40h-93z" />
    <glyph glyph-name="ordfeminine" unicode="&#xaa;" horiz-adv-x="889" 
d="M339 617q-114 0 -169.5 56t-55.5 169q0 115 56 170.5t169 55.5h321q-4 74 -36.5 101.5t-114.5 27.5h-112q-67 0 -102 -9t-45 -35q-17 -29 -28 -39t-35 -10q-29 0 -45 16t-9 45q34 147 264 147h112q136 0 201 -65t65 -201v-372q0 -57 -58 -57q-57 0 -57 57v36
q-63 -93 -211 -93h-110zM339 732h110q93 0 152 22t59 72v127h-321q-65 0 -87.5 -22t-22.5 -89q0 -65 22.5 -87.5t87.5 -22.5z" />
    <glyph glyph-name="guillemotleft" unicode="&#xab;" horiz-adv-x="1260" 
d="M1031 228q-21 0 -36 13l-372 307q-49 40 0 80l372 307q15 13 36 13q23 0 39.5 -16t16.5 -40q0 -13 -6 -23.5t-16 -19.5l-316 -261l316 -261q10 -8 16 -18.5t6 -24.5q0 -23 -16.5 -39.5t-39.5 -16.5zM606 228q-21 0 -36 13l-372 307q-49 40 0 80l372 307q15 13 36 13
q23 0 39.5 -16t16.5 -40q0 -13 -6 -23.5t-16 -19.5l-316 -261l316 -261q10 -8 16 -18.5t6 -24.5q0 -23 -16.5 -39.5t-39.5 -16.5z" />
    <glyph glyph-name="logicalnot" unicode="&#xac;" horiz-adv-x="1154" 
d="M1001 475q0 -23 -15 -38t-39 -15q-23 0 -38 15t-15 38v178h-685q-23 0 -38 15t-15 38q0 24 15 38.5t38 14.5h738q54 0 54 -53v-231z" />
    <glyph glyph-name="uni00AD" unicode="&#xad;" horiz-adv-x="972" 
d="M210 484q-23 0 -39.5 16.5t-16.5 39.5q0 24 16.5 40t39.5 16h552q24 0 40 -16t16 -40q0 -23 -16 -39.5t-40 -16.5h-552z" />
    <glyph glyph-name="registered" unicode="&#xae;" horiz-adv-x="1608" 
d="M1448 651q0 -187 -83 -332.5t-228 -228.5t-333 -83q-187 0 -332.5 83t-228.5 228.5t-83 332.5q0 188 83 333t228.5 228t332.5 83q188 0 333 -83t228 -228t83 -333zM272 651q0 -156 68 -276t188 -188t276 -68q157 0 277 68t187.5 188t67.5 276q0 157 -67.5 277
t-187.5 187.5t-277 67.5q-156 0 -276 -67.5t-188 -187.5t-68 -277zM683 369q0 -56 -56 -56t-56 56v586q0 56 56 56h206q98 0 151 -53t53 -151v-30q0 -145 -110 -189l107 -193q27 -51 -24 -76q-48 -24 -76 24l-124 228h-127v-202zM683 683h150q51 0 71.5 21t20.5 73v30
q0 51 -20.5 71.5t-71.5 20.5h-150v-216z" />
    <glyph glyph-name="macron" unicode="&#xaf;" horiz-adv-x="832" 
d="M163 1147q-63 0 -63 63t63 63h506q63 0 63 -63t-63 -63h-506z" />
    <glyph glyph-name="degree" unicode="&#xb0;" horiz-adv-x="564" 
d="M259 885q-76 0 -117.5 41.5t-41.5 117.5v144q0 77 41.5 118t117.5 41h46q77 0 118 -41t41 -118v-144q0 -76 -41 -117.5t-118 -41.5h-46zM198 1044q0 -34 13.5 -47.5t47.5 -13.5h46q35 0 48 13.5t13 47.5v144q0 35 -13 48t-48 13h-46q-34 0 -47.5 -13t-13.5 -48v-144z" />
    <glyph glyph-name="plusminus" unicode="&#xb1;" horiz-adv-x="1154" 
d="M512 984q0 27 15 41.5t41 14.5q27 0 41.5 -14.5t14.5 -41.5v-538q0 -26 -14.5 -41t-41.5 -15q-26 0 -41 15t-15 41v538zM210 664q-56 0 -56 56t56 56h734q56 0 56 -56t-56 -56h-734zM210 229q-56 0 -56 56t56 56h734q56 0 56 -56t-56 -56h-734z" />
    <glyph glyph-name="uni00B2" unicode="&#xb2;" horiz-adv-x="723" 
d="M548 617h-366q-27 0 -44 15t-17 45q0 90 33 146t83 91.5t100 65.5q76 46 107 69.5t31 63.5q0 46 -13 59t-59 13h-100q-30 0 -47.5 -5.5t-24.5 -22.5q-17 -29 -29 -41t-37 -12q-30 0 -47 17t-11 47q31 137 196 137h100q192 0 192 -192q0 -64 -28.5 -105.5t-73.5 -71
t-93 -58.5q-60 -35 -98.5 -64t-52.5 -77h299q61 0 61 -60t-61 -60z" />
    <glyph glyph-name="uni00B3" unicode="&#xb3;" horiz-adv-x="741" 
d="M317 620q-173 0 -202 142q-6 31 10.5 47.5t46.5 16.5q28 0 38.5 -11.5t26.5 -42.5q8 -18 26.5 -25t53.5 -7h108q55 0 71.5 17.5t16.5 68.5q0 55 -16.5 70.5t-71.5 15.5h-55q-60 0 -60 61q0 60 60 60h55q208 0 208 -207q0 -206 -208 -206h-108zM419 967v66q46 0 63 21.5
t17 54.5q0 50 -15 64.5t-63 14.5h-101q-30 0 -46 -5.5t-23 -21.5q-14 -23 -25.5 -37.5t-38.5 -14.5q-34 0 -50 17t-10 46q27 136 193 136h101q99 0 148.5 -48t49.5 -137q0 -71 -49.5 -112t-150.5 -44z" />
    <glyph glyph-name="acute" unicode="&#xb4;" horiz-adv-x="480" 
d="M120 1046q-42 37 -7 81l163 194q37 45 81 7q43 -35 7 -81l-163 -194q-35 -45 -81 -7z" />
    <glyph glyph-name="uni00B5" unicode="&#xb5;" horiz-adv-x="1306" 
d="M1061 246q0 -68 21.5 -92.5t84.5 -27.5q34 0 49 -14.5t15 -48.5q0 -64 -65 -63q-78 2 -128.5 38t-79.5 95q-51 -63 -140.5 -98.5t-215.5 -35.5h-56q-84 0 -145 29t-100 92v-227q0 -36 -16.5 -56.5t-46.5 -20.5q-63 0 -63 63v1026q0 63 63 63t63 -63v-535
q0 -138 53.5 -191.5t191.5 -53.5h56q148 0 240.5 43.5t92.5 135.5v601q0 63 63 63t63 -63v-659z" />
    <glyph glyph-name="paragraph" unicode="&#xb6;" horiz-adv-x="1096" 
d="M642 -326q0 -23 -16 -39.5t-40 -16.5q-23 0 -39.5 16.5t-16.5 39.5v892h-116q-167 0 -253.5 86.5t-86.5 251.5v58q0 168 86.5 254t253.5 86h432q56 0 56 -56v-1572q0 -23 -16 -39.5t-40 -16.5q-23 0 -39.5 16.5t-16.5 39.5v1516h-148v-1516z" />
    <glyph glyph-name="periodcentered" unicode="&#xb7;" horiz-adv-x="477" 
d="M219 500q-65 0 -65 66v42q0 64 65 64h41q63 0 63 -64v-42q0 -66 -63 -66h-41z" />
    <glyph glyph-name="cedilla" unicode="&#xb8;" horiz-adv-x="600" 
d="M280 -414q-180 0 -180 180q0 56 56 56t56 -56q0 -42 13 -55t55 -13q65 0 86.5 21.5t21.5 86.5q0 19 -8 30t-38 31q-18 12 -41.5 32t-41 51.5t-17.5 79.5q0 56 56 56t56 -56q0 -22 9 -35.5t41 -35.5q27 -18 61.5 -52t34.5 -101q0 -111 -54 -165.5t-166 -54.5z" />
    <glyph glyph-name="uni00B9" unicode="&#xb9;" horiz-adv-x="598" 
d="M375 617q-63 0 -63 63v454l36 9l-106 -105q-44 -44 -89 1q-43 47 1 89l155 151q21 20 37.5 26t40.5 6q51 0 51 -49v-582q0 -63 -63 -63z" />
    <glyph glyph-name="ordmasculine" unicode="&#xba;" horiz-adv-x="846" 
d="M357 617q-137 0 -204 67t-67 204v135q0 139 67 205.5t204 65.5h132q138 0 204.5 -66.5t66.5 -204.5v-133q0 -138 -66.5 -205.5t-204.5 -67.5h-132zM357 743h132q85 0 115 30.5t30 116.5v133q0 84 -30 114.5t-115 30.5h-132q-84 1 -114.5 -28.5t-30.5 -116.5v-135
q0 -84 30.5 -114.5t114.5 -30.5z" />
    <glyph glyph-name="guillemotright" unicode="&#xbb;" horiz-adv-x="1258" 
d="M652 228q-22 0 -39 16.5t-17 39.5q0 14 6.5 24.5t15.5 18.5l316 261l-316 261q-9 9 -15.5 19.5t-6.5 23.5q0 24 17 40t39 16t36 -13l372 -307q50 -40 0 -80l-372 -307q-14 -13 -36 -13zM229 228q-22 0 -39 16.5t-17 39.5q0 14 6.5 24.5t15.5 18.5l316 261l-316 261
q-9 9 -15.5 19.5t-6.5 23.5q0 24 17 40t39 16t36 -13l372 -307q50 -40 0 -80l-372 -307q-14 -13 -36 -13z" />
    <glyph glyph-name="onequarter" unicode="&#xbc;" horiz-adv-x="1530" 
d="M375 617q-63 0 -63 63v454l36 9l-106 -105q-44 -44 -89 1q-43 47 1 89l155 151q21 20 37.5 26t40.5 6q51 0 51 -49v-582q0 -63 -63 -63zM327 -19q-26 0 -44.5 18.5t-18.5 44.5q0 11 3.5 21t8.5 18l922 1220q20 26 51 26q27 0 45 -18t18 -45q0 -10 -3 -20t-9 -19
l-922 -1220q-19 -26 -51 -26zM1242 4q-60 0 -60 60l4 501l49 -8l-293 -361l-13 61h437q60 0 60 -61q0 -60 -60 -60h-474q-60 0 -60 60q0 31 25 63l322 402q16 19 32.5 28t40.5 9q54 0 54 -60l-4 -574q0 -60 -60 -60z" />
    <glyph glyph-name="onehalf" unicode="&#xbd;" horiz-adv-x="1563" 
d="M375 617q-63 0 -63 63v454l36 9l-106 -105q-44 -44 -89 1q-43 47 1 89l155 151q21 20 37.5 26t40.5 6q51 0 51 -49v-582q0 -63 -63 -63zM327 -19q-26 0 -44.5 18.5t-18.5 44.5q0 11 3.5 21t8.5 18l922 1220q20 26 51 26q27 0 45 -18t18 -45q0 -10 -3 -20t-9 -19
l-922 -1220q-19 -26 -51 -26zM1382 0h-366q-27 0 -44 15t-17 45q0 90 33 146t83 91.5t100 65.5q76 46 107 69.5t31 63.5q0 46 -13 59t-59 13h-100q-30 0 -47.5 -5.5t-24.5 -22.5q-17 -29 -29 -41t-37 -12q-30 0 -47 17t-11 47q31 137 196 137h100q192 0 192 -192
q0 -64 -28.5 -105.5t-73.5 -71t-93 -58.5q-60 -35 -98.5 -64t-52.5 -77h299q61 0 61 -60t-61 -60z" />
    <glyph glyph-name="threequarters" unicode="&#xbe;" horiz-adv-x="1673" 
d="M317 620q-173 0 -202 142q-6 31 10.5 47.5t46.5 16.5q28 0 38.5 -11.5t26.5 -42.5q8 -18 26.5 -25t53.5 -7h108q55 0 71.5 17.5t16.5 68.5q0 55 -16.5 70.5t-71.5 15.5h-55q-60 0 -60 61q0 60 60 60h55q208 0 208 -207q0 -206 -208 -206h-108zM419 967v66q46 0 63 21.5
t17 54.5q0 50 -15 64.5t-63 14.5h-101q-30 0 -46 -5.5t-23 -21.5q-14 -23 -25.5 -37.5t-38.5 -14.5q-34 0 -50 17t-10 46q27 136 193 136h101q99 0 148.5 -48t49.5 -137q0 -71 -49.5 -112t-150.5 -44zM470 -19q-26 0 -44.5 18.5t-18.5 44.5q0 11 3.5 21t8.5 18l922 1220
q20 26 51 26q27 0 45 -18t18 -45q0 -10 -3 -20t-9 -19l-922 -1220q-19 -26 -51 -26zM1385 4q-60 0 -60 60l4 501l49 -8l-293 -361l-13 61h437q60 0 60 -61q0 -60 -60 -60h-474q-60 0 -60 60q0 31 25 63l322 402q16 19 32.5 28t40.5 9q54 0 54 -60l-4 -574q0 -60 -60 -60z
" />
    <glyph glyph-name="questiondown" unicode="&#xbf;" horiz-adv-x="979" 
d="M537 723q63 0 63 -63q0 -108 -33 -173t-81.5 -103.5t-92.5 -65.5q-44 -28 -77 -54.5t-51.5 -68t-18.5 -113.5q0 -126 48.5 -174.5t174.5 -48.5h134q127 0 175 49t48 174q0 63 63 63t63 -63q0 -177 -85.5 -263t-263.5 -86h-134q-179 0 -264 85t-85 264q0 108 33.5 173.5
t81.5 103.5t92 65q44 28 77.5 55t51.5 68.5t18 112.5q0 63 63 63zM556 1020q65 0 65 -66v-42q0 -64 -65 -64h-41q-63 0 -63 64v42q0 66 63 66h41z" />
    <glyph glyph-name="Agrave" unicode="&#xc0;" horiz-adv-x="1263" 
d="M105 6q-58 25 -35 83l489 1173q21 49 71 49h5q49 -1 68 -49l492 -1173q25 -58 -34 -83q-58 -23 -82 34l-124 297h-645l-123 -297q-23 -58 -82 -34zM361 463h541l-272 649zM704 1417q-45 -38 -81 7l-163 194q-36 46 7 81q44 38 81 -7l163 -194q36 -44 -7 -81z" />
    <glyph glyph-name="Aacute" unicode="&#xc1;" horiz-adv-x="1263" 
d="M613 1417q-42 37 -7 81l163 194q37 45 81 7q43 -35 7 -81l-163 -194q-35 -45 -81 -7zM105 6q-58 25 -35 83l489 1173q21 49 71 49h5q49 -1 68 -49l492 -1173q25 -58 -34 -83q-58 -23 -82 34l-124 297h-645l-123 -297q-23 -58 -82 -34zM361 463h541l-272 649z" />
    <glyph glyph-name="Acircumflex" unicode="&#xc2;" horiz-adv-x="1263" 
d="M105 6q-58 25 -35 83l489 1173q21 49 71 49h5q49 -1 68 -49l492 -1173q25 -58 -34 -83q-58 -23 -82 34l-124 297h-645l-123 -297q-23 -58 -82 -34zM361 463h541l-272 649zM388 1417q-24 0 -41.5 17.5t-17.5 41.5q0 31 26 49l193 161q33 27 73 27h17q40 0 73 -27l194 -161
q26 -19 26 -49q0 -24 -17.5 -41.5t-41.5 -17.5q-23 0 -42 17l-194 161h-13l-193 -161q-18 -17 -42 -17z" />
    <glyph glyph-name="Atilde" unicode="&#xc3;" horiz-adv-x="1263" 
d="M105 6q-58 25 -35 83l489 1173q21 49 71 49h5q49 -1 68 -49l492 -1173q25 -58 -34 -83q-58 -23 -82 34l-124 297h-645l-123 -297q-23 -58 -82 -34zM361 463h541l-272 649zM763 1455q-60 0 -96 27.5t-58 49.5q-23 25 -40 36t-43 11q-39 0 -56.5 -22t-29.5 -55
q-8 -21 -23 -33.5t-43 -4.5q-33 7 -39.5 29t1.5 42q27 75 73.5 114t115.5 39q64 0 101.5 -28t60.5 -52q27 -26 41.5 -34.5t33.5 -8.5q32 0 48 17t29 54q10 23 23.5 35t41.5 6q35 -6 40.5 -29t-0.5 -40q-25 -73 -69.5 -113t-111.5 -40z" />
    <glyph glyph-name="Adieresis" unicode="&#xc4;" horiz-adv-x="1263" 
d="M105 6q-58 25 -35 83l489 1173q21 49 71 49h5q49 -1 68 -49l492 -1173q25 -58 -34 -83q-58 -23 -82 34l-124 297h-645l-123 -297q-23 -58 -82 -34zM361 463h541l-272 649zM458 1473q-65 0 -65 66v42q0 64 65 64h41q63 0 63 -64v-42q0 -66 -63 -66h-41zM768 1473
q-65 0 -65 66v42q0 64 65 64h41q63 0 63 -64v-42q0 -66 -63 -66h-41z" />
    <glyph glyph-name="Aring" unicode="&#xc5;" horiz-adv-x="1263" 
d="M105 6q-58 25 -35 83l489 1173q21 49 71 49h5q49 -1 68 -49l492 -1173q25 -58 -34 -83q-58 -23 -82 34l-124 297h-645l-123 -297q-23 -58 -82 -34zM361 463h541l-272 649zM628 1424q-71 0 -112 40.5t-41 112.5q0 73 41 113t112 40q73 0 113.5 -40t40.5 -113
q0 -72 -40.5 -112.5t-113.5 -40.5zM628 1523q34 0 44 10.5t10 43.5q0 34 -10 44t-44 10q-33 0 -43.5 -10t-10.5 -44q0 -33 10.5 -43.5t43.5 -10.5z" />
    <glyph glyph-name="AE" unicode="&#xc6;" horiz-adv-x="1677" 
d="M893 0q-63 0 -63 63v274l-473 1l-172 -303q-33 -57 -86 -25q-55 33 -24 86l663 1171q13 23 31 33.5t44 10.5h710q63 0 63 -63t-63 -63h-567v-459h331q63 0 63 -63t-63 -63h-331v-474h567q63 0 63 -63t-63 -63h-630zM428 463h402v703h-11z" />
    <glyph glyph-name="Ccedilla" unicode="&#xc7;" horiz-adv-x="1351" 
d="M587 0q-221 0 -324 103t-103 324v457q0 223 103 325.5t322 101.5h242q186 0 279 -76.5t104 -245.5q4 -31 -12 -48t-48 -17q-58 0 -66 63q-8 114 -66.5 156t-190.5 42h-242q-112 1 -177 -27t-93.5 -94t-28.5 -180v-457q0 -112 28.5 -178t94.5 -94.5t178 -28.5h240
q132 0 190.5 42.5t66.5 155.5q8 63 66 63q32 0 48 -16.5t12 -48.5q-11 -168 -104 -245t-279 -77h-240zM744 -414q-180 0 -180 180q0 56 56 56t56 -56q0 -42 13 -55t55 -13q65 0 86.5 21.5t21.5 86.5q0 19 -8 30t-38 31q-18 12 -41.5 32t-41 51.5t-17.5 79.5q0 56 56 56
t56 -56q0 -22 9 -35.5t41 -35.5q27 -18 61.5 -52t34.5 -101q0 -111 -54 -165.5t-166 -54.5z" />
    <glyph glyph-name="Egrave" unicode="&#xc8;" horiz-adv-x="1150" 
d="M257 0q-63 0 -63 63v1185q0 63 63 63h739q63 0 63 -63t-63 -63h-676v-459h440q63 0 63 -63t-63 -63h-440v-474h676q63 0 63 -63t-63 -63h-739zM731 1417q-45 -38 -81 7l-163 194q-36 46 7 81q44 38 81 -7l163 -194q36 -44 -7 -81z" />
    <glyph glyph-name="Eacute" unicode="&#xc9;" horiz-adv-x="1150" 
d="M609 1435q-42 37 -7 81l163 194q37 45 81 7q43 -35 7 -81l-163 -194q-35 -45 -81 -7zM257 0q-63 0 -63 63v1185q0 63 63 63h739q63 0 63 -63t-63 -63h-676v-459h440q63 0 63 -63t-63 -63h-440v-474h676q63 0 63 -63t-63 -63h-739z" />
    <glyph glyph-name="Ecircumflex" unicode="&#xca;" horiz-adv-x="1150" 
d="M257 0q-63 0 -63 63v1185q0 63 63 63h739q63 0 63 -63t-63 -63h-676v-459h440q63 0 63 -63t-63 -63h-440v-474h676q63 0 63 -63t-63 -63h-739zM415 1417q-24 0 -41.5 17.5t-17.5 41.5q0 31 26 49l193 161q33 27 73 27h17q40 0 73 -27l194 -161q26 -19 26 -49
q0 -24 -17.5 -41.5t-41.5 -17.5q-23 0 -42 17l-194 161h-13l-193 -161q-18 -17 -42 -17z" />
    <glyph glyph-name="Edieresis" unicode="&#xcb;" horiz-adv-x="1150" 
d="M257 0q-63 0 -63 63v1185q0 63 63 63h739q63 0 63 -63t-63 -63h-676v-459h440q63 0 63 -63t-63 -63h-440v-474h676q63 0 63 -63t-63 -63h-739zM485 1473q-65 0 -65 66v42q0 64 65 64h41q63 0 63 -64v-42q0 -66 -63 -66h-41zM795 1473q-65 0 -65 66v42q0 64 65 64h41
q63 0 63 -64v-42q0 -66 -63 -66h-41z" />
    <glyph glyph-name="Igrave" unicode="&#xcc;" horiz-adv-x="514" 
d="M257 0q-30 0 -46.5 16.5t-16.5 46.5v1185q0 31 16.5 47t46.5 16q31 0 47 -16t16 -47v-1185q0 -30 -16 -46.5t-47 -16.5zM329 1417q-45 -38 -81 7l-163 194q-36 46 7 81q44 38 81 -7l163 -194q36 -44 -7 -81z" />
    <glyph glyph-name="Iacute" unicode="&#xcd;" horiz-adv-x="514" 
d="M207 1435q-42 37 -7 81l163 194q37 45 81 7q43 -35 7 -81l-163 -194q-35 -45 -81 -7zM257 0q-30 0 -46.5 16.5t-16.5 46.5v1185q0 31 16.5 47t46.5 16q31 0 47 -16t16 -47v-1185q0 -30 -16 -46.5t-47 -16.5z" />
    <glyph glyph-name="Icircumflex" unicode="&#xce;" horiz-adv-x="514" 
d="M257 0q-30 0 -46.5 16.5t-16.5 46.5v1185q0 31 16.5 47t46.5 16q31 0 47 -16t16 -47v-1185q0 -30 -16 -46.5t-47 -16.5zM70 1421q-23 0 -39.5 16.5t-16.5 39.5q0 11 4 20t10 17l151 177q28 32 69 32h24q42 0 69 -32l151 -177q7 -8 10.5 -17t3.5 -20q0 -23 -16 -39.5
t-40 -16.5q-27 0 -42 19l-139 171h-18l-139 -171q-16 -19 -42 -19z" />
    <glyph glyph-name="Idieresis" unicode="&#xcf;" horiz-adv-x="514" 
d="M257 0q-30 0 -46.5 16.5t-16.5 46.5v1185q0 31 16.5 47t46.5 16q31 0 47 -16t16 -47v-1185q0 -30 -16 -46.5t-47 -16.5zM83 1473q-65 0 -65 66v42q0 64 65 64h41q63 0 63 -64v-42q0 -66 -63 -66h-41zM393 1473q-65 0 -65 66v42q0 64 65 64h41q63 0 63 -64v-42
q0 -66 -63 -66h-41z" />
    <glyph glyph-name="Eth" unicode="&#xd0;" horiz-adv-x="1386" 
d="M257 0q-63 0 -63 63v1185q0 63 63 63h482q253 0 370 -117t117 -370v-337q0 -252 -116.5 -369.5t-370.5 -117.5h-482zM320 126h419q134 0 213 34.5t113.5 114t34.5 212.5v337q0 133 -34.5 212.5t-113.5 114t-213 34.5h-419v-1059zM83 603q-56 0 -56 56t56 56h520
q56 0 56 -56t-56 -56h-520z" />
    <glyph glyph-name="Ntilde" unicode="&#xd1;" horiz-adv-x="1444" 
d="M257 0q-63 0 -63 63v1185q0 63 63 63q33 0 64 -37l833 -1071h-30v1045q0 63 63 63t63 -63v-1185q0 -63 -63 -63q-34 0 -64 37l-833 1071h30v-1045q0 -63 -63 -63zM859 1455q-60 0 -96 27.5t-58 49.5q-23 25 -40 36t-43 11q-39 0 -56.5 -22t-29.5 -55q-8 -21 -23 -33.5
t-43 -4.5q-33 7 -39.5 29t1.5 42q27 75 73.5 114t115.5 39q64 0 101.5 -28t60.5 -52q27 -26 41.5 -34.5t33.5 -8.5q32 0 48 17t29 54q10 23 23.5 35t41.5 6q35 -6 40.5 -29t-0.5 -40q-25 -73 -69.5 -113t-111.5 -40z" />
    <glyph glyph-name="Ograve" unicode="&#xd2;" horiz-adv-x="1414" 
d="M587 0q-221 0 -324 103t-103 324v458q0 223 103.5 325.5t322.5 100.5h241q222 0 324.5 -102.5t102.5 -324.5v-457q0 -221 -102.5 -324t-324.5 -103h-240zM587 126h240q113 0 178.5 28.5t94 94.5t28.5 178v457q0 112 -28.5 178t-94 94.5t-178.5 28.5h-241
q-112 1 -177.5 -27t-94 -94t-28.5 -179v-458q0 -112 28.5 -178t94.5 -94.5t178 -28.5zM779 1417q-45 -38 -81 7l-163 194q-36 46 7 81q44 38 81 -7l163 -194q36 -44 -7 -81z" />
    <glyph glyph-name="Oacute" unicode="&#xd3;" horiz-adv-x="1414" 
d="M657 1435q-42 37 -7 81l163 194q37 45 81 7q43 -35 7 -81l-163 -194q-35 -45 -81 -7zM587 0q-221 0 -324 103t-103 324v458q0 223 103.5 325.5t322.5 100.5h241q222 0 324.5 -102.5t102.5 -324.5v-457q0 -221 -102.5 -324t-324.5 -103h-240zM587 126h240
q113 0 178.5 28.5t94 94.5t28.5 178v457q0 112 -28.5 178t-94 94.5t-178.5 28.5h-241q-112 1 -177.5 -27t-94 -94t-28.5 -179v-458q0 -112 28.5 -178t94.5 -94.5t178 -28.5z" />
    <glyph glyph-name="Ocircumflex" unicode="&#xd4;" horiz-adv-x="1414" 
d="M587 0q-221 0 -324 103t-103 324v458q0 223 103.5 325.5t322.5 100.5h241q222 0 324.5 -102.5t102.5 -324.5v-457q0 -221 -102.5 -324t-324.5 -103h-240zM587 126h240q113 0 178.5 28.5t94 94.5t28.5 178v457q0 112 -28.5 178t-94 94.5t-178.5 28.5h-241
q-112 1 -177.5 -27t-94 -94t-28.5 -179v-458q0 -112 28.5 -178t94.5 -94.5t178 -28.5zM463 1417q-24 0 -41.5 17.5t-17.5 41.5q0 31 26 49l193 161q33 27 73 27h17q40 0 73 -27l194 -161q26 -19 26 -49q0 -24 -17.5 -41.5t-41.5 -17.5q-23 0 -42 17l-194 161h-13l-193 -161
q-18 -17 -42 -17z" />
    <glyph glyph-name="Otilde" unicode="&#xd5;" horiz-adv-x="1414" 
d="M587 0q-221 0 -324 103t-103 324v458q0 223 103.5 325.5t322.5 100.5h241q222 0 324.5 -102.5t102.5 -324.5v-457q0 -221 -102.5 -324t-324.5 -103h-240zM587 126h240q113 0 178.5 28.5t94 94.5t28.5 178v457q0 112 -28.5 178t-94 94.5t-178.5 28.5h-241
q-112 1 -177.5 -27t-94 -94t-28.5 -179v-458q0 -112 28.5 -178t94.5 -94.5t178 -28.5zM838 1455q-60 0 -96 27.5t-58 49.5q-23 25 -40 36t-43 11q-39 0 -56.5 -22t-29.5 -55q-8 -21 -23 -33.5t-43 -4.5q-33 7 -39.5 29t1.5 42q27 75 73.5 114t115.5 39q64 0 101.5 -28
t60.5 -52q27 -26 41.5 -34.5t33.5 -8.5q32 0 48 17t29 54q10 23 23.5 35t41.5 6q35 -6 40.5 -29t-0.5 -40q-25 -73 -69.5 -113t-111.5 -40z" />
    <glyph glyph-name="Odieresis" unicode="&#xd6;" horiz-adv-x="1414" 
d="M587 0q-221 0 -324 103t-103 324v458q0 223 103.5 325.5t322.5 100.5h241q222 0 324.5 -102.5t102.5 -324.5v-457q0 -221 -102.5 -324t-324.5 -103h-240zM587 126h240q113 0 178.5 28.5t94 94.5t28.5 178v457q0 112 -28.5 178t-94 94.5t-178.5 28.5h-241
q-112 1 -177.5 -27t-94 -94t-28.5 -179v-458q0 -112 28.5 -178t94.5 -94.5t178 -28.5zM533 1473q-65 0 -65 66v42q0 64 65 64h41q63 0 63 -64v-42q0 -66 -63 -66h-41zM843 1473q-65 0 -65 66v42q0 64 65 64h41q63 0 63 -64v-42q0 -66 -63 -66h-41z" />
    <glyph glyph-name="multiply" unicode="&#xd7;" horiz-adv-x="1154" 
d="M790 941q40 39 79 0q40 -40 0 -79l-518 -519q-40 -40 -79 0q-40 40 0 79zM286 866q-39 40 0 79q40 40 80 0l519 -518q39 -40 0 -79q-40 -40 -79 0z" />
    <glyph glyph-name="Oslash" unicode="&#xd8;" horiz-adv-x="1414" 
d="M587 0q-221 0 -324 103t-103 324v458q0 223 103.5 325.5t322.5 100.5h241q222 0 324.5 -102.5t102.5 -324.5v-457q0 -221 -102.5 -324t-324.5 -103h-240zM587 126h240q113 0 178.5 28.5t94 94.5t28.5 178v457q0 112 -28.5 178t-94 94.5t-178.5 28.5h-241
q-112 1 -177.5 -27t-94 -94t-28.5 -179v-458q0 -112 28.5 -178t94.5 -94.5t178 -28.5zM251 -68q-51 32 -21 83l828 1355q32 52 83 20q51 -31 19 -83l-826 -1355q-32 -51 -83 -20z" />
    <glyph glyph-name="Ugrave" unicode="&#xd9;" horiz-adv-x="1462" 
d="M611 0q-221 0 -324 103t-103 324v821q0 30 16.5 46.5t46.5 16.5t46.5 -16.5t16.5 -46.5v-821q0 -112 28.5 -178t94.5 -94.5t178 -28.5h240q113 0 178.5 28.5t94 94.5t28.5 178v821q0 30 16.5 46.5t46.5 16.5t46.5 -16.5t16.5 -46.5v-821q0 -221 -102.5 -324t-324.5 -103
h-240zM803 1417q-45 -38 -81 7l-163 194q-36 46 7 81q44 38 81 -7l163 -194q36 -44 -7 -81z" />
    <glyph glyph-name="Uacute" unicode="&#xda;" horiz-adv-x="1462" 
d="M681 1435q-42 37 -7 81l163 194q37 45 81 7q43 -35 7 -81l-163 -194q-35 -45 -81 -7zM611 0q-221 0 -324 103t-103 324v821q0 30 16.5 46.5t46.5 16.5t46.5 -16.5t16.5 -46.5v-821q0 -112 28.5 -178t94.5 -94.5t178 -28.5h240q113 0 178.5 28.5t94 94.5t28.5 178v821
q0 30 16.5 46.5t46.5 16.5t46.5 -16.5t16.5 -46.5v-821q0 -221 -102.5 -324t-324.5 -103h-240z" />
    <glyph glyph-name="Ucircumflex" unicode="&#xdb;" horiz-adv-x="1462" 
d="M611 0q-221 0 -324 103t-103 324v821q0 30 16.5 46.5t46.5 16.5t46.5 -16.5t16.5 -46.5v-821q0 -112 28.5 -178t94.5 -94.5t178 -28.5h240q113 0 178.5 28.5t94 94.5t28.5 178v821q0 30 16.5 46.5t46.5 16.5t46.5 -16.5t16.5 -46.5v-821q0 -221 -102.5 -324t-324.5 -103
h-240zM487 1417q-24 0 -41.5 17.5t-17.5 41.5q0 31 26 49l193 161q33 27 73 27h17q40 0 73 -27l194 -161q26 -19 26 -49q0 -24 -17.5 -41.5t-41.5 -17.5q-23 0 -42 17l-194 161h-13l-193 -161q-18 -17 -42 -17z" />
    <glyph glyph-name="Udieresis" unicode="&#xdc;" horiz-adv-x="1462" 
d="M611 0q-221 0 -324 103t-103 324v821q0 30 16.5 46.5t46.5 16.5t46.5 -16.5t16.5 -46.5v-821q0 -112 28.5 -178t94.5 -94.5t178 -28.5h240q113 0 178.5 28.5t94 94.5t28.5 178v821q0 30 16.5 46.5t46.5 16.5t46.5 -16.5t16.5 -46.5v-821q0 -221 -102.5 -324t-324.5 -103
h-240zM557 1473q-65 0 -65 66v42q0 64 65 64h41q63 0 63 -64v-42q0 -66 -63 -66h-41zM867 1473q-65 0 -65 66v42q0 64 65 64h41q63 0 63 -64v-42q0 -66 -63 -66h-41z" />
    <glyph glyph-name="Yacute" unicode="&#xdd;" horiz-adv-x="1130" 
d="M515 1435q-42 37 -7 81l163 194q37 45 81 7q43 -35 7 -81l-163 -194q-35 -45 -81 -7zM559 0q-63 0 -63 63v433l-451 715q-32 53 20 88q54 34 87 -20l407 -648l418 649q16 25 38.5 30t47.5 -13q55 -33 19 -86l-460 -715v-433q0 -63 -63 -63z" />
    <glyph glyph-name="Thorn" unicode="&#xde;" horiz-adv-x="1060" 
d="M257 0q-63 0 -63 63v1185q0 63 63 63t63 -63v-129h309q175 0 266 -91t91 -266v-60q0 -174 -91 -265.5t-266 -91.5h-309v-282q0 -63 -63 -63zM320 471h309q123 0 177 54.5t54 176.5v60q0 123 -54 177t-177 54h-309v-522z" />
    <glyph glyph-name="germandbls" unicode="&#xdf;" horiz-adv-x="1104" 
d="M257 1q-63 0 -63 63v981q0 180 85 264.5t264 84.5q178 0 262.5 -84.5t84.5 -262.5q0 -81 -30.5 -148t-108.5 -110q140 -30 199.5 -110.5t59.5 -219.5v-91q0 -190 -88.5 -278.5t-278.5 -88.5h-122q-63 0 -63 63t63 63h122q138 0 189.5 52t51.5 189v91q0 138 -51.5 189.5
t-189.5 51.5h-37q-63 0 -63 64q0 59 62 65q90 10 124.5 60t34.5 158q0 126 -47.5 173.5t-173.5 47.5t-174.5 -48t-48.5 -175v-981q0 -63 -63 -63z" />
    <glyph glyph-name="agrave" unicode="&#xe0;" horiz-adv-x="1231" 
d="M485 0q-159 0 -235 76t-76 235q0 160 76 236t235 76h445q-4 123 -58.5 171t-186.5 48h-116q-118 0 -173.5 -22.5t-71.5 -77.5q-10 -30 -24.5 -43.5t-43.5 -13.5q-31 0 -48.5 17.5t-12.5 47.5q19 114 111 166t263 52h116q192 0 281.5 -89.5t89.5 -281.5v-534
q0 -63 -63 -63t-63 63v82q-99 -145 -333 -145h-112zM485 126h112q90 0 160.5 19t116 63t56.5 119v170h-445q-107 0 -146 -39t-39 -147q0 -107 39 -146t146 -39zM687 1074q-45 -38 -81 7l-163 194q-36 46 7 81q44 38 81 -7l163 -194q36 -44 -7 -81z" />
    <glyph glyph-name="aacute" unicode="&#xe1;" horiz-adv-x="1231" 
d="M565 1092q-42 37 -7 81l163 194q37 45 81 7q43 -35 7 -81l-163 -194q-35 -45 -81 -7zM485 0q-159 0 -235 76t-76 235q0 160 76 236t235 76h445q-4 123 -58.5 171t-186.5 48h-116q-118 0 -173.5 -22.5t-71.5 -77.5q-10 -30 -24.5 -43.5t-43.5 -13.5q-31 0 -48.5 17.5
t-12.5 47.5q19 114 111 166t263 52h116q192 0 281.5 -89.5t89.5 -281.5v-534q0 -63 -63 -63t-63 63v82q-99 -145 -333 -145h-112zM485 126h112q90 0 160.5 19t116 63t56.5 119v170h-445q-107 0 -146 -39t-39 -147q0 -107 39 -146t146 -39z" />
    <glyph glyph-name="acircumflex" unicode="&#xe2;" horiz-adv-x="1231" 
d="M485 0q-159 0 -235 76t-76 235q0 160 76 236t235 76h445q-4 123 -58.5 171t-186.5 48h-116q-118 0 -173.5 -22.5t-71.5 -77.5q-10 -30 -24.5 -43.5t-43.5 -13.5q-31 0 -48.5 17.5t-12.5 47.5q19 114 111 166t263 52h116q192 0 281.5 -89.5t89.5 -281.5v-534
q0 -63 -63 -63t-63 63v82q-99 -145 -333 -145h-112zM485 126h112q90 0 160.5 19t116 63t56.5 119v170h-445q-107 0 -146 -39t-39 -147q0 -107 39 -146t146 -39zM428 1078q-23 0 -39.5 16.5t-16.5 39.5q0 11 4 20t10 17l151 177q28 32 69 32h24q42 0 69 -32l151 -177
q7 -8 10.5 -17t3.5 -20q0 -23 -16 -39.5t-40 -16.5q-27 0 -42 19l-139 171h-18l-139 -171q-16 -19 -42 -19z" />
    <glyph glyph-name="atilde" unicode="&#xe3;" horiz-adv-x="1231" 
d="M485 0q-159 0 -235 76t-76 235q0 160 76 236t235 76h445q-4 123 -58.5 171t-186.5 48h-116q-118 0 -173.5 -22.5t-71.5 -77.5q-10 -30 -24.5 -43.5t-43.5 -13.5q-31 0 -48.5 17.5t-12.5 47.5q19 114 111 166t263 52h116q192 0 281.5 -89.5t89.5 -281.5v-534
q0 -63 -63 -63t-63 63v82q-99 -145 -333 -145h-112zM485 126h112q90 0 160.5 19t116 63t56.5 119v170h-445q-107 0 -146 -39t-39 -147q0 -107 39 -146t146 -39zM746 1112q-60 0 -96 27.5t-58 49.5q-23 25 -40 36t-43 11q-39 0 -56.5 -22t-29.5 -55q-8 -21 -23 -33.5
t-43 -4.5q-33 7 -39.5 29t1.5 42q27 75 73.5 114t115.5 39q64 0 101.5 -28t60.5 -52q27 -26 41.5 -34.5t33.5 -8.5q32 0 48 17t29 54q10 23 23.5 35t41.5 6q35 -6 40.5 -29t-0.5 -40q-25 -73 -69.5 -113t-111.5 -40z" />
    <glyph glyph-name="adieresis" unicode="&#xe4;" horiz-adv-x="1231" 
d="M485 0q-159 0 -235 76t-76 235q0 160 76 236t235 76h445q-4 123 -58.5 171t-186.5 48h-116q-118 0 -173.5 -22.5t-71.5 -77.5q-10 -30 -24.5 -43.5t-43.5 -13.5q-31 0 -48.5 17.5t-12.5 47.5q19 114 111 166t263 52h116q192 0 281.5 -89.5t89.5 -281.5v-534
q0 -63 -63 -63t-63 63v82q-99 -145 -333 -145h-112zM485 126h112q90 0 160.5 19t116 63t56.5 119v170h-445q-107 0 -146 -39t-39 -147q0 -107 39 -146t146 -39zM441 1130q-65 0 -65 66v42q0 64 65 64h41q63 0 63 -64v-42q0 -66 -63 -66h-41zM751 1130q-65 0 -65 66v42
q0 64 65 64h41q63 0 63 -64v-42q0 -66 -63 -66h-41z" />
    <glyph glyph-name="aring" unicode="&#xe5;" horiz-adv-x="1231" 
d="M485 0q-159 0 -235 76t-76 235q0 160 76 236t235 76h445q-4 123 -58.5 171t-186.5 48h-116q-118 0 -173.5 -22.5t-71.5 -77.5q-10 -30 -24.5 -43.5t-43.5 -13.5q-31 0 -48.5 17.5t-12.5 47.5q19 114 111 166t263 52h116q192 0 281.5 -89.5t89.5 -281.5v-534
q0 -63 -63 -63t-63 63v82q-99 -145 -333 -145h-112zM485 126h112q90 0 160.5 19t116 63t56.5 119v170h-445q-107 0 -146 -39t-39 -147q0 -107 39 -146t146 -39zM611 1081q-71 0 -112 40.5t-41 112.5q0 73 41 113t112 40q73 0 113.5 -40t40.5 -113q0 -72 -40.5 -112.5
t-113.5 -40.5zM611 1180q34 0 44 10.5t10 43.5q0 34 -10 44t-44 10q-33 0 -43.5 -10t-10.5 -44q0 -33 10.5 -43.5t43.5 -10.5z" />
    <glyph glyph-name="ae" unicode="&#xe6;" horiz-adv-x="1896" 
d="M1251 -23q-227 0 -310 175q-114 -171 -384 -171h-72q-159 0 -235 76t-76 235q0 153 76 227t235 74h405q-5 130 -59.5 178t-185.5 48h-76q-141 0 -194.5 -27.5t-57.5 -74.5q-3 -26 -19.5 -44.5t-43.5 -18.5q-26 0 -44.5 18.5t-18.5 44.5q0 107 96 167.5t282 60.5h76
q221 0 308 -157q84 158 300 155h120q187 0 275 -99.5t88 -313.5q0 -63 -64 -63h-656v-115q0 -140 52 -194.5t183 -54.5h122q137 0 187 35t50 127q0 27 18.5 45t44.5 18q27 0 45 -18t18 -45q0 -152 -88.5 -220t-274.5 -68h-122zM485 107h72q172 0 252.5 59t80.5 178v123h-405
q-107 0 -146 -37.5t-39 -137.5q0 -107 39 -146t146 -39zM1017 593h590q-9 127 -63 175.5t-171 48.5h-120q-126 2 -178 -46t-58 -178z" />
    <glyph glyph-name="ccedilla" unicode="&#xe7;" horiz-adv-x="1162" 
d="M531 0q-191 0 -281 90t-90 281v228q0 192 89.5 281.5t281.5 87.5h164q148 0 228 -49.5t98 -155.5q6 -31 -11.5 -48.5t-50.5 -17.5q-29 0 -43 15.5t-23 42.5q-12 48 -57.5 67.5t-140.5 19.5h-164q-138 2 -191.5 -50.5t-53.5 -192.5v-228q0 -138 53.5 -191.5t191.5 -53.5
h164q95 0 140.5 19.5t57.5 67.5q9 29 23.5 43.5t43.5 14.5q32 0 49.5 -17t11.5 -49q-18 -104 -98 -154.5t-228 -50.5h-164zM652 -414q-180 0 -180 180q0 56 56 56t56 -56q0 -42 13 -55t55 -13q65 0 86.5 21.5t21.5 86.5q0 19 -8 30t-38 31q-18 12 -41.5 32t-41 51.5
t-17.5 79.5q0 56 56 56t56 -56q0 -22 9 -35.5t41 -35.5q27 -18 61.5 -52t34.5 -101q0 -111 -54 -165.5t-166 -54.5z" />
    <glyph glyph-name="egrave" unicode="&#xe8;" 
d="M286 434v-65q0 -137 53.5 -190t191.5 -53h164q119 0 173.5 28t66.5 97q7 30 22 45t45 15q31 0 47.5 -16.5t11.5 -48.5q-16 -125 -106.5 -185.5t-259.5 -60.5h-164q-191 0 -281 90t-90 279v228q0 194 90 283.5t281 87.5h164q192 0 281.5 -89.5t89.5 -281.5v-100
q0 -63 -63 -63h-717zM531 842q-138 2 -191.5 -51t-53.5 -194v-37h654v37q0 139 -53 192t-192 53h-164zM694 1074q-45 -38 -81 7l-163 194q-36 46 7 81q44 38 81 -7l163 -194q36 -44 -7 -81z" />
    <glyph glyph-name="eacute" unicode="&#xe9;" 
d="M572 1092q-42 37 -7 81l163 194q37 45 81 7q43 -35 7 -81l-163 -194q-35 -45 -81 -7zM286 434v-65q0 -137 53.5 -190t191.5 -53h164q119 0 173.5 28t66.5 97q7 30 22 45t45 15q31 0 47.5 -16.5t11.5 -48.5q-16 -125 -106.5 -185.5t-259.5 -60.5h-164q-191 0 -281 90
t-90 279v228q0 194 90 283.5t281 87.5h164q192 0 281.5 -89.5t89.5 -281.5v-100q0 -63 -63 -63h-717zM531 842q-138 2 -191.5 -51t-53.5 -194v-37h654v37q0 139 -53 192t-192 53h-164z" />
    <glyph glyph-name="ecircumflex" unicode="&#xea;" 
d="M286 434v-65q0 -137 53.5 -190t191.5 -53h164q119 0 173.5 28t66.5 97q7 30 22 45t45 15q31 0 47.5 -16.5t11.5 -48.5q-16 -125 -106.5 -185.5t-259.5 -60.5h-164q-191 0 -281 90t-90 279v228q0 194 90 283.5t281 87.5h164q192 0 281.5 -89.5t89.5 -281.5v-100
q0 -63 -63 -63h-717zM531 842q-138 2 -191.5 -51t-53.5 -194v-37h654v37q0 139 -53 192t-192 53h-164zM435 1078q-23 0 -39.5 16.5t-16.5 39.5q0 11 4 20t10 17l151 177q28 32 69 32h24q42 0 69 -32l151 -177q7 -8 10.5 -17t3.5 -20q0 -23 -16 -39.5t-40 -16.5q-27 0 -42 19
l-139 171h-18l-139 -171q-16 -19 -42 -19z" />
    <glyph glyph-name="edieresis" unicode="&#xeb;" 
d="M286 434v-65q0 -137 53.5 -190t191.5 -53h164q119 0 173.5 28t66.5 97q7 30 22 45t45 15q31 0 47.5 -16.5t11.5 -48.5q-16 -125 -106.5 -185.5t-259.5 -60.5h-164q-191 0 -281 90t-90 279v228q0 194 90 283.5t281 87.5h164q192 0 281.5 -89.5t89.5 -281.5v-100
q0 -63 -63 -63h-717zM531 842q-138 2 -191.5 -51t-53.5 -194v-37h654v37q0 139 -53 192t-192 53h-164zM448 1130q-65 0 -65 66v42q0 64 65 64h41q63 0 63 -64v-42q0 -66 -63 -66h-41zM758 1130q-65 0 -65 66v42q0 64 65 64h41q63 0 63 -64v-42q0 -66 -63 -66h-41z" />
    <glyph glyph-name="igrave" unicode="&#xec;" horiz-adv-x="514" 
d="M257 0q-63 0 -63 63v842q0 63 63 63t63 -63v-842q0 -63 -63 -63zM328 1074q-45 -38 -81 7l-163 194q-36 46 7 81q44 38 81 -7l163 -194q36 -44 -7 -81z" />
    <glyph glyph-name="iacute" unicode="&#xed;" horiz-adv-x="514" 
d="M206 1092q-42 37 -7 81l163 194q37 45 81 7q43 -35 7 -81l-163 -194q-35 -45 -81 -7zM257 0q-63 0 -63 63v842q0 63 63 63t63 -63v-842q0 -63 -63 -63z" />
    <glyph glyph-name="icircumflex" unicode="&#xee;" horiz-adv-x="514" 
d="M257 0q-63 0 -63 63v842q0 63 63 63t63 -63v-842q0 -63 -63 -63zM69 1078q-23 0 -39.5 16.5t-16.5 39.5q0 11 4 20t10 17l151 177q28 32 69 32h24q42 0 69 -32l151 -177q7 -8 10.5 -17t3.5 -20q0 -23 -16 -39.5t-40 -16.5q-27 0 -42 19l-139 171h-18l-139 -171
q-16 -19 -42 -19z" />
    <glyph glyph-name="idieresis" unicode="&#xef;" horiz-adv-x="514" 
d="M257 0q-63 0 -63 63v842q0 63 63 63t63 -63v-842q0 -63 -63 -63zM82 1130q-65 0 -65 66v42q0 64 65 64h41q63 0 63 -64v-42q0 -66 -63 -66h-41zM392 1130q-65 0 -65 66v42q0 64 65 64h41q63 0 63 -64v-42q0 -66 -63 -66h-41z" />
    <glyph glyph-name="eth" unicode="&#xf0;" 
d="M531 1q-191 0 -281 89.5t-90 279.5v228q0 193 90 282.5t281 88.5h164q73 0 131.5 -23t100.5 -70q-10 113 -31.5 181t-55 102.5t-79.5 45.5l-464 117q-61 17 -46 78q16 62 77 45l465 -118q141 -33 204.5 -192t68.5 -485v-278q0 -192 -89.5 -281.5t-281.5 -89.5h-164z
M531 127h164q139 0 192 53.5t53 191.5v240q0 88 -25 138.5t-79 71.5t-141 21h-164q-92 0 -145.5 -22t-76.5 -75.5t-23 -147.5v-228q0 -137 53.5 -190t191.5 -53zM468 1126q-42 -40 -81 2q-39 43 2 81l300 282q42 41 81 -2q39 -42 -2 -81z" />
    <glyph glyph-name="ntilde" unicode="&#xf1;" horiz-adv-x="1255" 
d="M257 0q-63 0 -63 63v842q0 63 63 63t63 -63v-74q99 137 333 137h56q192 0 281.5 -89.5t89.5 -281.5v-534q0 -63 -63 -63t-63 63v534q0 139 -53.5 192t-191.5 53h-56q-143 0 -232 -42t-101 -131v-606q0 -63 -63 -63zM810 1112q-60 0 -96 27.5t-58 49.5q-23 25 -40 36
t-43 11q-39 0 -56.5 -22t-29.5 -55q-8 -21 -23 -33.5t-43 -4.5q-33 7 -39.5 29t1.5 42q27 75 73.5 114t115.5 39q64 0 101.5 -28t60.5 -52q27 -26 41.5 -34.5t33.5 -8.5q32 0 48 17t29 54q10 23 23.5 35t41.5 6q35 -6 40.5 -29t-0.5 -40q-25 -73 -69.5 -113t-111.5 -40z" />
    <glyph glyph-name="ograve" unicode="&#xf2;" 
d="M531 0q-191 0 -281 90t-90 279v228q0 193 90 282.5t281 88.5h164q192 0 281.5 -89.5t89.5 -281.5v-226q0 -191 -89.5 -281t-281.5 -90h-164zM286 369q0 -137 53.5 -190t191.5 -53h164q139 0 192 53.5t53 191.5v226q0 139 -53 192t-192 53h-164q-92 1 -145.5 -21.5
t-76.5 -76t-23 -147.5v-228zM685 1074q-45 -38 -81 7l-163 194q-36 46 7 81q44 38 81 -7l163 -194q36 -44 -7 -81z" />
    <glyph glyph-name="oacute" unicode="&#xf3;" 
d="M563 1092q-42 37 -7 81l163 194q37 45 81 7q43 -35 7 -81l-163 -194q-35 -45 -81 -7zM531 0q-191 0 -281 90t-90 279v228q0 193 90 282.5t281 88.5h164q192 0 281.5 -89.5t89.5 -281.5v-226q0 -191 -89.5 -281t-281.5 -90h-164zM286 369q0 -137 53.5 -190t191.5 -53h164
q139 0 192 53.5t53 191.5v226q0 139 -53 192t-192 53h-164q-92 1 -145.5 -21.5t-76.5 -76t-23 -147.5v-228z" />
    <glyph glyph-name="ocircumflex" unicode="&#xf4;" 
d="M531 0q-191 0 -281 90t-90 279v228q0 193 90 282.5t281 88.5h164q192 0 281.5 -89.5t89.5 -281.5v-226q0 -191 -89.5 -281t-281.5 -90h-164zM286 369q0 -137 53.5 -190t191.5 -53h164q139 0 192 53.5t53 191.5v226q0 139 -53 192t-192 53h-164q-92 1 -145.5 -21.5
t-76.5 -76t-23 -147.5v-228zM426 1078q-23 0 -39.5 16.5t-16.5 39.5q0 11 4 20t10 17l151 177q28 32 69 32h24q42 0 69 -32l151 -177q7 -8 10.5 -17t3.5 -20q0 -23 -16 -39.5t-40 -16.5q-27 0 -42 19l-139 171h-18l-139 -171q-16 -19 -42 -19z" />
    <glyph glyph-name="otilde" unicode="&#xf5;" 
d="M531 0q-191 0 -281 90t-90 279v228q0 193 90 282.5t281 88.5h164q192 0 281.5 -89.5t89.5 -281.5v-226q0 -191 -89.5 -281t-281.5 -90h-164zM286 369q0 -137 53.5 -190t191.5 -53h164q139 0 192 53.5t53 191.5v226q0 139 -53 192t-192 53h-164q-92 1 -145.5 -21.5
t-76.5 -76t-23 -147.5v-228zM744 1112q-60 0 -96 27.5t-58 49.5q-23 25 -40 36t-43 11q-39 0 -56.5 -22t-29.5 -55q-8 -21 -23 -33.5t-43 -4.5q-33 7 -39.5 29t1.5 42q27 75 73.5 114t115.5 39q64 0 101.5 -28t60.5 -52q27 -26 41.5 -34.5t33.5 -8.5q32 0 48 17t29 54
q10 23 23.5 35t41.5 6q35 -6 40.5 -29t-0.5 -40q-25 -73 -69.5 -113t-111.5 -40z" />
    <glyph glyph-name="odieresis" unicode="&#xf6;" 
d="M531 0q-191 0 -281 90t-90 279v228q0 193 90 282.5t281 88.5h164q192 0 281.5 -89.5t89.5 -281.5v-226q0 -191 -89.5 -281t-281.5 -90h-164zM286 369q0 -137 53.5 -190t191.5 -53h164q139 0 192 53.5t53 191.5v226q0 139 -53 192t-192 53h-164q-92 1 -145.5 -21.5
t-76.5 -76t-23 -147.5v-228zM439 1130q-65 0 -65 66v42q0 64 65 64h41q63 0 63 -64v-42q0 -66 -63 -66h-41zM749 1130q-65 0 -65 66v42q0 64 65 64h41q63 0 63 -64v-42q0 -66 -63 -66h-41z" />
    <glyph glyph-name="divide" unicode="&#xf7;" horiz-adv-x="1154" 
d="M210 676q-56 0 -56 56t56 56h734q56 0 56 -56t-56 -56h-734zM555 316q-65 0 -65 66v42q0 64 65 64h41q63 0 63 -64v-42q0 -66 -63 -66h-41zM555 976q-65 0 -65 66v42q0 64 65 64h41q63 0 63 -64v-42q0 -66 -63 -66h-41z" />
    <glyph glyph-name="oslash" unicode="&#xf8;" 
d="M238 -125q-26 14 -31.5 35t9.5 46l85 137l19 20l481 776l10 21l77 127q29 46 75 20q55 -28 22 -81l-72 -117l-20 -25l-468 -756l-16 -29l-95 -153q-28 -47 -76 -21zM531 0q-191 0 -281 90t-90 279v228q0 193 90 282.5t281 88.5h164q192 0 281.5 -89.5t89.5 -281.5v-226
q0 -191 -89.5 -281t-281.5 -90h-164zM286 369q0 -137 53.5 -190t191.5 -53h164q139 0 192 53.5t53 191.5v226q0 139 -53 192t-192 53h-164q-92 1 -145.5 -21.5t-76.5 -76t-23 -147.5v-228z" />
    <glyph glyph-name="ugrave" unicode="&#xf9;" horiz-adv-x="1255" 
d="M998 968q63 0 63 -63v-842q0 -63 -63 -63t-63 63v75q-98 -138 -333 -138h-56q-191 0 -281 90t-90 281v534q0 63 63 63t63 -63v-534q0 -138 53.5 -191.5t191.5 -53.5h56q143 0 232.5 42.5t100.5 130.5v606q0 63 63 63zM686 1074q-45 -38 -81 7l-163 194q-36 46 7 81
q44 38 81 -7l163 -194q36 -44 -7 -81z" />
    <glyph glyph-name="uacute" unicode="&#xfa;" horiz-adv-x="1255" 
d="M998 968q63 0 63 -63v-842q0 -63 -63 -63t-63 63v75q-98 -138 -333 -138h-56q-191 0 -281 90t-90 281v534q0 63 63 63t63 -63v-534q0 -138 53.5 -191.5t191.5 -53.5h56q143 0 232.5 42.5t100.5 130.5v606q0 63 63 63zM564 1092q-42 37 -7 81l163 194q37 45 81 7
q43 -35 7 -81l-163 -194q-35 -45 -81 -7z" />
    <glyph glyph-name="ucircumflex" unicode="&#xfb;" horiz-adv-x="1255" 
d="M998 968q63 0 63 -63v-842q0 -63 -63 -63t-63 63v75q-98 -138 -333 -138h-56q-191 0 -281 90t-90 281v534q0 63 63 63t63 -63v-534q0 -138 53.5 -191.5t191.5 -53.5h56q143 0 232.5 42.5t100.5 130.5v606q0 63 63 63zM427 1078q-23 0 -39.5 16.5t-16.5 39.5q0 11 4 20
t10 17l151 177q28 32 69 32h24q42 0 69 -32l151 -177q7 -8 10.5 -17t3.5 -20q0 -23 -16 -39.5t-40 -16.5q-27 0 -42 19l-139 171h-18l-139 -171q-16 -19 -42 -19z" />
    <glyph glyph-name="udieresis" unicode="&#xfc;" horiz-adv-x="1255" 
d="M998 968q63 0 63 -63v-842q0 -63 -63 -63t-63 63v75q-98 -138 -333 -138h-56q-191 0 -281 90t-90 281v534q0 63 63 63t63 -63v-534q0 -138 53.5 -191.5t191.5 -53.5h56q143 0 232.5 42.5t100.5 130.5v606q0 63 63 63zM440 1130q-65 0 -65 66v42q0 64 65 64h41
q63 0 63 -64v-42q0 -66 -63 -66h-41zM750 1130q-65 0 -65 66v42q0 64 65 64h41q63 0 63 -64v-42q0 -66 -63 -66h-41z" />
    <glyph glyph-name="yacute" unicode="&#xfd;" horiz-adv-x="1263" 
d="M572 1092q-42 37 -7 81l163 194q37 45 81 7q43 -35 7 -81l-163 -194q-35 -45 -81 -7zM442 -400q-136 0 -201.5 66t-65.5 203q0 63 63 63t63 -63q0 -84 29 -113.5t112 -29.5h360q83 0 112 29.5t29 113.5v268q-57 -80 -141 -109t-192 -29h-70q-189 0 -277 88t-88 275v544
q0 63 63 63t63 -63v-544q0 -135 51.5 -186t187.5 -51h70q172 0 252.5 59t80.5 178v544q0 63 63 63t63 -63v-1037q0 -137 -65.5 -203t-201.5 -66h-360z" />
    <glyph glyph-name="thorn" unicode="&#xfe;" horiz-adv-x="1260" 
d="M257 -400q-33 0 -48 15t-15 48v1604q0 34 15 48.5t48 14.5q34 0 48.5 -14.5t14.5 -48.5v-445q117 144 333 144h76q192 0 281.5 -89.5t89.5 -281.5v-222q0 -191 -89.5 -281t-281.5 -90h-409v-339q0 -33 -14.5 -48t-48.5 -15zM320 128h409q139 0 192 53.5t53 191.5v222
q0 139 -53 192t-192 53h-76q-170 0 -251.5 -58.5t-81.5 -178.5v-475z" />
    <glyph glyph-name="ydieresis" unicode="&#xff;" horiz-adv-x="1263" 
d="M442 -400q-136 0 -201.5 66t-65.5 203q0 63 63 63t63 -63q0 -84 29 -113.5t112 -29.5h360q83 0 112 29.5t29 113.5v268q-57 -80 -141 -109t-192 -29h-70q-189 0 -277 88t-88 275v544q0 63 63 63t63 -63v-544q0 -135 51.5 -186t187.5 -51h70q172 0 252.5 59t80.5 178v544
q0 63 63 63t63 -63v-1037q0 -137 -65.5 -203t-201.5 -66h-360zM448 1130q-65 0 -65 66v42q0 64 65 64h41q63 0 63 -64v-42q0 -66 -63 -66h-41zM758 1130q-65 0 -65 66v42q0 64 65 64h41q63 0 63 -64v-42q0 -66 -63 -66h-41z" />
    <glyph glyph-name="dotlessi" unicode="&#x131;" horiz-adv-x="514" 
d="M257 0q-63 0 -63 63v842q0 63 63 63t63 -63v-842q0 -63 -63 -63z" />
    <glyph glyph-name="OE" unicode="&#x152;" horiz-adv-x="1699" 
d="M587 0q-221 0 -324 103t-103 324v458q0 223 103.5 324.5t322.5 101.5h959q30 0 46.5 -16.5t16.5 -46.5q0 -63 -63 -63h-578v-459h342q63 0 63 -63t-63 -63h-342v-474h578q63 0 63 -63t-63 -63h-958zM587 126h254v1059h-255q-112 0 -177.5 -28t-94 -93.5t-28.5 -178.5
v-458q0 -112 28.5 -178t94.5 -94.5t178 -28.5z" />
    <glyph glyph-name="oe" unicode="&#x153;" horiz-adv-x="1886" 
d="M531 -19q-191 0 -281 90t-90 279v224q0 193 90 282.5t281 89.5h104q111 0 187.5 -33.5t119.5 -117.5q43 85 118 118t183 33h120q189 0 276 -103.5t87 -295.5q0 -39 -8 -57.5t-22.5 -23.5t-33.5 -5h-656v-105q0 -140 52 -194.5t183 -54.5h122q70 0 113.5 6.5t68 24
t36.5 50.5t19 86q4 25 17 44t46 19q27 0 45 -17t18 -62q0 -71 -23.5 -119.5t-62.5 -79.5t-87 -48t-97 -23.5t-93 -6.5h-122q-107 0 -181 34t-117 117q-44 -83 -120.5 -117t-187.5 -34h-104zM531 107h104q139 0 192 53.5t53 191.5v222q0 139 -53 192.5t-192 53.5h-104
q-138 0 -191.5 -52.5t-53.5 -193.5v-224q0 -137 53.5 -190t191.5 -53zM1006 587h593q-9 131 -63 182t-173 51h-120q-131 0 -182.5 -50.5t-54.5 -182.5z" />
    <glyph glyph-name="uni02BC" unicode="&#x2bc;" horiz-adv-x="411" 
d="M89 867q-30 0 -48 23t-3 57l97 226l104 -44l-97 -225q-7 -18 -20.5 -27.5t-32.5 -9.5zM139 1091q-65 0 -65 66v42q0 64 65 64h41q63 0 63 -64v-42q0 -66 -63 -66h-41z" />
    <glyph glyph-name="circumflex" unicode="&#x2c6;" horiz-adv-x="692" 
d="M156 1050q-23 0 -39.5 16.5t-16.5 39.5q0 11 4 20t10 17l151 177q28 32 69 32h24q42 0 69 -32l151 -177q7 -8 10.5 -17t3.5 -20q0 -23 -16 -39.5t-40 -16.5q-27 0 -42 19l-139 171h-18l-139 -171q-16 -19 -42 -19z" />
    <glyph glyph-name="ring" unicode="&#x2da;" horiz-adv-x="507" 
d="M253 1038q-71 0 -112 40.5t-41 112.5q0 73 41 113t112 40q73 0 113.5 -40t40.5 -113q0 -72 -40.5 -112.5t-113.5 -40.5zM253 1137q34 0 44 10.5t10 43.5q0 34 -10 44t-44 10q-33 0 -43.5 -10t-10.5 -44q0 -33 10.5 -43.5t43.5 -10.5z" />
    <glyph glyph-name="tilde" unicode="&#x2dc;" horiz-adv-x="817" 
d="M532 1051q-60 0 -96 27.5t-58 49.5q-23 25 -40 36t-43 11q-39 0 -56.5 -22t-29.5 -55q-8 -21 -23 -33.5t-43 -4.5q-33 7 -39.5 29t1.5 42q27 75 73.5 114t115.5 39q64 0 101.5 -28t60.5 -52q27 -26 41.5 -34.5t33.5 -8.5q32 0 48 17t29 54q10 23 23.5 35t41.5 6
q35 -6 40.5 -29t-0.5 -40q-25 -73 -69.5 -113t-111.5 -40z" />
    <glyph glyph-name="uni0335" horiz-adv-x="0" 
d="M156 484q-56 0 -56 56t56 56h520q56 0 56 -56t-56 -56h-520z" />
    <glyph glyph-name="uni0338" horiz-adv-x="0" 
d="M132 -152q-51 32 -21 83l828 1355q32 52 83 20q51 -31 19 -83l-826 -1355q-32 -51 -83 -20z" />
    <glyph glyph-name="uni0400" unicode="&#x400;" horiz-adv-x="1213" 
d="M221 -6q-59 0 -59 81v1122q0 81 59 81h822q79 0 79 -67q0 -59 -79 -59h-755v-373h514q86 0 86 -67q0 -59 -86 -59h-514v-533h755q79 0 79 -67q0 -59 -79 -59h-822zM629 1360q-27 0 -55 30l-138 137q-29 30 -29 55q0 24 19.5 43t45.5 19t54 -29l141 -139q26 -31 26 -53
q0 -24 -18.5 -43.5t-45.5 -19.5z" />
    <glyph glyph-name="uni0401" unicode="&#x401;" horiz-adv-x="1213" 
d="M221 -6q-59 0 -59 81v1122q0 81 59 81h822q79 0 79 -67q0 -59 -79 -59h-755v-373h514q86 0 86 -67q0 -59 -86 -59h-514v-533h755q79 0 79 -67q0 -59 -79 -59h-822zM472 1406q-41 0 -76 28.5t-35 64.5q1 37 36 65t76 28q42 0 78 -28t36 -65q0 -36 -36 -64.5t-79 -28.5z
M788 1406q-41 0 -76 28.5t-35 64.5q1 37 36 65t76 28q42 0 78 -28t36 -65q0 -36 -36 -64.5t-79 -28.5z" />
    <glyph glyph-name="uni0402" unicode="&#x402;" horiz-adv-x="1425" 
d="M1102 -416q-54 0 -76.5 16.5t-22.5 46.5q0 26 13.5 39t33.5 18t41 6q33 2 54.5 8.5t32 29t10.5 71.5v756q0 87 -22.5 140t-81 77.5t-167.5 24.5q-119 0 -201.5 -32t-125.5 -108t-43 -207v-410q0 -80 -66 -80q-63 0 -63 78v1094h-295q-36 0 -56.5 16.5t-20.5 46.5
t20.5 46.5t56.5 16.5h721q80 0 80 -63t-80 -63h-297v-382l-24 4q47 67 100.5 104t122 51t158.5 14q152 0 241.5 -35.5t129 -116t39.5 -213.5v-725q0 -90 -16.5 -141.5t-44.5 -78.5t-69.5 -38t-81.5 -11z" />
    <glyph glyph-name="uni0403" unicode="&#x403;" horiz-adv-x="1131" 
d="M221 -20q-63 0 -63 78v957q0 146 46.5 204.5t164.5 58.5h640q81 0 81 -63t-81 -63h-626q-57 0 -78 -22.5t-21 -83.5v-988q0 -78 -63 -78zM612 1360q-26 0 -45.5 19t-19.5 44q0 22 28 53l139 139q28 29 55 29q26 0 45 -19.5t19 -42.5t-28 -55l-138 -137q-29 -30 -55 -30z
" />
    <glyph glyph-name="uni0404" unicode="&#x404;" horiz-adv-x="1198" 
d="M604 -6q-166 0 -269 32.5t-150.5 111.5t-47.5 218v560q0 140 47.5 219t150.5 111t269 32h282q81 0 127 -28.5t65 -76t19 -105.5q0 -106 -63 -106q-38 0 -49.5 28t-13.5 58q-2 32 -7.5 55.5t-25.5 36t-66 12.5h-268q-107 0 -170 -7.5t-104 -35.5q-36 -24 -51.5 -67.5
t-15.5 -125.5v-187h517q81 0 81 -61q0 -65 -81 -65h-517v-244q0 -71 13.5 -118.5t51.5 -74.5q41 -30 111 -38t165 -8h268q46 0 66 13t25.5 37t7.5 55q1 20 6 39.5t18.5 32t39.5 12.5q35 0 48.5 -24.5t13.5 -75.5q0 -63 -20 -111.5t-66 -76t-125 -27.5h-282z" />
    <glyph glyph-name="uni0405" unicode="&#x405;" horiz-adv-x="1228" 
d="M583 -22q-110 0 -198.5 15t-149.5 56q-118 80 -118 271q0 61 14 83.5t47 22.5q31 0 44.5 -12.5t17.5 -31t5 -33.5q6 -79 17 -128t49 -76q35 -23 101.5 -32t170.5 -9h211q64 0 106.5 29.5t63.5 79t21 108.5q0 81 -41.5 144t-135.5 83l-423 91q-138 31 -203 105t-65 207
q0 162 93.5 252.5t281.5 90.5h152q100 0 188.5 -11.5t151.5 -53.5q60 -38 93.5 -107t33.5 -170q0 -55 -13.5 -78.5t-48.5 -23.5t-49 21.5t-17 55.5q-3 59 -8 97.5t-19.5 63.5t-45.5 43q-39 23 -97.5 30t-168.5 7h-200q-99 0 -150 -58.5t-51 -152.5q0 -74 37.5 -127.5
t131.5 -73.5l434 -90q130 -27 197.5 -118t67.5 -229q0 -103 -39 -179.5t-118.5 -119t-198.5 -42.5h-172z" />
    <glyph glyph-name="uni0406" unicode="&#x406;" horiz-adv-x="450" 
d="M225 -20q-63 0 -63 73v1164q0 75 63 75t63 -75v-1164q0 -73 -63 -73z" />
    <glyph glyph-name="uni0407" unicode="&#x407;" horiz-adv-x="450" 
d="M225 -20q-63 0 -63 73v1164q0 75 63 75t63 -75v-1164q0 -73 -63 -73zM65 1406q-41 0 -76 28.5t-35 63.5q1 37 36 65.5t76 28.5q42 0 78 -28t36 -65q0 -36 -36 -64.5t-79 -28.5zM381 1406q-41 0 -76 28.5t-35 63.5q1 37 36 65.5t76 28.5q42 0 78 -28t36 -65
q0 -36 -36 -64.5t-79 -28.5z" />
    <glyph glyph-name="uni0408" unicode="&#x408;" horiz-adv-x="1121" 
d="M506 -22q-84 0 -172 12t-151 53q-63 43 -93.5 115.5t-30.5 164.5q0 58 14 80.5t47 22.5q42 0 53.5 -23.5t13.5 -53.5q6 -71 14 -118t38 -75t97.5 -40t191.5 -12q81 0 146 9t103 40q37 27 49.5 73.5t12.5 116.5v875q0 36 17 55t47 19q62 0 62 -75v-877q0 -108 -26 -176
t-80 -109q-56 -42 -141 -59.5t-212 -17.5z" />
    <glyph glyph-name="uni0409" unicode="&#x409;" horiz-adv-x="1797" 
d="M944 -20q-30 0 -48 21.5t-18 58.5v1092h-405q-71 0 -99 -24t-28 -82v-789q0 -100 -23 -157.5t-72 -81.5t-126 -24q-89 0 -89 63q0 29 22.5 44.5t62.5 15.5q57 0 78 22.5t21 81.5v794q0 100 21.5 157.5t74 81.5t143.5 24h545v-455h279q135 0 235.5 -52.5t156 -147.5
t55.5 -223q0 -127 -55.5 -221.5t-155 -146.5t-233.5 -52h-342zM1004 106h282q156 0 237 79t81 216q0 138 -82.5 217t-238.5 79h-279v-591z" />
    <glyph glyph-name="uni040A" unicode="&#x40a;" horiz-adv-x="1884" 
d="M225 -20q-63 0 -63 78v1154q0 80 60 80q66 0 66 -80v-389h693v389q0 80 62 80q65 0 65 -80v-389h269q133 0 232 -52.5t154 -147.5t55 -223q0 -127 -55 -221.5t-154 -146.5t-232 -52h-333q-29 0 -46 22t-17 59v636h-693v-638q0 -79 -63 -79zM1108 106h269
q154 0 234.5 79.5t80.5 215.5q0 138 -81 217t-234 79h-269v-591z" />
    <glyph glyph-name="uni040B" unicode="&#x40b;" horiz-adv-x="1424" 
d="M481 -20q-63 0 -63 78v1094h-295q-36 0 -56.5 16.5t-20.5 46.5t20.5 46.5t56.5 16.5h721q80 0 80 -63t-80 -63h-297v-325q67 62 147 89t205 27q142 0 234 -35t136.5 -115t44.5 -215v-517q0 -81 -63 -81t-63 80v516q0 81 -15 127t-51 71q-37 27 -95.5 35t-110.5 8
q-117 0 -199.5 -32t-126 -107.5t-43.5 -207.5v-410q0 -80 -66 -80z" />
    <glyph glyph-name="uni040C" unicode="&#x40c;" horiz-adv-x="1169" 
d="M518 1167q-23 0 -43 18.5t-20 44.5q0 13 6 27t14 23l192 231q30 34 58 34q25 0 43.5 -17.5t18.5 -45.5q0 -26 -20 -51l-192 -230q-30 -34 -57 -34zM224 -20q-29 0 -45.5 19.5t-16.5 53.5v1087q0 35 17 56t48 21q61 0 61 -77v-485h177q34 0 71.5 37.5t80 101.5t89.5 145
q27 47 59 96t69.5 91t82 67.5t95.5 25.5q82 0 82 -67q0 -37 -25 -46t-56 -13q-58 -7 -98 -58t-90 -137q-44 -77 -72 -124.5t-49.5 -79t-47.5 -58t-68 -61.5l-2 36q54 -43 94.5 -91t76 -104t74.5 -123q57 -94 95.5 -136.5t88.5 -50.5q17 -2 35.5 -6t31 -16.5t12.5 -40.5
q0 -63 -78 -63q-72 0 -139.5 54t-130.5 143q-24 38 -50.5 80t-52.5 82q-59 97 -103 143.5t-88 46.5h-164v-476q0 -33 -17 -53t-47 -20z" />
    <glyph glyph-name="uni040E" unicode="&#x40e;" horiz-adv-x="1075" 
d="M438 1261q-107 0 -150 55t-43 190v65h126v-97q0 -53 16 -70t67 -17h204q52 0 66.5 17t14.5 70v97h126v-65q0 -137 -41.5 -191t-151.5 -54h-234zM328 -18q-79 0 -125 29t-65 80.5t-19 116.5q0 90 63 90t63 -81q0 -59 18 -84t65 -25q46 0 72 50l73 148l-386 886
q-13 30 -0.5 58t53.5 28q42 0 65 -50l348 -781l361 783q21 48 66 48q38 0 51 -24.5t2 -60.5l-517 -1109q-22 -48 -72 -75t-116 -27z" />
    <glyph glyph-name="uni040F" unicode="&#x40f;" horiz-adv-x="1266" 
d="M633 -190q-63 0 -63 81v103h-407v1163q0 81 63 81t63 -81v-1037h688v1037q0 81 63 81t63 -81v-1163h-407v-103q0 -81 -63 -81z" />
    <glyph glyph-name="uni0410" unicode="&#x410;" horiz-adv-x="1158" 
d="M104 -38q-27 0 -45 16t-18 40q0 22 7 39l463 1221h136l464 -1221q6 -17 6 -39q0 -24 -17.5 -40t-45.5 -16q-45 0 -64 52l-140 373h-542l-139 -373q-23 -52 -65 -52zM358 513h442l-223 578z" />
    <glyph glyph-name="uni0411" unicode="&#x411;" horiz-adv-x="1130" 
d="M163 1278h729q81 0 81 -63t-81 -63h-603v-209h300q130 0 231.5 -64t160 -173.5t58.5 -245.5q0 -135 -58 -243.5t-159.5 -172.5t-232.5 -64h-367q-59 0 -59 80v1218zM589 817h-300v-711h300q100 0 173 47t112 127.5t39 180.5q0 101 -39 181.5t-112 127.5t-173 47z" />
    <glyph glyph-name="uni0412" unicode="&#x412;" horiz-adv-x="1228" 
d="M221 -6q-59 0 -59 81v1122q0 81 59 81h364q235 0 344 -70t109 -244q0 -80 -22.5 -136.5t-68.5 -92.5q88 -37 131.5 -116.5t43.5 -211.5v-48q0 -141 -47 -220.5t-149.5 -112t-268.5 -32.5h-436zM288 120h369q90 0 160.5 7.5t111.5 36.5q40 27 53.5 74.5t13.5 120.5v45
q0 85 -16 129.5t-53 68.5q-39 27 -97 34t-155 7h-387v-523zM288 769h297q125 0 196 15.5t101 56.5t30 118q0 76 -29.5 117t-101 56t-196.5 15h-297v-378z" />
    <glyph glyph-name="uni0413" unicode="&#x413;" horiz-adv-x="1131" 
d="M221 -20q-63 0 -63 78v957q0 146 46.5 204.5t164.5 58.5h640q81 0 81 -63t-81 -63h-626q-57 0 -78 -22.5t-21 -83.5v-988q0 -78 -63 -78z" />
    <glyph glyph-name="uni0414" unicode="&#x414;" horiz-adv-x="1164" 
d="M80 -190q-63 0 -63 81v99q0 69 31.5 96.5t94.5 28.5q25 46 52 141t53 220.5t47 265.5t33.5 278.5t11.5 257.5h629v-1164q63 -2 91.5 -30t28.5 -94v-99q0 -81 -63 -81t-63 81v103h-820v-103q0 -81 -63 -81zM282 120h561v1032h-371q-1 -97 -13.5 -214.5t-32.5 -240.5
t-44 -236t-50 -202t-50 -139z" />
    <glyph glyph-name="uni0415" unicode="&#x415;" horiz-adv-x="1213" 
d="M221 -6q-59 0 -59 81v1122q0 81 59 81h822q79 0 79 -67q0 -59 -79 -59h-755v-373h514q86 0 86 -67q0 -59 -86 -59h-514v-533h755q79 0 79 -67q0 -59 -79 -59h-822z" />
    <glyph glyph-name="uni0416" unicode="&#x416;" horiz-adv-x="1570" 
d="M169 -20q-49 0 -72 17.5t-23 49.5q0 31 15.5 42.5t34 13t28.5 3.5q31 5 51 38t34 81t27 98q25 92 86 177.5t160 124.5q-27 32 -52.5 72.5t-64.5 106.5q-61 106 -99.5 166.5t-69 88.5t-67.5 34q-32 5 -58 16t-26 48q0 31 21.5 46.5t58.5 15.5q73 0 148.5 -61.5
t142.5 -181.5q46 -79 80.5 -139t63 -100.5t52.5 -61t48 -20.5h32v485q0 37 17 57t49 20q64 0 64 -77v-485h32q30 0 64.5 39t68.5 94.5t62 104.5q32 56 70 113t80 105.5t89.5 78t98.5 29.5q37 0 59.5 -16.5t22.5 -49.5q0 -32 -23.5 -42.5t-60.5 -17.5q-66 -12 -116.5 -88.5
t-119.5 -200.5q-39 -69 -64 -107t-54 -72q85 -35 135.5 -90.5t80 -123.5t48.5 -140q14 -48 24 -83t25.5 -55.5t45.5 -26.5q18 -3 36 -7t30.5 -15.5t12.5 -38.5q0 -65 -88 -65q-87 0 -141 56.5t-81 142.5q-31 104 -62.5 182.5t-85.5 123t-155 44.5h-34v-476q0 -33 -18 -53
t-48 -20t-47 20t-17 53v476h-34q-78 0 -128.5 -30.5t-81.5 -80t-52 -106.5q-24 -68 -43.5 -128t-45 -106t-64.5 -72t-102 -26z" />
    <glyph glyph-name="uni0417" unicode="&#x417;" horiz-adv-x="1186" 
d="M315 -6q-119 0 -165 60t-46 209q0 81 63 81t63 -81v-36q0 -61 20.5 -84t78.5 -23h366q70 0 125 36t86.5 92.5t31.5 118.5q0 61 -30.5 112.5t-83.5 82.5t-121 31h-172q-83 0 -83 63t83 63h172q69 0 122 27t83 73.5t30 104.5q0 61 -31 113t-85.5 83.5t-126.5 31.5h-366
q-58 0 -78.5 -22.5t-20.5 -84.5v-36q0 -81 -63 -81t-63 81q0 150 46 209.5t165 59.5h394q104 0 184 -43.5t125.5 -120t45.5 -176.5q0 -92 -37.5 -164.5t-105.5 -119.5q68 -51 105.5 -128.5t37.5 -171.5q0 -100 -46.5 -181.5t-127 -130t-181.5 -48.5h-394z" />
    <glyph glyph-name="uni0418" unicode="&#x418;" horiz-adv-x="1284" 
d="M223 -20q-61 0 -61 78v1154q0 80 63 80t63 -83v-988l706 1029q30 42 69 42q59 0 59 -80v-1154q0 -78 -63 -78t-63 75v1001l-711 -1041q-14 -21 -26.5 -28t-35.5 -7z" />
    <glyph glyph-name="uni0419" unicode="&#x419;" horiz-adv-x="1284" 
d="M223 -20q-61 0 -61 78v1154q0 80 63 80t63 -83v-988l706 1029q30 42 69 42q59 0 59 -80v-1154q0 -78 -63 -78t-63 75v1001l-711 -1041q-14 -21 -26.5 -28t-35.5 -7zM521 1309q-107 0 -150 55t-43 190v65h126v-97q0 -53 16 -70t67 -17h204q52 0 66.5 17t14.5 70v97h126
v-65q0 -137 -41.5 -191t-151.5 -54h-234z" />
    <glyph glyph-name="uni041A" unicode="&#x41a;" horiz-adv-x="1169" 
d="M224 -20q-29 0 -45.5 19.5t-16.5 53.5v1087q0 35 17 56t48 21q61 0 61 -77v-485h177q34 0 71.5 37.5t80 101.5t89.5 145q27 47 59 96t69.5 91t82 67.5t95.5 25.5q82 0 82 -67q0 -37 -25 -46t-56 -13q-58 -7 -98 -58t-90 -137q-44 -77 -72 -124.5t-49.5 -79t-47.5 -58
t-68 -61.5l-2 36q54 -43 94.5 -91t76 -104t74.5 -123q57 -94 95.5 -136.5t88.5 -50.5q17 -2 35.5 -6t31 -16.5t12.5 -40.5q0 -63 -78 -63q-72 0 -139.5 54t-130.5 143q-24 38 -50.5 80t-52.5 82q-59 97 -103 143.5t-88 46.5h-164v-476q0 -33 -17 -53t-47 -20z" />
    <glyph glyph-name="uni041B" unicode="&#x41b;" horiz-adv-x="1167" 
d="M941 -20q-63 0 -63 80v1092h-405q-67 0 -92 -23t-25 -83v-789q0 -100 -24.5 -157.5t-77 -81.5t-135.5 -24t-83 63t84 63q57 0 77.5 22.5t20.5 81.5v791q0 100 22 157t74.5 81.5t144.5 24.5h545v-1218q0 -80 -63 -80z" />
    <glyph glyph-name="uni041C" unicode="&#x41c;" horiz-adv-x="1326" 
d="M225 -20q-63 0 -63 78v1154q0 80 59 80q40 0 69 -42l372 -543l374 543q29 42 67 42q61 0 61 -80v-1154q0 -78 -63 -78t-63 81v1000l-322 -476q-13 -20 -25 -26.5t-27 -6.5t-27.5 6.5t-26.5 26.5l-322 476v-1000q0 -81 -63 -81z" />
    <glyph glyph-name="uni041D" unicode="&#x41d;" horiz-adv-x="1284" 
d="M225 -20q-63 0 -63 78v1154q0 80 59 80q67 0 67 -80v-463h708v463q0 80 63 80t63 -80v-1154q0 -78 -63 -78t-63 78v565h-708v-565q0 -78 -63 -78z" />
    <glyph glyph-name="uni041E" unicode="&#x41e;" horiz-adv-x="1206" 
d="M603 -24q-143 0 -251 58.5t-168.5 166.5t-60.5 256v358q0 149 60.5 256.5t168.5 166t251 58.5t251.5 -58.5t168.5 -166.5t60 -256v-358q0 -146 -59 -254t-167 -167.5t-254 -59.5zM603 102q169 0 261.5 94t92.5 264v352q0 172 -91.5 265t-262.5 93q-168 0 -261 -93.5
t-93 -264.5v-352q0 -170 93 -264t261 -94z" />
    <glyph glyph-name="uni041F" unicode="&#x41f;" horiz-adv-x="1266" 
d="M226 -20q-63 0 -63 78v1220h940v-1220q0 -78 -63 -78t-63 78v1094h-688v-1094q0 -78 -63 -78z" />
    <glyph glyph-name="uni0420" unicode="&#x420;" horiz-adv-x="1100" 
d="M225 -20q-63 0 -63 73v1149q0 81 59 81h367q234 0 342 -69.5t108 -237.5q0 -156 -91 -239.5t-269 -83.5h-390v-600q0 -73 -63 -73zM288 779h300q115 0 186.5 13t104.5 54t33 124q0 76 -29.5 116.5t-100 55.5t-194.5 15h-300v-378z" />
    <glyph glyph-name="uni0421" unicode="&#x421;" horiz-adv-x="1203" 
d="M604 -6q-167 0 -269.5 32.5t-150 112t-47.5 220.5v554q0 140 46.5 219.5t145.5 112.5t257 33h300q82 0 128 -28.5t64.5 -77.5t18.5 -110q0 -100 -63 -100q-33 0 -47 22.5t-16 62.5q-1 56 -19.5 80.5t-79.5 24.5h-286q-127 0 -197 -16.5t-98 -68.5t-28 -156v-550
q0 -102 28 -153.5t102 -69.5t211 -18h268q61 0 79.5 24.5t19.5 80.5q3 45 19.5 65t43.5 20q31 0 47 -22.5t16 -68.5q0 -67 -18.5 -117.5t-64.5 -79t-128 -28.5h-282z" />
    <glyph glyph-name="uni0422" unicode="&#x422;" horiz-adv-x="980" 
d="M489 -20q-32 0 -49.5 19t-17.5 54v1099h-299q-36 0 -56.5 16.5t-20.5 46.5t20.5 46.5t56.5 16.5h732q77 0 77 -63t-77 -63h-296v-1099q0 -34 -18.5 -53.5t-51.5 -19.5z" />
    <glyph glyph-name="uni0423" unicode="&#x423;" horiz-adv-x="1075" 
d="M328 -18q-79 0 -125 29t-65 80.5t-19 116.5q0 90 63 90t63 -81q0 -59 18 -84t65 -25q46 0 72 50l73 148l-386 886q-13 30 -0.5 58t53.5 28q42 0 65 -50l348 -781l361 783q21 48 66 48q38 0 51 -24.5t2 -60.5l-517 -1109q-22 -48 -72 -75t-116 -27z" />
    <glyph glyph-name="uni0424" unicode="&#x424;" horiz-adv-x="1118" 
d="M564 -20q-33 0 -50 20t-17 53v93q-190 19 -304 145.5t-114 332.5v24q0 206 114 333t304 146v92q0 73 66 73q67 0 67 -75v-90q186 -22 297.5 -149t111.5 -330v-24q0 -202 -111.5 -329t-297.5 -149v-93q0 -73 -66 -73zM497 262v748q-139 -15 -215.5 -109.5t-76.5 -252.5
v-24q0 -160 75.5 -252.5t216.5 -109.5zM630 263q136 17 209.5 111.5t73.5 249.5v24q0 155 -73.5 248.5t-209.5 112.5v-746z" />
    <glyph glyph-name="uni0425" unicode="&#x425;" horiz-adv-x="1142" 
d="M132 -20q-42 0 -58.5 35.5t13.5 73.5l437 590v-90l-438 593q-19 26 -17.5 51.5t18.5 42.5t45 17q18 0 31.5 -11.5t26.5 -29.5l414 -568h-68l416 568q12 16 27.5 28t38.5 12q26 0 40.5 -17.5t15 -43t-17.5 -48.5l-438 -594v90l438 -590q20 -24 18.5 -49t-18.5 -42.5
t-46 -17.5q-27 0 -58 37l-416 569l68 1l-414 -570q-28 -37 -58 -37z" />
    <glyph glyph-name="uni0426" unicode="&#x426;" horiz-adv-x="1181" 
d="M1040 -190q-63 0 -63 81v103h-814v1163q0 81 63 81t63 -81v-1037h572v1037q0 81 63 81t63 -81v-1037q61 -2 88.5 -32.5t27.5 -97.5v-99q0 -81 -63 -81z" />
    <glyph glyph-name="uni0427" unicode="&#x427;" horiz-adv-x="1230" 
d="M1007 -20q-65 0 -65 80v385q-116 -116 -323 -116h-64q-157 0 -256 33t-145 113t-46 219v517q0 81 63 81t63 -80v-516q0 -101 27 -153t97 -70t197 -18h64q160 0 241.5 88.5t81.5 258.5v410q0 80 63 80t63 -78v-1154q0 -80 -61 -80z" />
    <glyph glyph-name="uni0428" unicode="&#x428;" horiz-adv-x="1410" 
d="M163 -6v1163q0 81 63 81t63 -81v-1037h353v1037q0 81 63 81t63 -81v-1037h353v1037q0 81 63 81t63 -81v-1163h-1084z" />
    <glyph glyph-name="uni0429" unicode="&#x429;" horiz-adv-x="1441" 
d="M1300 -190q-63 0 -63 81v103h-1074v1163q0 81 63 81t63 -81v-1037h350v1037q0 81 63 81t63 -81v-1037h356v1037q0 81 63 81t63 -81v-1037q61 -2 88.5 -32.5t27.5 -97.5v-99q0 -81 -63 -81z" />
    <glyph glyph-name="uni042A" unicode="&#x42a;" horiz-adv-x="1251" 
d="M367 -20q-62 0 -62 80v1092h-181q-83 0 -83 65q0 61 83 61h307v-335h303q129 0 230 -64.5t159 -174t58 -244.5q0 -134 -57.5 -243t-158 -173t-228.5 -64h-370zM431 106h306q98 0 169.5 47t110 127t38.5 180q0 101 -39 182t-111 128t-171 47h-303v-711z" />
    <glyph glyph-name="uni042B" unicode="&#x42b;" horiz-adv-x="1405" 
d="M221 -20q-59 0 -59 80v1145q0 73 63 73t63 -72v-263h300q130 0 232 -64.5t160 -174t58 -244.5t-58 -243.5t-159.5 -172.5t-232.5 -64h-367zM288 106h300q100 0 173 46.5t112 127t39 180.5q0 101 -39.5 182t-112 128t-172.5 47h-300v-711zM1180 -20q-63 0 -63 73v1164
q0 75 63 75t63 -75v-1164q0 -73 -63 -73z" />
    <glyph glyph-name="uni042C" unicode="&#x42c;" horiz-adv-x="1108" 
d="M221 -20q-59 0 -59 80v1145q0 73 63 73t63 -72v-263h300q130 0 231.5 -64t160 -173.5t58.5 -245.5q0 -135 -58 -243.5t-159.5 -172.5t-232.5 -64h-367zM288 106h300q100 0 173 47t112 127.5t39 180.5q0 101 -39 181.5t-112 127.5t-173 47h-300v-711z" />
    <glyph glyph-name="uni042D" unicode="&#x42d;" horiz-adv-x="1198" 
d="M594 -6h-282q-78 0 -124.5 27.5t-66.5 76t-20 111.5q0 51 14 75.5t48 24.5q27 0 40.5 -12.5t18 -32t5.5 -39.5q2 -31 7.5 -55t25.5 -37t66 -13h268q97 0 166.5 8t109.5 38q39 27 52 74.5t13 118.5v244h-517q-81 0 -81 65q0 61 81 61h517v187q0 82 -15.5 125.5t-51.5 67.5
q-40 28 -103 35.5t-171 7.5h-268q-46 0 -66 -12.5t-25.5 -36t-7.5 -55.5q-1 -30 -12.5 -58t-50.5 -28q-63 0 -63 106q0 58 19 105.5t65 76t127 28.5h282q167 0 270 -32t150 -111t47 -219v-560q0 -139 -47 -218t-150 -111.5t-270 -32.5z" />
    <glyph glyph-name="uni042E" unicode="&#x42e;" horiz-adv-x="1467" 
d="M869 -24q-143 0 -252 59.5t-170.5 167t-61.5 254.5v126h-97v-531q0 -72 -63 -72t-63 73v1164q0 75 62 75q31 0 47.5 -19t16.5 -55v-509h97v106q0 147 61.5 255t170.5 167t251 59t249 -59t167 -166.5t60 -255.5v-358q0 -145 -59 -253t-165.5 -168t-250.5 -60zM870 102
q166 0 257 94t91 264v352q0 169 -89 263.5t-258 94.5q-167 0 -262 -94.5t-95 -263.5v-352q0 -168 94.5 -263t261.5 -95z" />
    <glyph glyph-name="uni042F" unicode="&#x42f;" horiz-adv-x="1193" 
d="M95 -20q-84 0 -84 64q0 40 25.5 49t55.5 12q59 7 91 46.5t42 74.5l59 217q13 46 38.5 89.5t66.5 77.5q-111 40 -165.5 120t-54.5 196q0 175 114.5 263.5t335.5 88.5h353q59 0 59 -82v-1143q0 -73 -63 -73q-64 0 -64 73v524h-271q-92 0 -146.5 -35.5t-76.5 -116.5
l-53 -198q-30 -113 -102.5 -180t-159.5 -67zM619 703h285v449h-285q-164 0 -243 -53t-79 -172q0 -117 78.5 -170.5t243.5 -53.5z" />
    <glyph glyph-name="uni0430" unicode="&#x430;" horiz-adv-x="1128" 
d="M927 -20q-25 0 -37 17.5t-15.5 64.5t-4.5 134l18 -43q-58 -84 -148 -121.5t-214 -37.5h-186q-100 0 -162.5 68t-62.5 209q0 104 35 168t98 98.5t148.5 47t185.5 12.5h340l-57 -53v157q0 58 -20 79.5t-79 21.5h-282q-90 0 -143 -10t-76 -32t-24 -59q-2 -38 -13 -58
t-50 -20q-63 0 -63 86q0 112 92.5 165.5t262.5 53.5h310q119 0 165 -57.5t46 -202.5v-610q0 -78 -64 -78zM343 116h183q186 0 264 95t75 287l25 -23h-308q-118 0 -193.5 -13.5t-111.5 -55.5t-36 -127q0 -83 30 -123t72 -40z" />
    <glyph glyph-name="uni0431" unicode="&#x431;" horiz-adv-x="1244" 
d="M602 -6q-165 0 -268 32.5t-150 111.5t-47 218v555q0 113 41 188t134.5 115.5t249.5 51.5q68 7 163 9.5t205 2.5q83 0 83 -65q0 -30 -21 -45.5t-66 -15.5q-85 0 -140 -0.5t-90.5 -1.5t-63 -2t-58.5 -4q-100 -9 -169 -30t-104.5 -64.5t-35.5 -121.5h415q158 0 257 -32
t144.5 -110.5t45.5 -216.5v-216q0 -138 -47 -216.5t-149.5 -110.5t-268.5 -32h-60zM602 120h60q138 0 211 17.5t100.5 68.5t27.5 150v210q0 103 -28 153.5t-97.5 66.5t-195.5 16h-417v-446q0 -100 28 -150.5t101 -68t210 -17.5z" />
    <glyph glyph-name="uni0432" unicode="&#x432;" 
d="M145 -6v934h629q147 0 239 -66t92 -195q0 -78 -29 -122.5t-81 -71.5q110 -75 110 -211q0 -89 -42 -148.5t-116.5 -89.5t-172.5 -30h-629zM271 120h489q219 0 219 117q0 92 -50.5 134t-160.5 42h-497v-293zM271 539h497q118 0 165.5 29.5t47.5 116.5q0 117 -221 117h-489
v-263z" />
    <glyph glyph-name="uni0433" unicode="&#x433;" horiz-adv-x="978" 
d="M869 802h-504q-57 0 -78 -22.5t-21 -83.5v-638q0 -78 -63 -78t-63 78v610q0 145 46.5 202.5t164.5 57.5h518q81 0 81 -63t-81 -63z" />
    <glyph glyph-name="uni0434" unicode="&#x434;" horiz-adv-x="1138" 
d="M83 -190q-63 0 -63 81v99q0 132 120 130h58l-70 -30q217 342 215 838h561v-808h75q113 0 113 -130v-99q0 -81 -63 -81t-63 81v103h-820v-103q0 -81 -63 -81zM289 120h486v682h-300q-6 -372 -186 -682z" />
    <glyph glyph-name="uni0435" unicode="&#x435;" horiz-adv-x="1217" 
d="M584 -6q-166 0 -269 32t-150.5 110t-47.5 217v216q0 139 47.5 217.5t150.5 110t269 31.5h58q166 0 268.5 -32t149.5 -110t47 -217v-90h-864v-123q0 -100 28 -150.5t101.5 -68t211.5 -17.5h288q58 0 78.5 23.5t20.5 81.5q0 42 18 63.5t46 21.5q29 0 45.5 -22t16.5 -62
q0 -72 -18.5 -124t-64.5 -80t-128 -28h-302zM244 605h737q-6 114 -65 153q-36 25 -105 34.5t-169 9.5h-58q-102 0 -170 -8.5t-104 -32.5q-63 -38 -66 -156z" />
    <glyph glyph-name="uni0436" unicode="&#x436;" horiz-adv-x="1458" 
d="M158 -20q-83 0 -83 63t79 63q34 0 51.5 33.5t28.5 90.5q17 76 63 144.5t131 104.5q-43 53 -111 214q-23 51 -65 88t-91 37q-40 0 -63 16.5t-23 46.5q0 63 87 63q78 0 142.5 -36t100.5 -95q48 -74 81 -162q20 -55 43.5 -90t52.5 -36h81v343q0 35 18 54.5t50 19.5
q30 0 47 -19.5t16 -54.5v-343h82q29 1 52 35.5t45 90.5q21 57 50.5 114t78.5 102q36 38 87 57.5t109 19.5q85 0 85 -63t-83 -63q-51 0 -93.5 -36.5t-64.5 -87.5q-68 -159 -112 -214q88 -38 134.5 -106t60.5 -144q13 -62 30 -93t49 -31q37 0 58 -17t21 -46q0 -35 -24.5 -49
t-64.5 -14q-64 0 -104 34t-60 87q-21 54 -42.5 123t-82.5 122q-65 63 -211 68v-359q0 -34 -17.5 -54.5t-48.5 -20.5q-29 0 -47 20.5t-18 54.5v359q-80 -3 -134 -22t-89 -49q-35 -32 -52.5 -73.5t-30.5 -88t-33 -91.5q-19 -53 -59 -81t-107 -29z" />
    <glyph glyph-name="uni0437" unicode="&#x437;" horiz-adv-x="1194" 
d="M324 -6q-119 0 -165 60t-46 209q0 81 63 81t63 -81v-36q0 -61 20.5 -84t78.5 -23h366q243 0 243 111q0 95 -55.5 138.5t-179.5 43.5h-172q-83 0 -83 59q0 67 83 67h172q88 0 139.5 13t74.5 46t23 93q0 111 -245 111h-366q-58 0 -78.5 -22.5t-20.5 -84.5v-36
q0 -81 -63 -81t-63 81q0 150 46 209.5t165 59.5h394q165 0 260 -64t95 -196q0 -78 -28.5 -123t-81.5 -72q110 -75 110 -213q0 -137 -95 -201.5t-260 -64.5h-394z" />
    <glyph glyph-name="uni0438" unicode="&#x438;" horiz-adv-x="1229" 
d="M1022 -20q-63 0 -63 83v688l-686 -757h-128v868q0 80 63 80t63 -83v-696l693 765h121v-868q0 -80 -63 -80z" />
    <glyph glyph-name="uni0439" unicode="&#x439;" horiz-adv-x="1229" 
d="M1022 -20q-63 0 -63 83v688l-686 -757h-128v868q0 80 63 80t63 -83v-696l693 765h121v-868q0 -80 -63 -80zM504 993q-107 0 -150 55t-43 190v65h126v-97q0 -53 16 -70t67 -17h204q52 0 66.5 17t14.5 70v97h126v-65q0 -137 -41.5 -191t-151.5 -54h-234z" />
    <glyph glyph-name="uni043A" unicode="&#x43a;" horiz-adv-x="1146" 
d="M205 -20q-29 0 -45.5 20t-16.5 53v815q0 36 17.5 55t47.5 19q29 0 45 -19.5t16 -54.5v-343h207q31 0 64 38t77 109q37 56 84.5 120t124.5 109q75 43 163 43q42 0 65 -16t23 -47q0 -36 -25 -49.5t-58 -13.5q-63 -2 -113.5 -44.5t-102.5 -119.5q-30 -49 -51 -80t-39 -53
t-39 -44q94 -38 152 -99t83 -128q28 -72 51.5 -106.5t58.5 -37.5q36 0 59.5 -15t23.5 -47q0 -64 -85 -64q-70 0 -117 33t-77 87q-21 35 -41 76t-50.5 83.5t-84.5 79.5q-82 60 -252 60h-101v-347q0 -34 -16.5 -53t-47.5 -19z" />
    <glyph glyph-name="uni043B" unicode="&#x43b;" horiz-adv-x="1157" 
d="M950 -20q-63 0 -63 80v742h-411q-67 0 -91 -22.5t-24 -83.5v-442q0 -99 -24 -156t-74 -81t-129 -24q-41 0 -65.5 15t-24.5 49q0 63 85 63q60 0 83 23t23 81v444q0 100 20 156.5t69.5 80t136.5 23.5h552v-867q0 -81 -63 -81z" />
    <glyph glyph-name="uni043C" unicode="&#x43c;" horiz-adv-x="1288" 
d="M206 -20q-63 0 -63 78v804q0 80 59 80q40 0 69 -42l372 -543l374 543q29 42 67 42q61 0 61 -80v-804q0 -78 -63 -78t-63 81v650l-330 -489q-14 -20 -43 -20q-13 0 -26 4.5t-20 15.5l-331 489v-650q0 -81 -63 -81z" />
    <glyph glyph-name="uni043D" unicode="&#x43d;" 
d="M206 -20q-63 0 -63 78v804q0 80 59 80q67 0 67 -80v-311h688v311q0 80 63 80t63 -80v-804q0 -78 -63 -78t-63 78v367h-688v-367q0 -78 -63 -78z" />
    <glyph glyph-name="uni043E" unicode="&#x43e;" horiz-adv-x="1224" 
d="M584 -6q-166 0 -269 32t-150.5 110t-47.5 217v216q0 139 47.5 217.5t150.5 110t269 31.5h58q166 0 268.5 -32t149.5 -110t47 -217v-216q0 -138 -47 -216.5t-149.5 -110.5t-268.5 -32h-58zM584 120h58q138 0 211 17.5t100.5 68.5t27.5 150v210q0 104 -28.5 154t-102 66
t-208.5 16h-58q-136 0 -210 -16t-102.5 -66.5t-28.5 -153.5v-210q0 -100 28 -150.5t101.5 -68t211.5 -17.5z" />
    <glyph glyph-name="uni043F" unicode="&#x43f;" horiz-adv-x="1228" 
d="M207 -20q-63 0 -63 78v870h940v-870q0 -78 -63 -78t-63 78v744h-688v-744q0 -78 -63 -78z" />
    <glyph glyph-name="uni0440" unicode="&#x440;" horiz-adv-x="1251" 
d="M205 -370q-61 0 -61 81v1153q0 78 64 78q33 0 47 -21.5t14 -70.5v-98l-22 29q60 76 151.5 111.5t212.5 35.5h58q166 0 268.5 -32t149.5 -110t47 -217v-216q0 -138 -47 -216.5t-148.5 -110.5t-266.5 -32h-402v-283q0 -81 -65 -81zM270 120h402q137 0 209.5 17.5t99.5 68.5
t27 150v210q0 104 -28.5 154t-102 66t-208.5 16h-58q-170 0 -255.5 -85t-85.5 -253v-344z" />
    <glyph glyph-name="uni0441" unicode="&#x441;" horiz-adv-x="1188" 
d="M584 -6q-166 0 -269 32t-150.5 110t-47.5 217v216q0 139 47.5 217.5t150.5 110t269 31.5h286q79 0 124.5 -28.5t64 -78t18.5 -112.5q0 -49 -15.5 -73t-47.5 -24q-34 0 -48.5 25.5t-14.5 58.5q0 52 -18 79t-81 27h-268q-136 0 -210 -16t-102.5 -66.5t-28.5 -153.5v-210
q0 -100 28 -150.5t101.5 -68t211.5 -17.5h268q64 0 80.5 26t18.5 79q2 43 18 64t45 21q30 0 46.5 -23t16.5 -74q0 -67 -20 -116t-66 -76t-125 -27h-282z" />
    <glyph glyph-name="uni0442" unicode="&#x442;" horiz-adv-x="941" 
d="M471 -20q-67 0 -67 72v750h-299q-77 0 -77 63t77 63h732q77 0 77 -63t-77 -63h-297v-750q0 -34 -18 -53t-51 -19z" />
    <glyph glyph-name="uni0443" unicode="&#x443;" horiz-adv-x="1268" 
d="M341 -416q-79 0 -124 28.5t-64 78.5t-19 112q0 50 16 73.5t47 23.5q36 0 49.5 -24t13.5 -57q1 -54 18.5 -81.5t80.5 -27.5h558q51 0 66 17t15 72v311q-116 -116 -340 -116h-58q-166 0 -268.5 32t-150 110.5t-47.5 216.5v509q0 80 63 80t63 -80v-506q0 -100 28 -150.5
t101.5 -68t210.5 -17.5h58q167 0 253.5 86.5t86.5 253.5v402q0 80 63 80t63 -80v-1031q0 -136 -41.5 -191.5t-151.5 -55.5h-590z" />
    <glyph glyph-name="uni0444" unicode="&#x444;" horiz-adv-x="1556" 
d="M778 -370q-63 0 -63 81v395q-54 -59 -113 -85.5t-142 -26.5q-346 0 -346 399v136q0 399 346 399q83 0 142 -26t113 -85v394q0 81 63 81t63 -81v-394q54 59 113.5 85t141.5 26q346 0 346 -399v-136q0 -196 -83 -297.5t-263 -101.5q-82 0 -141.5 26.5t-113.5 85.5v-395
q0 -81 -63 -81zM468 121q90 0 144.5 48t78.5 126t24 167q0 97 -25.5 174t-82 121.5t-148.5 44.5q-76 0 -120.5 -22.5t-65.5 -61.5t-27 -87.5t-6 -101.5v-136q0 -144 48.5 -207.5t179.5 -64.5zM1099 120q89 0 136 31t64 91.5t17 150.5v136q0 144 -47.5 209t-178.5 65
q-87 0 -142 -46t-81 -123.5t-26 -171.5q0 -98 27 -175.5t84 -122t147 -44.5z" />
    <glyph glyph-name="uni0445" unicode="&#x445;" horiz-adv-x="1046" 
d="M143 -28q-28 0 -48 17t-20 42q0 13 5.5 26t17.5 26l337 377l-337 380q-23 26 -23 51q0 26 20 42.5t47 16.5q30 0 53 -26l330 -377l329 377q24 26 51 26q28 0 47 -16.5t19 -42.5q0 -25 -22 -51l-337 -380l336 -377q12 -13 17.5 -26t5.5 -26q0 -25 -19.5 -42t-47.5 -17
q-27 0 -50 26l-329 377l-331 -377q-23 -26 -51 -26z" />
    <glyph glyph-name="uni0446" unicode="&#x446;" horiz-adv-x="1147" 
d="M1022 -190q-63 0 -63 81v103h-814v870q0 78 63 78t63 -78v-744h572v744q0 78 63 78t63 -79v-806l-50 57h54q112 -1 112 -124v-99q0 -81 -63 -81z" />
    <glyph glyph-name="uni0447" unicode="&#x447;" horiz-adv-x="1196" 
d="M992 -20q-65 0 -65 79v302q-116 -116 -323 -116h-64q-157 0 -256 33t-145 112t-46 217v257q0 78 63 78t63 -78v-254q0 -100 27.5 -151.5t97 -69.5t196.5 -18h64q160 0 241.5 87.5t81.5 256.5v149q0 78 63 78t63 -78v-804q0 -80 -61 -80z" />
    <glyph glyph-name="uni0448" unicode="&#x448;" horiz-adv-x="1294" 
d="M145 -6v870q0 78 63 78t63 -78v-744h313v744q0 78 63 78t63 -78v-744h313v744q0 78 63 78t63 -78v-870h-1004z" />
    <glyph glyph-name="uni0449" unicode="&#x449;" horiz-adv-x="1327" 
d="M1202 -190q-63 0 -63 81v103h-994v870q0 78 63 78t63 -78v-744h310v744q0 78 63 78t63 -78v-744h316v744q0 78 63 78t63 -79v-806l-51 57h55q112 0 112 -124v-99q0 -81 -63 -81z" />
    <glyph glyph-name="uni044A" unicode="&#x44a;" horiz-adv-x="1207" 
d="M310 -6v808h-181q-83 0 -83 67q0 59 83 59h307v-389h344q97 0 179.5 -27.5t132.5 -87t50 -157.5q0 -94 -43 -154.5t-123 -89.5t-189 -29h-477zM436 120h337q71 0 127 17t88 48.5t32 75.5q0 76 -62.5 113t-184.5 39h-337v-293z" />
    <glyph glyph-name="uni044B" unicode="&#x44b;" horiz-adv-x="1389" 
d="M145 -6v868q0 80 63 80t63 -80v-323h427q100 0 174 -29.5t115.5 -89.5t41.5 -153q0 -92 -41 -152.5t-115.5 -90t-174.5 -30.5h-553zM271 120h411q100 0 161 32.5t61 110.5q0 66 -30 98t-80.5 42t-111.5 10h-411v-293zM1183 -35q-62 0 -62 75v840q0 37 16.5 57t46.5 20
t46.5 -20t16.5 -57v-840q0 -75 -64 -75z" />
    <glyph glyph-name="uni044C" unicode="&#x44c;" horiz-adv-x="1093" 
d="M145 -6v868q0 80 63 80t63 -80v-323h427q100 0 174 -29.5t115.5 -89.5t41.5 -153q0 -92 -41 -152.5t-115.5 -90t-174.5 -30.5h-553zM271 120h411q101 0 161.5 32.5t60.5 110.5q0 66 -30 98t-80 42t-112 10h-411v-293z" />
    <glyph glyph-name="uni044D" unicode="&#x44d;" horiz-adv-x="1185" 
d="M601 -6h-282q-82 0 -128 29t-64.5 81.5t-18.5 122.5q0 40 17.5 61.5t45.5 21.5t45.5 -21.5t17.5 -63.5q0 -57 21.5 -81t77.5 -24h268q138 0 211.5 17.5t101.5 67.5t28 148v60h-407q-83 0 -83 59q0 67 83 67h407v31q0 101 -28.5 151t-102 65.5t-210.5 15.5h-268
q-56 0 -77.5 -23.5t-21.5 -81.5q0 -85 -63 -85t-63 93q0 66 19 116.5t65 78.5t127 28h282q167 0 270 -31.5t150 -110t47 -217.5v-216q0 -139 -47 -217t-150 -110t-270 -32z" />
    <glyph glyph-name="uni044E" unicode="&#x44e;" horiz-adv-x="1397" 
d="M206 -20q-63 0 -63 72v816q0 36 16.5 55t46.5 19t46.5 -19t16.5 -55v-329h109v32q0 137 48 215t148.5 109.5t257.5 31.5q158 0 257 -32t144.5 -110t45.5 -216v-216q0 -138 -45.5 -216t-144 -110.5t-255.5 -32.5q-160 0 -260.5 33t-148 111.5t-47.5 214.5v60h-109v-361
q0 -72 -63 -72zM837 120q127 0 195.5 18t94.5 68.5t26 149.5v210q0 103 -27.5 153t-96 66.5t-192.5 16.5q-129 0 -200.5 -16.5t-100 -67.5t-28.5 -152v-210q0 -98 28 -149t99.5 -69t201.5 -18z" />
    <glyph glyph-name="uni044F" unicode="&#x44f;" horiz-adv-x="1127" 
d="M127 -22q-88 0 -88 63t81 63q47 0 83 38.5t55 101.5q16 54 37 91.5t55 70.5q-100 23 -144.5 80t-44.5 156q0 118 43.5 179.5t144.5 84t272 22.5h303q28 0 43.5 -19.5t15.5 -56.5v-804q0 -32 -17 -50t-47 -18q-28 0 -45 18.5t-17 49.5v335h-246q-73 0 -116.5 -15t-69 -51
t-44.5 -99q-30 -104 -101.5 -172t-152.5 -68zM557 509h300v293h-300q-96 0 -155.5 -8t-87 -38.5t-27.5 -97.5q0 -69 27.5 -100.5t87 -40t155.5 -8.5z" />
    <glyph glyph-name="uni0450" unicode="&#x450;" horiz-adv-x="1217" 
d="M654 999q-25 0 -56 34l-192 230q-21 25 -21 51q0 27 19 45t44 18q27 0 57 -34l192 -230q20 -27 20 -51q0 -26 -19 -44.5t-44 -18.5zM584 -6q-166 0 -269 32t-150.5 110t-47.5 217v216q0 139 47.5 217.5t150.5 110t269 31.5h58q166 0 268.5 -32t149.5 -110t47 -217v-90
h-864v-123q0 -100 28 -150.5t101.5 -68t211.5 -17.5h288q58 0 78.5 23.5t20.5 81.5q0 42 18 63.5t46 21.5q29 0 45.5 -22t16.5 -62q0 -72 -18.5 -124t-64.5 -80t-128 -28h-302zM244 605h737q-6 114 -65 153q-36 25 -105 34.5t-169 9.5h-58q-102 0 -170 -8.5t-104 -32.5
q-63 -38 -66 -156z" />
    <glyph glyph-name="uni0451" unicode="&#x451;" horiz-adv-x="1217" 
d="M769 1038q-41 0 -76 28.5t-35 64.5q1 37 36 65t76 28q42 0 78 -28t36 -65q0 -36 -36 -64.5t-79 -28.5zM453 1038q-41 0 -76 28.5t-35 64.5q1 37 36 65t76 28q42 0 78 -28t36 -65q0 -36 -36 -64.5t-79 -28.5zM584 -6q-166 0 -269 32t-150.5 110t-47.5 217v216
q0 139 47.5 217.5t150.5 110t269 31.5h58q166 0 268.5 -32t149.5 -110t47 -217v-90h-864v-123q0 -100 28 -150.5t101.5 -68t211.5 -17.5h288q58 0 78.5 23.5t20.5 81.5q0 42 18 63.5t46 21.5q29 0 45.5 -22t16.5 -62q0 -72 -18.5 -124t-64.5 -80t-128 -28h-302zM244 605h737
q-6 114 -65 153q-36 25 -105 34.5t-169 9.5h-58q-102 0 -170 -8.5t-104 -32.5q-63 -38 -66 -156z" />
    <glyph glyph-name="uni0452" unicode="&#x452;" horiz-adv-x="1269" 
d="M918 -416q-54 0 -77 17t-23 45q0 61 92 64q34 2 55.5 9t31.5 30t10 70v745q0 104 -29 154.5t-102.5 67t-207.5 16.5h-58q-168 0 -254.5 -86.5t-86.5 -254.5v-403q0 -78 -63 -78t-63 78v952q-34 2 -53 19t-19 46q0 31 20 44.5t52 17.5v72q0 83 60 83q66 0 66 -83v-72h420
q43 0 67 -18t24 -49q0 -28 -24.5 -44.5t-66.5 -16.5h-420v-197q124 116 341 116h58q166 0 268.5 -32t149.5 -111t47 -219v-713q0 -147 -49.5 -208t-165.5 -61z" />
    <glyph glyph-name="uni0453" unicode="&#x453;" horiz-adv-x="978" 
d="M203 -20q-63 0 -63 78v610q0 145 46.5 202.5t164.5 57.5h518q81 0 81 -63t-81 -63h-504q-57 0 -78 -22.5t-21 -83.5v-638q0 -78 -63 -78zM535 999q-25 0 -44.5 18.5t-19.5 44.5q0 12 5 26t15 26l193 229q29 34 56 34q26 0 44.5 -18t18.5 -45q0 -26 -20 -51l-192 -230
q-30 -34 -56 -34z" />
    <glyph glyph-name="uni0454" unicode="&#x454;" horiz-adv-x="1185" 
d="M584 -6q-166 0 -269 32t-150.5 110t-47.5 217v216q0 139 47.5 217.5t150.5 110t269 31.5h282q82 0 128 -28t64.5 -78.5t18.5 -116.5q0 -93 -63 -93t-63 85q0 58 -21 81.5t-78 23.5h-268q-136 0 -210 -15.5t-102.5 -65.5t-28.5 -151v-31h407q83 0 83 -67q0 -59 -83 -59
h-407v-60q0 -98 28 -148t102 -67.5t211 -17.5h268q58 0 78.5 24t20.5 81q0 42 18 63.5t45 21.5q29 0 46 -21.5t17 -61.5q0 -70 -18.5 -122.5t-64.5 -81.5t-128 -29h-282z" />
    <glyph glyph-name="uni0455" unicode="&#x455;" horiz-adv-x="1191" 
d="M325 -6q-80 0 -126 27.5t-65.5 77t-19.5 113.5q0 54 12.5 75t47.5 21q37 0 51.5 -21.5t14.5 -57.5q2 -56 19 -82.5t80 -26.5h506q107 0 107 134q0 72 -31 113.5t-86 41.5h-452q-131 0 -200 68.5t-69 199.5q0 127 71 189t228 62h454q79 0 124.5 -28.5t64 -78t18.5 -112.5
q0 -49 -15.5 -73t-47.5 -24q-34 0 -48.5 25.5t-14.5 58.5q0 52 -18 79t-81 27h-502q-107 0 -107 -124q0 -68 31.5 -105.5t85.5 -37.5h454q132 0 199.5 -71.5t67.5 -208.5q0 -132 -72.5 -196.5t-224.5 -64.5h-456z" />
    <glyph glyph-name="uni0456" unicode="&#x456;" horiz-adv-x="408" 
d="M203 -35q-62 0 -62 75v840q0 37 16.5 57t46.5 20t46.5 -20t16.5 -57v-840q0 -75 -64 -75zM203 1109q-41 0 -76.5 28.5t-35.5 64.5q1 37 35.5 65t75.5 28q43 0 79 -28t36 -65q0 -39 -38.5 -66t-75.5 -27z" />
    <glyph glyph-name="uni0457" unicode="&#x457;" horiz-adv-x="408" 
d="M203 -35q-62 0 -62 75v840q0 37 16.5 57t46.5 20t46.5 -20t16.5 -57v-840q0 -75 -64 -75zM44 1067q-41 0 -76 28.5t-35 64.5q1 37 36 65t76 28q42 0 78 -28t36 -65q0 -36 -36 -64.5t-79 -28.5zM360 1067q-41 0 -76 28.5t-35 64.5q1 37 36 65t76 28q42 0 78 -28t36 -65
q0 -36 -36 -64.5t-79 -28.5z" />
    <glyph glyph-name="uni0458" unicode="&#x458;" horiz-adv-x="414" 
d="M-167 -356q-83 0 -83 63t83 63q123 0 190.5 17t94 66t26.5 147v859q0 83 63 83t63 -83v-859q0 -138 -44.5 -215.5t-140.5 -109t-252 -31.5zM208 1109q-40 0 -77 28t-37 65t36 65t77 28q42 0 77.5 -28t35.5 -65q0 -39 -38 -66t-74 -27z" />
    <glyph glyph-name="uni0459" unicode="&#x459;" horiz-adv-x="1540" 
d="M138 -6q-83 0 -83 63t85 63q57 0 77 22.5t20 81.5v444q0 99 22 155.5t74.5 80.5t144.5 24h459v-389h202q99 0 174.5 -28t117.5 -88t42 -156q0 -94 -43 -154.5t-123 -89.5t-189 -29h-307v808h-319q-67 0 -92 -23t-25 -83l-8 -442q0 -100 -23.5 -157t-74 -80t-131.5 -23z
M937 120h167q74 0 129.5 17t85.5 48.5t30 74.5q0 95 -67 123t-178 30h-167v-293z" />
    <glyph glyph-name="uni045A" unicode="&#x45a;" horiz-adv-x="1625" 
d="M206 -20q-63 0 -63 78v804q0 80 61 80q65 0 65 -80v-323h616v323q0 80 64 80q63 0 63 -80v-323h191q94 0 176 -28t132 -89t50 -161q0 -90 -43 -149t-123 -88.5t-189 -29.5h-321v419h-616v-355q0 -78 -63 -78zM1011 120h181q123 0 184 39t61 110q0 59 -34 90t-90 42.5
t-121 11.5h-181v-293z" />
    <glyph glyph-name="uni045B" unicode="&#x45b;" horiz-adv-x="1267" 
d="M206 -20q-63 0 -63 78v967q-34 2 -53 19t-19 46q0 30 20 44t52 18v57q0 83 59 83q67 0 67 -83v-57h420q43 0 67 -18t24 -50q0 -27 -24.5 -43.5t-66.5 -16.5h-420v-212q124 116 341 116h58q166 0 268.5 -32t149.5 -110t47 -217v-511q0 -78 -63 -78t-63 78v508
q0 104 -28.5 154t-102 66t-208.5 16h-58q-168 0 -254.5 -86.5t-86.5 -254.5v-403q0 -78 -63 -78z" />
    <glyph glyph-name="uni045C" unicode="&#x45c;" horiz-adv-x="1146" 
d="M514 999q-25 0 -44.5 18.5t-19.5 44.5q0 12 5 25.5t15 25.5l193 230q30 34 56 34t44.5 -18t18.5 -45q0 -26 -20 -51l-192 -230q-30 -34 -56 -34zM205 -20q-29 0 -45.5 20t-16.5 53v815q0 36 17.5 55t47.5 19q29 0 45 -19.5t16 -54.5v-343h207q31 0 64 38t77 109
q37 56 84.5 120t124.5 109q75 43 163 43q42 0 65 -16t23 -47q0 -36 -25 -49.5t-58 -13.5q-63 -2 -113.5 -44.5t-102.5 -119.5q-30 -49 -51 -80t-39 -53t-39 -44q94 -38 152 -99t83 -128q28 -72 51.5 -106.5t58.5 -37.5q36 0 59.5 -15t23.5 -47q0 -64 -85 -64q-70 0 -117 33
t-77 87q-21 35 -41 76t-50.5 83.5t-84.5 79.5q-82 60 -252 60h-101v-347q0 -34 -16.5 -53t-47.5 -19z" />
    <glyph glyph-name="uni045E" unicode="&#x45e;" horiz-adv-x="1268" 
d="M516 993q-107 0 -150 55t-43 190v65h126v-97q0 -53 16 -70t67 -17h204q52 0 66.5 17t14.5 70v97h126v-65q0 -137 -41.5 -191t-151.5 -54h-234zM341 -416q-79 0 -124 28.5t-64 78.5t-19 112q0 50 16 73.5t47 23.5q36 0 49.5 -24t13.5 -57q1 -54 18.5 -81.5t80.5 -27.5h558
q51 0 66 17t15 72v311q-116 -116 -340 -116h-58q-166 0 -268.5 32t-150 110.5t-47.5 216.5v509q0 80 63 80t63 -80v-506q0 -100 28 -150.5t101.5 -68t210.5 -17.5h58q167 0 253.5 86.5t86.5 253.5v402q0 80 63 80t63 -80v-1031q0 -136 -41.5 -191.5t-151.5 -55.5h-590z" />
    <glyph glyph-name="uni045F" unicode="&#x45f;" horiz-adv-x="1230" 
d="M615 -190q-63 0 -63 81v103h-407v870q0 78 63 78t63 -78v-744h688v744q0 78 63 78t63 -78v-870h-407v-103q0 -81 -63 -81z" />
    <glyph glyph-name="uni0490" unicode="&#x490;" horiz-adv-x="1141" 
d="M221 -20q-63 0 -63 78v957q0 146 46.5 204.5t164.5 58.5h595v143q0 81 63 81t63 -81v-269h-707q-57 0 -78 -22.5t-21 -83.5v-988q0 -78 -63 -78z" />
    <glyph glyph-name="uni0491" unicode="&#x491;" horiz-adv-x="988" 
d="M203 -20q-63 0 -63 78v610q0 145 46.5 202.5t164.5 57.5h473v143q0 81 63 81t63 -81v-269h-585q-57 0 -78 -22.5t-21 -83.5v-638q0 -78 -63 -78z" />
    <glyph glyph-name="uni1E9E" horiz-adv-x="1162" 
d="M257 -20q-27 0 -45 18t-18 45v917q0 180 85 264.5t264 84.5h16q173 0 257.5 -79t89.5 -247q0 -24 -7 -42t-23 -37l-123 -135q131 -100 190 -207t59 -241q0 -174 -83 -257.5t-258 -83.5h-140q-27 0 -45 18t-18 45q0 28 18 45.5t45 17.5h140q123 0 169 47t46 168
q0 115 -57.5 204t-196.5 182v102l158 177q-3 112 -52 154.5t-169 42.5h-16q-126 0 -174.5 -48t-48.5 -175v-917q0 -27 -18 -45t-45 -18z" />
    <glyph glyph-name="endash" unicode="&#x2013;" horiz-adv-x="1154" 
d="M210 486q-56 0 -56 56t56 56h734q56 0 56 -56t-56 -56h-734z" />
    <glyph glyph-name="emdash" unicode="&#x2014;" horiz-adv-x="1656" 
d="M210 483q-23 0 -39.5 16.5t-16.5 39.5q0 24 16.5 40t39.5 16h1236q24 0 40 -16t16 -40q0 -23 -16 -39.5t-40 -16.5h-1236z" />
    <glyph glyph-name="uni2015" unicode="&#x2015;" horiz-adv-x="2056" 
d="M210 483q-23 0 -39.5 16.5t-16.5 39.5q0 24 16.5 40t39.5 16h1636q24 0 40 -16t16 -40q0 -23 -16 -39.5t-40 -16.5h-1636z" />
    <glyph glyph-name="quoteleft" unicode="&#x2018;" horiz-adv-x="480" 
d="M271 1391q31 0 48.5 -22.5t2.5 -57.5l-97 -226l-104 44l97 225q8 18 21.5 27.5t31.5 9.5zM221 1167q65 0 65 -66v-42q0 -64 -65 -64h-41q-63 0 -63 64v42q0 66 63 66h41z" />
    <glyph glyph-name="quoteright" unicode="&#x2019;" horiz-adv-x="438" 
d="M130 987q-30 0 -48 23t-3 57l97 226l104 -44l-97 -225q-7 -18 -20.5 -27.5t-32.5 -9.5zM180 1211q-65 0 -65 66v42q0 64 65 64h41q63 0 63 -64v-42q0 -66 -63 -66h-41z" />
    <glyph glyph-name="quotesinglbase" unicode="&#x201a;" horiz-adv-x="438" 
d="M130 -225q-30 0 -48 23t-3 57l97 226l104 -44l-97 -225q-7 -18 -20.5 -27.5t-32.5 -9.5zM180 -1q-65 0 -65 66v42q0 64 65 64h41q63 0 63 -64v-42q0 -66 -63 -66h-41z" />
    <glyph glyph-name="quotedblleft" unicode="&#x201c;" horiz-adv-x="760" 
d="M551 1391q31 0 48.5 -22.5t2.5 -57.5l-97 -226l-104 44l97 225q8 18 21.5 27.5t31.5 9.5zM501 1167q65 0 65 -66v-42q0 -64 -65 -64h-41q-63 0 -63 64v42q0 66 63 66h41zM271 1391q31 0 48.5 -22.5t2.5 -57.5l-97 -226l-104 44l97 225q8 18 21.5 27.5t31.5 9.5zM221 1167
q65 0 65 -66v-42q0 -64 -65 -64h-41q-63 0 -63 64v42q0 66 63 66h41z" />
    <glyph glyph-name="quotedblright" unicode="&#x201d;" horiz-adv-x="738" 
d="M430 987q-30 0 -48 23t-3 57l97 226l104 -44l-97 -225q-7 -18 -20.5 -27.5t-32.5 -9.5zM480 1211q-65 0 -65 66v42q0 64 65 64h41q63 0 63 -64v-42q0 -66 -63 -66h-41zM130 987q-30 0 -48 23t-3 57l97 226l104 -44l-97 -225q-7 -18 -20.5 -27.5t-32.5 -9.5zM180 1211
q-65 0 -65 66v42q0 64 65 64h41q63 0 63 -64v-42q0 -66 -63 -66h-41z" />
    <glyph glyph-name="quotedblbase" unicode="&#x201e;" horiz-adv-x="738" 
d="M430 -225q-30 0 -48 23t-3 57l97 226l104 -44l-97 -225q-7 -18 -20.5 -27.5t-32.5 -9.5zM480 -1q-65 0 -65 66v42q0 64 65 64h41q63 0 63 -64v-42q0 -66 -63 -66h-41zM130 -225q-30 0 -48 23t-3 57l97 226l104 -44l-97 -225q-7 -18 -20.5 -27.5t-32.5 -9.5zM180 -1
q-65 0 -65 66v42q0 64 65 64h41q63 0 63 -64v-42q0 -66 -63 -66h-41z" />
    <glyph glyph-name="dagger" unicode="&#x2020;" horiz-adv-x="758" 
d="M442 -337q0 -63 -63 -63t-63 63v1179h-153q-63 0 -63 63t63 63h153v363q0 63 63 63t63 -63v-363h153q63 0 63 -63t-63 -63h-153v-1179z" />
    <glyph glyph-name="daggerdbl" unicode="&#x2021;" horiz-adv-x="758" 
d="M442 -337q0 -63 -63 -63t-63 63v337h-153q-63 0 -63 63t63 63h153v716h-153q-63 0 -63 63t63 63h153v370q0 63 63 63t63 -63v-370h153q63 0 63 -63t-63 -63h-153v-716h153q63 0 63 -63t-63 -63h-153v-337z" />
    <glyph glyph-name="bullet" unicode="&#x2022;" horiz-adv-x="646" 
d="M284 364q-130 0 -130 132v84q0 128 130 128h82q126 0 126 -128v-84q0 -132 -126 -132h-82z" />
    <glyph glyph-name="ellipsis" unicode="&#x2026;" horiz-adv-x="1261" 
d="M611 0q-65 0 -65 66v42q0 64 65 64h41q63 0 63 -64v-42q0 -66 -63 -66h-41zM219 0q-65 0 -65 66v42q0 64 65 64h41q63 0 63 -64v-42q0 -66 -63 -66h-41zM1003 0q-65 0 -65 66v42q0 64 65 64h41q63 0 63 -64v-42q0 -66 -63 -66h-41z" />
    <glyph glyph-name="perthousand" unicode="&#x2030;" horiz-adv-x="2262" 
d="M382 624q-136 0 -202 66.5t-66 202.5v150q0 138 66 203t202 65h32q137 0 202.5 -66t65.5 -202v-148q0 -137 -65.5 -204t-202.5 -67h-32zM234 893q0 -86 31.5 -117t116.5 -31h32q86 0 117 31.5t31 118.5v148q0 86 -31 116.5t-117 30.5h-32q-85 0 -116.5 -30t-31.5 -117
v-150zM1180 0q-136 0 -202 66t-66 202v150q0 139 66 203.5t202 64.5h32q137 0 202.5 -65.5t65.5 -202.5v-148q0 -137 -65.5 -203.5t-202.5 -66.5h-32zM1032 268q0 -85 31.5 -116.5t116.5 -31.5h32q86 0 117 32t31 118v148q0 86 -31 117t-117 31h-32q-85 0 -116.5 -30
t-31.5 -118v-150zM1848 0q-136 0 -202 66t-66 202v150q0 139 66 203.5t202 64.5h32q137 0 202.5 -65.5t65.5 -202.5v-148q0 -137 -65.5 -203.5t-202.5 -66.5h-32zM1700 268q0 -85 31.5 -116.5t116.5 -31.5h32q86 0 117 32t31 118v148q0 86 -31 117t-117 31h-32
q-85 0 -116.5 -30t-31.5 -118v-150zM330 -19q-26 0 -44.5 18.5t-18.5 44.5q0 11 3.5 21t8.5 18l922 1220q20 26 51 26q27 0 45 -18t18 -45q0 -10 -3 -20t-9 -19l-922 -1220q-19 -26 -51 -26z" />
    <glyph glyph-name="guilsinglleft" unicode="&#x2039;" horiz-adv-x="835" 
d="M606 228q-21 0 -36 13l-372 307q-49 40 0 80l372 307q15 13 36 13q23 0 39.5 -16t16.5 -40q0 -13 -6 -23.5t-16 -19.5l-316 -261l316 -261q10 -8 16 -18.5t6 -24.5q0 -23 -16.5 -39.5t-39.5 -16.5z" />
    <glyph glyph-name="guilsinglright" unicode="&#x203a;" horiz-adv-x="835" 
d="M229 228q-22 0 -39 16.5t-17 39.5q0 14 6.5 24.5t15.5 18.5l316 261l-316 261q-9 9 -15.5 19.5t-6.5 23.5q0 24 17 40t39 16t36 -13l372 -307q50 -40 0 -80l-372 -307q-14 -13 -36 -13z" />
    <glyph glyph-name="fraction" unicode="&#x2044;" horiz-adv-x="514" 
d="M-271 -19q-26 0 -44.5 18.5t-18.5 44.5q0 11 3.5 21t8.5 18l922 1220q20 26 51 26q27 0 45 -18t18 -45q0 -10 -3 -20t-9 -19l-922 -1220q-19 -26 -51 -26z" />
    <glyph glyph-name="uni2074" unicode="&#x2074;" horiz-adv-x="742" 
d="M484 617q-60 0 -60 60l4 501l49 -8l-293 -361l-13 61h437q60 0 60 -61q0 -60 -60 -60h-474q-60 0 -60 60q0 31 25 63l322 402q16 19 32.5 28t40.5 9q54 0 54 -60l-4 -574q0 -60 -60 -60z" />
    <glyph glyph-name="Euro" unicode="&#x20ac;" horiz-adv-x="1342" 
d="M145 704q-27 0 -41.5 14.5t-14.5 41.5q0 28 14.5 42t41.5 14h821q28 0 42 -14t14 -42q0 -27 -14 -41.5t-42 -14.5h-821zM145 489q-27 0 -41.5 14.5t-14.5 41.5q0 28 14.5 42t41.5 14h712q28 0 42 -14t14 -42q0 -27 -14 -41.5t-42 -14.5h-712zM684 1q-221 0 -324 103
t-103 324v454q0 224 103 326t322 101h242q93 0 151 -29.5t120 -103.5q14 -17 14 -40q0 -26 -18 -44.5t-45 -18.5q-15 0 -27.5 7.5t-21.5 16.5q-44 53 -76.5 69.5t-96.5 16.5h-242q-111 1 -176.5 -27t-94 -94t-28.5 -180v-454q0 -112 28.5 -177.5t94.5 -94.5t178 -29h240
q52 0 87.5 6.5t61 25t47.5 53.5q8 12 21 18.5t27 6.5q27 0 45 -18t18 -45q0 -22 -15 -37q-37 -48 -77.5 -78t-92 -44t-122.5 -14h-240z" />
    <glyph glyph-name="uni2116" unicode="&#x2116;" horiz-adv-x="2268" 
d="M257 0q-63 0 -63 63v1185q0 63 63 63q33 0 64 -37l833 -1071h-30v1045q0 63 63 63t63 -63v-1185q0 -63 -63 -63q-34 0 -64 37l-833 1071h30v-1045q0 -63 -63 -63zM1671 610q-137 0 -204 67t-67 204v135q0 139 67 205.5t204 65.5h132q138 0 204.5 -66.5t66.5 -204.5v-133
q0 -138 -66.5 -205.5t-204.5 -67.5h-132zM1671 736h132q85 0 115 30.5t30 116.5v133q0 84 -30 114.5t-115 30.5h-132q-84 1 -114.5 -28.5t-30.5 -116.5v-135q0 -84 30.5 -114.5t114.5 -30.5zM1488 388q-63 0 -63 63t63 63h506q63 0 63 -63t-63 -63h-506z" />
    <glyph glyph-name="trademark" unicode="&#x2122;" horiz-adv-x="1490" 
d="M870 673q0 -53 -53 -53t-53 53v566q0 54 54 54q32 0 46 -25l215 -323l212 323q13 25 44 25q55 0 55 -54v-566q0 -53 -53 -53t-53 53v391l-158 -242q-15 -24 -48 -24q-30 0 -45 24l-163 245v-394zM426 673q0 -53 -53 -53t-53 53v513h-167q-53 0 -53 53q0 54 53 54h440
q53 0 53 -54q0 -53 -53 -53h-167v-513z" />
    <glyph glyph-name="minus" unicode="&#x2212;" horiz-adv-x="1154" 
d="M210 598q-56 0 -56 56t56 56h734q56 0 56 -56t-56 -56h-734z" />
    <glyph glyph-name="uni2215" unicode="&#x2215;" horiz-adv-x="1030" 
d="M208 -272q-15 -34 -52 -34q-23 0 -39.5 16.5t-16.5 39.5q0 11 5 24l717 1608q16 34 52 34q24 0 40 -16t16 -40q0 -10 -5 -24z" />
    <glyph glyph-name="uniFFFD" unicode="&#xfffd;" horiz-adv-x="960" 
d="M740 -2l-520 2q-109 0 -149.5 54.5t-40.5 193.5v860q0 140 40.5 194t149.5 54l520 -2q110 0 150 -54t40 -194v-860q0 -139 -40 -193.5t-150 -54.5zM462 208h34q54 0 54 58v36q0 56 -54 56h-34q-58 0 -58 -56v-36q0 -58 58 -58zM478 450q62 0 62 60q0 62 26 86.5t72 51.5
q31 18 68.5 44.5t64.5 73t27 124.5q0 268 -268 268h-100q-268 0 -268 -268q0 -60 62 -60q60 0 60 60q0 84 30.5 115t115.5 31h100q86 0 115 -30t29 -116q0 -61 -24 -85t-74 -53q-31 -18 -68 -45t-63.5 -73.5t-26.5 -123.5q0 -60 60 -60z" />
    <glyph glyph-name="Iacute_J.loclNLD" horiz-adv-x="1258" 
d="M581 0q-186 0 -278.5 77t-106.5 245q-2 32 14.5 48.5t46.5 16.5q60 0 65 -63q10 -113 68.5 -155.5t190.5 -42.5h110q100 0 156.5 23.5t80.5 80.5t24 157v861q0 63 63 63t63 -63v-861q0 -203 -92 -295t-295 -92h-110zM259 497q-31 0 -47 16.5t-16 46.5v688q0 31 16 47
t47 16q30 0 46.5 -16t16.5 -47v-688q0 -30 -16.5 -46.5t-46.5 -16.5zM226 1417q-43 36 -7 81l163 193q36 45 81 8q43 -36 8 -81l-164 -194q-36 -45 -81 -7zM997 1417q-43 36 -7 81l163 193q35 45 81 8q42 -36 7 -81l-163 -194q-37 -45 -81 -7z" />
    <glyph glyph-name="i.loclTRK" horiz-adv-x="514" 
d="M233 1144q-78 0 -78 79v50q0 77 78 77h49q75 0 75 -77v-50q0 -79 -75 -79h-49zM257 0q-63 0 -63 63v842q0 63 63 63t63 -63v-842q0 -63 -63 -63z" />
    <glyph glyph-name="germandbls.calt" horiz-adv-x="1162" 
d="M257 -20q-27 0 -45 18t-18 45v917q0 180 85 264.5t264 84.5h16q173 0 257.5 -79t89.5 -247q0 -24 -7 -42t-23 -37l-123 -135q131 -100 190 -207t59 -241q0 -174 -83 -257.5t-258 -83.5h-140q-27 0 -45 18t-18 45q0 28 18 45.5t45 17.5h140q123 0 169 47t46 168
q0 115 -57.5 204t-196.5 182v102l158 177q-3 112 -52 154.5t-169 42.5h-16q-126 0 -174.5 -48t-48.5 -175v-917q0 -27 -18 -45t-45 -18z" />
    <glyph glyph-name="iacute_j.loclNLD" horiz-adv-x="1028" 
d="M206 1092q-42 37 -7 81l163 194q37 45 81 7q43 -35 7 -81l-163 -194q-35 -45 -81 -7zM721 1092q-42 37 -7 81l163 194q37 45 81 7q43 -35 7 -81l-163 -194q-35 -45 -81 -7zM257 0q-63 0 -63 63v842q0 63 63 63t63 -63v-842q0 -63 -63 -63zM551 -400q-30 0 -47 16.5
t-17 46.5q0 31 17.5 47t46.5 16q91 0 124 33.5t33 123.5v1022q0 63 63 63t63 -63v-1022q0 -144 -69 -213.5t-214 -69.5z" />
    <glyph glyph-name="I_J.loclNLD" horiz-adv-x="1261" 
d="M258 497q-30 0 -46.5 16.5t-16.5 46.5v688q0 31 16.5 47t46.5 16t46.5 -16t16.5 -47v-688q0 -30 -16.5 -46.5t-46.5 -16.5zM580 0q-186 0 -278 77t-107 245q-2 32 14.5 48.5t46.5 16.5q61 0 65 -63q11 -113 69 -155.5t190 -42.5h110q100 0 157 23.5t80.5 80.5t23.5 157
v861q0 63 63 63t63 -63v-861q0 -203 -92 -295t-295 -92h-110z" />
    <glyph glyph-name="periodcentered.loclCAT" horiz-adv-x="235" 
d="M-23 500q-65 0 -65 66v42q0 64 65 64h41q63 0 63 -64v-42q0 -66 -63 -66h-41z" />
    <glyph glyph-name="uni0302.case" horiz-adv-x="0" 
d="M159 1417q-24 0 -41.5 17.5t-17.5 41.5q0 31 26 49l193 161q33 27 73 27h17q40 0 73 -27l194 -161q26 -19 26 -49q0 -24 -17.5 -41.5t-41.5 -17.5q-23 0 -42 17l-194 161h-13l-193 -161q-18 -17 -42 -17z" />
    </font>
</defs>
</svg>
